<svg width="15" height="16" viewBox="0 0 15 16" fill="none" xmlns="http://www.w3.org/2000/svg">
<path d="M1.48351 6.09524H11.868V7.61905H13.3515V3.04762C13.3515 2.20952 12.684 1.52381 11.868 1.52381H11.1263V0H9.64278V1.52381H3.70876V0H2.22526V1.52381H1.48351C0.66016 1.52381 0.00741752 2.20952 0.00741752 3.04762L0 13.7143C0 14.5524 0.66016 15.2381 1.48351 15.2381H6.67577V13.7143H1.48351V6.09524ZM1.48351 3.04762H11.868V4.57143H1.48351V3.04762ZM14.7164 10.88L14.1897 11.421L12.6172 9.80571L13.1439 9.26476C13.4331 8.96762 13.9004 8.96762 14.1897 9.26476L14.7164 9.80571C15.0057 10.1029 15.0057 10.5829 14.7164 10.88ZM12.0906 10.3467L13.6631 11.9619L9.73179 16H8.15928V14.3848L12.0906 10.3467Z" fill="#F2F2F2"/>
</svg>
