<svg width="16" height="14" viewBox="0 0 16 14" fill="none" xmlns="http://www.w3.org/2000/svg">
<path d="M1.61372 11.2941V10.7697C1.61372 10.4955 1.74281 10.2373 1.94453 10.1163C3.30812 9.30151 4.86536 8.87395 6.45487 8.87395C6.47907 8.87395 6.49521 8.87395 6.51941 8.88202C6.6001 8.31731 6.76147 7.77681 6.99546 7.28471C6.81795 7.26857 6.64044 7.2605 6.45487 7.2605C4.50227 7.2605 2.67877 7.80101 1.12153 8.72874C0.411498 9.14824 0 9.93882 0 10.7697V12.9076H7.47151C7.13263 12.4235 6.86636 11.875 6.68886 11.2941H1.61372Z" fill="#808080"/>
<path d="M6.45487 6.45378C8.23802 6.45378 9.6823 5.00975 9.6823 3.22689C9.6823 1.44403 8.23802 0 6.45487 0C4.67171 0 3.22743 1.44403 3.22743 3.22689C3.22743 5.00975 4.67171 6.45378 6.45487 6.45378ZM6.45487 1.61345C7.34241 1.61345 8.06858 2.3395 8.06858 3.22689C8.06858 4.11429 7.34241 4.84034 6.45487 4.84034C5.56732 4.84034 4.84115 4.11429 4.84115 3.22689C4.84115 2.3395 5.56732 1.61345 6.45487 1.61345Z" fill="#808080"/>
<path d="M15.1286 9.68067C15.1286 9.50319 15.1044 9.34185 15.0802 9.17244L16 8.35765L15.1931 6.96202L14.0232 7.35731C13.765 7.1395 13.4745 6.97008 13.1518 6.84908L12.9097 5.64706H11.296L11.054 6.84908C10.7312 6.97008 10.4407 7.1395 10.1826 7.35731L9.01261 6.96202L8.20575 8.35765L9.12557 9.17244C9.10136 9.34185 9.07716 9.50319 9.07716 9.68067C9.07716 9.85815 9.10136 10.0195 9.12557 10.1889L8.20575 11.0037L9.01261 12.3993L10.1826 12.004C10.4407 12.2218 10.7312 12.3913 11.054 12.5123L11.296 13.7143H12.9097L13.1518 12.5123C13.4745 12.3913 13.765 12.2218 14.0232 12.004L15.1931 12.3993L16 11.0037L15.0802 10.1889C15.1044 10.0195 15.1286 9.85815 15.1286 9.68067ZM12.1029 11.2941C11.2153 11.2941 10.4892 10.5681 10.4892 9.68067C10.4892 8.79328 11.2153 8.06723 12.1029 8.06723C12.9904 8.06723 13.7166 8.79328 13.7166 9.68067C13.7166 10.5681 12.9904 11.2941 12.1029 11.2941Z" fill="#808080"/>
</svg>
