<svg width="14" height="16" viewBox="0 0 14 16" fill="none" xmlns="http://www.w3.org/2000/svg">
<path d="M6.85714 16C7.8 16 8.57143 15.2615 8.57143 14.359H5.14286C5.14286 15.2615 5.91429 16 6.85714 16ZM12 11.0769V6.97436C12 4.45538 10.6029 2.34667 8.14286 1.78872V1.23077C8.14286 0.549744 7.56857 0 6.85714 0C6.14571 0 5.57143 0.549744 5.57143 1.23077V1.78872C3.12 2.34667 1.71429 4.44718 1.71429 6.97436V11.0769L0 12.7179V13.5385H13.7143V12.7179L12 11.0769ZM10.2857 11.8974H3.42857V6.97436C3.42857 4.93949 4.72286 3.28205 6.85714 3.28205C8.99143 3.28205 10.2857 4.93949 10.2857 6.97436V11.8974Z" fill="#808080"/>
</svg>
