<svg width="289" height="183" viewBox="0 0 289 183" fill="none" xmlns="http://www.w3.org/2000/svg">
<g clip-path="url(#clip0_400:2153)">
<path d="M0 16C0 7.16343 7.16344 0 16 0H273C281.837 0 289 7.16344 289 16V166.2C289 175.037 281.837 182.2 273 182.2H16C7.16344 182.2 0 175.037 0 166.2V16Z" fill="white"/>
<rect width="289" height="182.2" fill="#479082"/>
</g>
<path d="M150.875 153.39C188.976 153.39 219.863 149.472 219.863 144.64C219.863 139.807 188.976 135.889 150.875 135.889C112.774 135.889 81.8866 139.807 81.8866 144.64C81.8866 149.472 112.774 153.39 150.875 153.39Z" fill="black" fill-opacity="0.25"/>
<path d="M112.624 121.039C107.38 120.051 102.076 118.669 97.9633 115.779C93.8508 112.89 91.1422 108.187 92.3493 103.662C93.9785 97.6071 101.995 92.8834 100.836 86.8228C100.005 82.4915 94.6189 79.9721 89.5504 79.2223C84.4783 78.4539 79.0997 78.7934 74.323 77.2261C67.1102 74.864 62.6995 68.6657 60.1553 62.4185C57.5099 55.939 56.5107 48.2195 61.1247 42.4241C66.8359 35.1942 78.455 33.9077 88.5271 33.5372C101.979 33.033 115.433 32.8163 128.892 32.6181C158.384 32.1673 187.88 31.7351 217.372 31.2842C220.534 31.2452 223.827 31.2224 226.644 32.3745C232.226 34.6878 233.953 41.1316 231.997 46.2827C230.059 51.4308 225.371 55.492 220.633 59.1203C215.894 62.7485 210.831 66.2978 207.677 71.0192C204.524 75.7406 203.748 82.0538 207.682 86.1448C210.999 89.6114 216.877 90.7611 220.05 94.3289C224.234 99.0301 221.957 106.309 216.954 110.616C211.951 114.923 140.37 126.241 112.624 121.039Z" fill="#539A8B"/>
<path d="M184.254 48.7134C184.254 46.19 184.254 43.6688 184.254 41.1453C184.254 38.9475 180.549 38.9429 180.549 41.1453C180.549 43.6688 180.549 46.19 180.549 48.7134C180.549 50.9112 184.254 50.9158 184.254 48.7134Z" fill="#D3D3D3"/>
<path d="M159.62 48.7134C159.62 46.19 159.62 43.6688 159.62 41.1453C159.62 38.9475 155.915 38.9429 155.915 41.1453C155.915 43.6688 155.915 46.19 155.915 48.7134C155.915 50.9112 159.62 50.9158 159.62 48.7134Z" fill="#D3D3D3"/>
<path d="M131.577 48.7134C131.577 46.19 131.577 43.6688 131.577 41.1453C131.577 38.9475 127.872 38.9429 127.872 41.1453C127.872 43.6688 127.872 46.19 127.872 48.7134C127.872 50.9112 131.577 50.9158 131.577 48.7134Z" fill="#D3D3D3"/>
<path d="M200.568 146.418H101.182C99.0083 146.418 97.247 144.794 97.247 142.79V47.8549C97.247 45.8507 99.0083 44.2268 101.182 44.2268H200.565C202.739 44.2268 204.501 45.8507 204.501 47.8549V142.788C204.503 144.794 202.742 146.418 200.568 146.418Z" fill="#D3D3D3"/>
<path d="M195.422 146.418H101.182C99.0083 146.418 97.247 144.794 97.247 142.79V47.8549C97.247 45.8507 99.0083 44.2268 101.182 44.2268H195.422C197.596 44.2268 199.357 45.8507 199.357 47.8549V142.788C199.36 144.794 197.596 146.418 195.422 146.418Z" fill="white"/>
<path d="M209.132 36.5562H92.6201V69.3954H209.132V36.5562Z" fill="#479082"/>
<path d="M148.304 62.9956C151.376 62.9956 153.867 60.6993 153.867 57.8667C153.867 55.0341 151.376 52.7378 148.304 52.7378C145.231 52.7378 142.74 55.0341 142.74 57.8667C142.74 60.6993 145.231 62.9956 148.304 62.9956Z" fill="#2B2B2B"/>
<path d="M120.293 62.9956C123.365 62.9956 125.856 60.6993 125.856 57.8667C125.856 55.0341 123.365 52.7378 120.293 52.7378C117.22 52.7378 114.729 55.0341 114.729 57.8667C114.729 60.6993 117.22 62.9956 120.293 62.9956Z" fill="#2B2B2B"/>
<path d="M172.937 62.9956C176.01 62.9956 178.501 60.6993 178.501 57.8667C178.501 55.0341 176.01 52.7378 172.937 52.7378C169.865 52.7378 167.374 55.0341 167.374 57.8667C167.374 60.6993 169.865 62.9956 172.937 62.9956Z" fill="#2B2B2B"/>
<path d="M122.145 57.8668C122.145 55.5619 122.145 53.2571 122.145 50.9523C122.145 48.0439 122.145 45.1355 122.145 42.2271C122.145 41.5462 122.086 40.8766 122.182 40.1979C122.16 40.3482 122.138 40.5008 122.116 40.6511C122.187 40.1592 122.316 39.6763 122.523 39.2163C122.462 39.3529 122.4 39.4873 122.336 39.624C122.422 39.4372 122.518 39.2573 122.632 39.0842C122.694 38.9885 122.763 38.8997 122.832 38.8086C122.978 38.6128 122.494 39.1776 122.669 39.0022C122.711 38.9612 122.748 38.9157 122.79 38.8747C122.867 38.7972 122.948 38.7221 123.035 38.6492C123.074 38.615 123.116 38.5854 123.158 38.5513C123.361 38.385 122.714 38.8451 122.98 38.6811C123.2 38.5467 123.423 38.4306 123.665 38.3349C123.516 38.3918 123.371 38.4488 123.222 38.508C123.571 38.3782 123.931 38.2939 124.304 38.2461C124.141 38.2666 123.976 38.2871 123.813 38.3076C124.366 38.2438 124.924 38.2506 125.475 38.3167C125.312 38.2962 125.147 38.2757 124.984 38.2552C125.431 38.3144 125.863 38.4169 126.281 38.574C126.132 38.5171 125.987 38.4602 125.838 38.4009C126.145 38.5217 126.426 38.6697 126.701 38.8451C126.73 38.8656 126.762 38.8929 126.794 38.9088C126.812 38.9157 126.392 38.6059 126.555 38.7403C126.612 38.7881 126.671 38.8314 126.725 38.8769C126.841 38.9749 126.95 39.0774 127.054 39.1867C127.101 39.2368 127.145 39.2892 127.192 39.3393C127.316 39.4668 126.896 38.968 127 39.1092C127.019 39.1366 127.042 39.1616 127.061 39.1867C127.14 39.2892 127.217 39.3962 127.286 39.5055C127.424 39.7173 127.543 39.9383 127.647 40.166C127.585 40.0294 127.523 39.895 127.459 39.7583C127.676 40.2412 127.825 40.7468 127.901 41.2638C127.879 41.1134 127.857 40.9609 127.835 40.8105C127.849 40.9199 127.864 41.0292 127.869 41.1385C127.906 42.0313 128.694 42.8899 129.722 42.8466C130.693 42.8056 131.614 42.0951 131.575 41.1385C131.535 40.182 131.239 39.2732 130.826 38.4032C130.068 36.7999 128.539 35.5814 126.715 35.1031C124.544 34.5315 121.918 34.8298 120.273 36.3512C119.057 37.474 118.566 39.0204 118.43 40.5623C118.39 41.0178 118.43 41.4619 118.437 41.9151C118.445 42.5847 118.437 43.2543 118.437 43.9239C118.437 46.6182 118.437 49.3125 118.437 52.0067C118.437 53.9267 118.413 55.8489 118.437 57.7688C118.437 57.8007 118.437 57.8326 118.437 57.8622C118.437 58.755 119.29 59.6113 120.29 59.5703C121.296 59.5339 122.145 58.8256 122.145 57.8668Z" fill="#D3D3D3"/>
<path d="M150.188 57.8668C150.188 55.5619 150.188 53.2571 150.188 50.9523C150.188 48.0439 150.188 45.1355 150.188 42.2271C150.188 41.5462 150.129 40.8766 150.225 40.1979C150.203 40.3482 150.181 40.5008 150.159 40.6511C150.23 40.1592 150.359 39.6763 150.566 39.2163C150.505 39.3529 150.443 39.4873 150.379 39.624C150.465 39.4372 150.561 39.2573 150.675 39.0842C150.737 38.9885 150.806 38.8997 150.875 38.8086C151.021 38.6128 150.537 39.1776 150.712 39.0022C150.754 38.9612 150.791 38.9157 150.833 38.8747C150.91 38.7972 150.991 38.7221 151.078 38.6492C151.117 38.615 151.159 38.5854 151.201 38.5513C151.404 38.385 150.757 38.8451 151.023 38.6811C151.243 38.5467 151.466 38.4306 151.708 38.3349C151.559 38.3918 151.414 38.4488 151.265 38.508C151.614 38.3782 151.974 38.2939 152.347 38.2461C152.184 38.2666 152.019 38.2871 151.856 38.3076C152.409 38.2438 152.968 38.2506 153.518 38.3167C153.355 38.2962 153.19 38.2757 153.027 38.2552C153.474 38.3144 153.906 38.4169 154.324 38.574C154.176 38.5171 154.03 38.4602 153.882 38.4009C154.188 38.5217 154.469 38.6697 154.744 38.8451C154.773 38.8656 154.805 38.8929 154.838 38.9088C154.855 38.9157 154.435 38.6059 154.598 38.7403C154.655 38.7881 154.714 38.8314 154.768 38.8769C154.885 38.9749 154.993 39.0774 155.097 39.1867C155.144 39.2368 155.188 39.2892 155.235 39.3393C155.359 39.4668 154.939 38.968 155.043 39.1092C155.062 39.1366 155.085 39.1616 155.104 39.1867C155.183 39.2892 155.26 39.3962 155.329 39.5055C155.467 39.7173 155.586 39.9383 155.69 40.166C155.628 40.0294 155.566 39.895 155.502 39.7583C155.719 40.2412 155.868 40.7468 155.944 41.2638C155.922 41.1134 155.9 40.9609 155.878 40.8105C155.892 40.9199 155.907 41.0292 155.912 41.1385C155.949 42.0313 156.737 42.8899 157.765 42.8466C158.736 42.8056 159.657 42.0951 159.618 41.1385C159.578 40.182 159.282 39.2732 158.869 38.4032C158.111 36.7999 156.582 35.5814 154.759 35.1031C152.587 34.5315 149.961 34.8298 148.316 36.3512C147.101 37.474 146.609 39.0204 146.473 40.5623C146.434 41.0178 146.473 41.4619 146.48 41.9151C146.488 42.5847 146.48 43.2543 146.48 43.9239C146.48 46.6182 146.48 49.3125 146.48 52.0067C146.48 53.9267 146.456 55.8489 146.48 57.7688C146.48 57.8007 146.48 57.8326 146.48 57.8622C146.48 58.755 147.333 59.6113 148.333 59.5703C149.341 59.5339 150.188 58.8256 150.188 57.8668Z" fill="#D3D3D3"/>
<path d="M174.822 57.8668C174.822 55.5619 174.822 53.2571 174.822 50.9523C174.822 48.0439 174.822 45.1355 174.822 42.2271C174.822 41.5462 174.763 40.8766 174.859 40.1979C174.837 40.3482 174.815 40.5008 174.793 40.6511C174.864 40.1592 174.993 39.6763 175.2 39.2163C175.139 39.3529 175.077 39.4873 175.013 39.624C175.099 39.4372 175.195 39.2573 175.309 39.0842C175.371 38.9885 175.44 38.8997 175.509 38.8086C175.655 38.6128 175.171 39.1776 175.346 39.0022C175.388 38.9612 175.425 38.9157 175.467 38.8747C175.544 38.7972 175.625 38.7221 175.712 38.6492C175.751 38.615 175.793 38.5854 175.835 38.5513C176.038 38.385 175.391 38.8451 175.657 38.6811C175.877 38.5467 176.1 38.4306 176.342 38.3349C176.193 38.3918 176.048 38.4488 175.899 38.508C176.248 38.3782 176.608 38.2939 176.981 38.2461C176.818 38.2666 176.653 38.2871 176.49 38.3076C177.043 38.2438 177.601 38.2506 178.152 38.3167C177.989 38.2962 177.824 38.2757 177.661 38.2552C178.108 38.3144 178.54 38.4169 178.958 38.574C178.809 38.5171 178.664 38.4602 178.515 38.4009C178.822 38.5217 179.103 38.6697 179.378 38.8451C179.407 38.8656 179.439 38.8929 179.472 38.9088C179.489 38.9157 179.069 38.6059 179.232 38.7403C179.289 38.7881 179.348 38.8314 179.402 38.8769C179.518 38.9749 179.627 39.0774 179.731 39.1867C179.778 39.2368 179.822 39.2892 179.869 39.3393C179.993 39.4668 179.573 38.968 179.677 39.1092C179.696 39.1366 179.719 39.1616 179.738 39.1867C179.817 39.2892 179.894 39.3962 179.963 39.5055C180.101 39.7173 180.22 39.9383 180.324 40.166C180.262 40.0294 180.2 39.895 180.136 39.7583C180.353 40.2412 180.502 40.7468 180.578 41.2638C180.556 41.1134 180.534 40.9609 180.511 40.8105C180.526 40.9199 180.541 41.0292 180.546 41.1385C180.583 42.0313 181.371 42.8899 182.399 42.8466C183.37 42.8056 184.291 42.0951 184.252 41.1385C184.212 40.182 183.916 39.2732 183.503 38.4032C182.745 36.7999 181.216 35.5814 179.392 35.1031C177.221 34.5315 174.595 34.8298 172.95 36.3512C171.734 37.474 171.243 39.0204 171.107 40.5623C171.068 41.0178 171.107 41.4619 171.114 41.9151C171.122 42.5847 171.114 43.2543 171.114 43.9239C171.114 46.6182 171.114 49.3125 171.114 52.0067C171.114 53.9267 171.09 55.8489 171.114 57.7688C171.114 57.8007 171.114 57.8326 171.114 57.8622C171.114 58.755 171.967 59.6113 172.967 59.5703C173.975 59.5339 174.822 58.8256 174.822 57.8668Z" fill="#D3D3D3"/>
<path d="M129.724 76.5924H111.207V93.6646H129.724V76.5924Z" fill="#C4C4C4"/>
<path d="M157.562 76.5924H139.045V93.6646H157.562V76.5924Z" fill="#C4C4C4"/>
<path d="M186.435 76.5924H167.918V93.6646H186.435V76.5924Z" fill="#FF785A"/>
<path d="M129.724 99.766H111.207V116.838H129.724V99.766Z" fill="#C4C4C4"/>
<path d="M157.562 99.766H139.045V116.838H157.562V99.766Z" fill="#C4C4C4"/>
<path d="M186.435 99.766H167.918V116.838H186.435V99.766Z" fill="#C4C4C4"/>
<path d="M129.724 122.942H111.207V140.014H129.724V122.942Z" fill="#C4C4C4"/>
<path d="M157.562 122.942H139.045V140.014H157.562V122.942Z" fill="#C4C4C4"/>
<path d="M186.435 122.942H167.918V140.014H186.435V122.942Z" fill="#C4C4C4"/>
<defs>
<clipPath id="clip0_400:2153">
<path d="M0 16C0 7.16343 7.16344 0 16 0H273C281.837 0 289 7.16344 289 16V166.2C289 175.037 281.837 182.2 273 182.2H16C7.16344 182.2 0 175.037 0 166.2V16Z" fill="white"/>
</clipPath>
</defs>
</svg>
