<svg width="11" height="16" viewBox="0 0 11 16" fill="none" xmlns="http://www.w3.org/2000/svg">
<path d="M5.5 0C2.45929 0 0 2.504 0 5.6C0 9.8 5.5 16 5.5 16C5.5 16 11 9.8 11 5.6C11 2.504 8.54071 0 5.5 0ZM1.57143 5.6C1.57143 3.392 3.33143 1.6 5.5 1.6C7.66857 1.6 9.42857 3.392 9.42857 5.6C9.42857 7.904 7.16571 11.352 5.5 13.504C3.86571 11.368 1.57143 7.88 1.57143 5.6Z" fill="#999999"/>
<path d="M5.5 7.6C6.58485 7.6 7.46429 6.70457 7.46429 5.6C7.46429 4.49543 6.58485 3.6 5.5 3.6C4.41515 3.6 3.53571 4.49543 3.53571 5.6C3.53571 6.70457 4.41515 7.6 5.5 7.6Z" fill="#999999"/>
</svg>
