<svg width="18" height="18" viewBox="0 0 18 18" fill="none" xmlns="http://www.w3.org/2000/svg">
<path d="M16.12 12.1645C15.0267 12.1645 13.9689 11.9867 12.9822 11.6667C12.6711 11.56 12.3244 11.64 12.0844 11.88L10.6889 13.6311C8.17333 12.4311 5.81778 10.1645 4.56444 7.56003L6.29778 6.08448C6.53778 5.83559 6.60889 5.48892 6.51111 5.17781C6.18222 4.19115 6.01333 3.13337 6.01333 2.04003C6.01333 1.56003 5.61333 1.16003 5.13333 1.16003H2.05778C1.57778 1.16003 1 1.37337 1 2.04003C1 10.2978 7.87111 17.16 16.12 17.16C16.7511 17.16 17 16.6 17 16.1111V13.0445C17 12.5645 16.6 12.1645 16.12 12.1645Z" stroke="#808080" stroke-width="1.5"/>
</svg>
