<svg width="32" height="32" viewBox="0 0 32 32" fill="none" xmlns="http://www.w3.org/2000/svg">
<rect width="32" height="32" rx="2" fill="#DFDFDF"/>
<path d="M16 13C18.0673 13 19.9109 14.065 20.8109 15.75C19.9109 17.435 18.0673 18.5 16 18.5C13.9327 18.5 12.0891 17.435 11.1891 15.75C12.0891 14.065 13.9327 13 16 13ZM16 12C13.2727 12 10.9436 13.555 10 15.75C10.9436 17.945 13.2727 19.5 16 19.5C18.7273 19.5 21.0564 17.945 22 15.75C21.0564 13.555 18.7273 12 16 12ZM16 14.5C16.7527 14.5 17.3636 15.06 17.3636 15.75C17.3636 16.44 16.7527 17 16 17C15.2473 17 14.6364 16.44 14.6364 15.75C14.6364 15.06 15.2473 14.5 16 14.5ZM16 13.5C14.6473 13.5 13.5455 14.51 13.5455 15.75C13.5455 16.99 14.6473 18 16 18C17.3527 18 18.4545 16.99 18.4545 15.75C18.4545 14.51 17.3527 13.5 16 13.5Z" fill="#2587CE"/>
</svg>
