<svg width="32" height="32" viewBox="0 0 32 32" fill="none" xmlns="http://www.w3.org/2000/svg">
<rect width="32" height="32" rx="2" fill="#DFDFDF"/>
<path d="M17.7257 13.6L16.1364 15.154L14.547 13.6L13.6818 14.446L15.2711 16L13.6818 17.554L14.547 18.4L16.1364 16.846L17.7257 18.4L18.5909 17.554L17.0016 16L18.5909 14.446L17.7257 13.6ZM16.1364 10C12.743 10 10 12.682 10 16C10 19.318 12.743 22 16.1364 22C19.5298 22 22.2727 19.318 22.2727 16C22.2727 12.682 19.5298 10 16.1364 10ZM16.1364 20.8C13.4302 20.8 11.2273 18.646 11.2273 16C11.2273 13.354 13.4302 11.2 16.1364 11.2C18.8425 11.2 21.0455 13.354 21.0455 16C21.0455 18.646 18.8425 20.8 16.1364 20.8Z" fill="#E63C3C"/>
</svg>
