<svg width="299" height="182" viewBox="0 0 299 182" fill="none" xmlns="http://www.w3.org/2000/svg">
<rect x="5" width="289" height="182" fill="#479082"/>
<g clip-path="url(#clip0_480:2226)">
<path opacity="0.11" d="M153.738 169.246C211.294 169.246 257.953 163.89 257.953 157.282C257.953 150.675 211.294 145.318 153.738 145.318C96.1811 145.318 49.5222 150.675 49.5222 157.282C49.5222 163.89 96.1811 169.246 153.738 169.246Z" fill="black"/>
<path opacity="0.11" d="M91.93 167.165C87.1342 170.107 52.5315 174.846 39.1868 124.409C25.8422 73.9716 46.1427 56.1403 75.4081 43.7276C106.182 30.6749 125.249 51.2899 137.169 34.177C158.457 3.61472 232.795 6.06426 243.17 44.046C254.608 85.9228 233.002 83.9512 258.946 114.347C269.799 127.062 252.506 177.72 203.923 168.187C155.339 158.654 97.5537 163.715 91.93 167.165Z" fill="#B6E7D6"/>
<path d="M122.851 151.367L181.478 160.719V45.1729L122.851 35.8212V151.367Z" fill="#97D5BF"/>
<path opacity="0.13" d="M122.919 151.87L181.546 161.222V45.6765L122.919 36.3248V151.87Z" fill="#479082"/>
<path d="M122.851 151.367L64.2235 160.719V45.1729L122.851 35.8212V151.367Z" fill="#8DCBB7"/>
<path d="M240.105 151.367L181.478 160.719V45.1729L240.105 35.8212V151.367Z" fill="#8DCBB7"/>
<path d="M122.851 80.2142L64.2235 88.3323V82.7611L122.851 74.6429V80.2142Z" fill="#F7F7F7"/>
<path d="M122.851 115.711L64.2235 123.829V118.258L122.851 110.14V115.711Z" fill="#F7F7F7"/>
<path d="M240.105 80.2142L181.478 88.3323V82.7611L240.105 74.6429V80.2142Z" fill="#F7F7F7"/>
<path d="M149.922 112.665C156.787 112.665 162.351 106.736 162.351 99.4235C162.351 92.1107 156.787 86.1825 149.922 86.1825C143.058 86.1825 137.494 92.1107 137.494 99.4235C137.494 106.736 143.058 112.665 149.922 112.665Z" fill="#0E538C"/>
<path d="M240.105 115.711L181.478 123.829V118.258L240.105 110.14V115.711Z" fill="#F7F7F7"/>
<path d="M122.851 80.2142L181.478 88.3323V82.7611L122.851 74.6429V80.2142Z" fill="#F7F7F7"/>
<path d="M122.851 115.711L181.478 123.829V118.258L122.851 110.14V115.711Z" fill="#F7F7F7"/>
<path d="M83.353 157.667L78.4786 158.423V42.8991L83.353 42.1216V157.667Z" fill="#F7F7F7"/>
<path d="M110.997 113.914L106.122 114.67V38.5044L110.997 37.7269V113.914Z" fill="#F7F7F7"/>
<path d="M148.863 155.687L153.738 156.443V40.8749L148.863 40.0974V155.687Z" fill="#F7F7F7"/>
<path d="M186.352 159.997L181.478 160.753V45.2292L186.352 44.4517V159.997Z" fill="#F7F7F7"/>
<path d="M209.773 117.448L204.898 118.203V41.543L209.773 40.7655V117.448Z" fill="#F7F7F7"/>
<path d="M234.02 152.224L229.146 152.98V112.629L234.02 111.851V152.224Z" fill="#F7F7F7"/>
<path d="M219.161 154.665L214.286 155.421V115.069L219.161 114.292V154.665Z" fill="#F7F7F7"/>
<path d="M202.321 157.357L197.447 158.113V117.762L202.321 116.984V157.357Z" fill="#F7F7F7"/>
<path d="M149.922 80.3158C140.017 80.3158 131.987 88.8705 131.987 99.4235C131.987 109.976 140.017 118.531 149.922 118.531C159.828 118.531 167.858 109.976 167.858 99.4233C167.858 88.8704 159.828 80.3158 149.922 80.3158ZM149.922 112.664C143.058 112.664 137.494 106.736 137.494 99.4233C137.494 92.1105 143.058 86.1823 149.922 86.1823C156.787 86.1823 162.351 92.1105 162.351 99.4233C162.351 106.736 156.787 112.664 149.922 112.664Z" fill="#F7F7F7"/>
<path d="M149.922 112.665C156.787 112.665 162.351 106.736 162.351 99.4235C162.351 92.1107 156.787 86.1825 149.922 86.1825C143.058 86.1825 137.494 92.1107 137.494 99.4235C137.494 106.736 143.058 112.665 149.922 112.665Z" fill="#CCE9FF"/>
<path opacity="0.86" d="M149.922 112.665C156.787 112.665 162.351 106.736 162.351 99.4235C162.351 92.1107 156.787 86.1825 149.922 86.1825C143.058 86.1825 137.494 92.1107 137.494 99.4235C137.494 106.736 143.058 112.665 149.922 112.665Z" fill="#479082"/>
<path d="M181.482 85.925L181.422 85.9169L122.104 77.8917L94.5739 81.1117L94.4777 80.2861L122.112 77.0539L181.474 85.085L206.921 81.1315V41.2204L207.75 41.0881V81.8439L181.482 85.925Z" fill="#FF6340"/>
<path d="M95.2331 91.301C92.296 91.301 87.3253 90.8089 87.3253 88.9647C87.3253 87.1203 92.296 86.6282 95.2331 86.6282C98.1703 86.6282 103.141 87.1203 103.141 88.9647C103.141 90.8089 98.1703 91.301 95.2331 91.301ZM88.3991 88.9647C88.6401 89.4191 91.1282 90.2318 95.2331 90.2318C99.3381 90.2318 101.826 89.4191 102.067 88.9647C101.826 88.5102 99.3381 87.6975 95.2331 87.6975C91.1281 87.6975 88.64 88.5102 88.3991 88.9647Z" fill="#FF6340"/>
<path d="M99.7064 76.6889C99.7064 74.2135 97.7037 72.2068 95.2332 72.2068C92.7626 72.2068 90.7599 74.2135 90.7599 76.6889C90.7599 76.693 90.7599 76.697 90.7599 76.7011C90.7616 77.2806 90.9142 77.8496 91.1707 78.369L95.2332 86.5946L99.2956 78.369C99.5522 77.8496 99.7047 77.2806 99.7064 76.7011C99.7064 76.697 99.7064 76.693 99.7064 76.6889ZM95.2332 79.057C93.9279 79.057 92.8697 77.9967 92.8697 76.6889C92.8697 75.3811 93.9279 74.3208 95.2332 74.3208C96.5384 74.3208 97.5966 75.3811 97.5966 76.6889C97.5966 77.9967 96.5384 79.057 95.2332 79.057Z" fill="#FF6340"/>
<path d="M97.6269 87.4699C97.6269 87.4699 95.4228 85.865 96.595 83.1785C97.2649 81.6431 97.8892 84.0838 99.0414 84.5563C99.0414 84.5563 99.4858 84.854 99.1443 84.3743C98.8029 83.8947 98.5238 83.8618 98.5594 83.6632C98.595 83.4645 98.6768 83.4337 98.9862 83.5784C99.4486 83.7946 99.5641 83.8992 99.8917 84.4405C100.219 84.9819 101.402 86.7224 100.537 87.3372C99.6722 87.9519 99.1628 89.1591 97.6269 87.4699Z" fill="#FCD2B1"/>
<path d="M121.783 79.7012H116.883L117.459 74.1784H121.207L121.783 79.7012Z" fill="#FCD2B1"/>
<path d="M119.333 76.3892C122.256 76.3892 124.625 74.0154 124.625 71.0872C124.625 68.159 122.256 65.7853 119.333 65.7853C116.411 65.7853 114.042 68.159 114.042 71.0872C114.042 74.0154 116.411 76.3892 119.333 76.3892Z" fill="#FAB9AF"/>
<path d="M108.909 114.164L112.791 157.266H115.632C115.632 157.266 119.797 127.728 119.797 122.607C119.797 121.233 120.471 121.428 120.532 121.822C120.596 122.236 126.362 157.217 126.362 157.217L129.498 157.119L129.757 114.164C129.757 114.164 125.841 113.956 120.122 113.956C114.403 113.956 108.909 114.164 108.909 114.164Z" fill="#FFE3CA"/>
<path d="M117.259 77.8854C117.259 77.8854 111.69 78.5967 109.485 82.4259C107.28 86.255 106.784 92.8162 106.122 93.6999C105.461 94.5835 107.925 99.7196 109.672 97.4233C111.419 95.1269 112.425 88.7588 112.866 87.728C113.307 86.6968 117.259 77.8854 117.259 77.8854Z" fill="#0F0F0F"/>
<path d="M123.621 78.5823C123.621 78.5823 128.02 80.1241 129.054 83.2446C130.089 86.3651 134.511 94.1459 134.352 96.6248C134.192 99.1038 128.814 110.802 128.814 110.802L127.348 110.068C127.348 110.068 129.443 97.7212 129.427 96.4166C129.41 95.1119 124.651 91.7205 125.743 87.4383C125.809 87.1811 119.227 81.9361 123.621 78.5823Z" fill="#151515"/>
<path d="M119.333 76.3899C119.333 76.3899 116.344 77.0505 114.63 75.3812C112.915 73.7122 113.16 71.6502 111.984 71.3556C110.808 71.061 111.053 69.2446 111.984 68.7537C112.915 68.2628 114.287 68.0664 114.63 66.3973C114.973 64.7283 119.668 63.8936 120.75 64.8755C121.832 65.8574 123.155 65.71 123.988 66.8391C124.82 67.9683 124.738 71.1911 125.212 72.1411C125.8 73.3193 123.166 75.6877 121.99 76.0313C120.814 76.375 119.333 76.3899 119.333 76.3899Z" fill="#151515"/>
<path d="M129.757 114.164C129.757 114.164 123.84 114.995 119.333 114.995C114.827 114.995 108.91 114.164 108.91 114.164L111.521 84.9752C111.741 82.1147 114.78 77.8604 117.643 77.8604H121.591C124.494 77.8604 127.476 82.1736 127.645 85.0769L129.757 114.164Z" fill="#2E2E2E"/>
<path d="M115.439 160.015H106.961C106.806 160.015 106.737 159.819 106.858 159.721C109.171 157.851 112.053 156.831 115.025 156.831H115.439C115.529 156.831 115.603 156.905 115.603 156.996V159.85C115.603 159.941 115.529 160.015 115.439 160.015Z" fill="#2E2E2E"/>
<path d="M129.592 160.015H121.115C120.96 160.015 120.89 159.819 121.011 159.721C123.324 157.851 126.206 156.831 129.178 156.831H129.592C129.683 156.831 129.757 156.905 129.757 156.996V159.85C129.757 159.941 129.683 160.015 129.592 160.015Z" fill="#2E2E2E"/>
<path d="M98.892 88.3323C98.892 88.3323 103.141 99.4233 108.909 97.9817L107.801 92.1428C107.801 92.1428 102.364 88.8451 100.811 87.0058L98.892 88.3323Z" fill="#0F0F0F"/>
</g>
<defs>
<clipPath id="clip0_480:2226">
<rect width="298.517" height="168.246" fill="white" transform="translate(0 1)"/>
</clipPath>
</defs>
</svg>
