<svg width="289" height="183" viewBox="0 0 289 183" fill="none" xmlns="http://www.w3.org/2000/svg">
<path d="M14 23C14 14.1634 21.1634 7 30 7H270C278.837 7 286 14.1634 286 23V167C286 175.837 278.837 183 270 183H30C21.1634 183 14 175.837 14 167V23Z" fill="white"/>
<rect x="14" y="7" width="272" height="176" fill="#479082"/>
<g clip-path="url(#clip0_400:2152)">
<path opacity="0.11" d="M148.837 163.683C204.558 163.683 249.73 158.497 249.73 152.1C249.73 145.704 204.558 140.518 148.837 140.518C93.1149 140.518 47.9434 145.704 47.9434 152.1C47.9434 158.497 93.1149 163.683 148.837 163.683Z" fill="black"/>
<path opacity="0.11" d="M82.7299 150.298C78.0869 153.146 44.5873 157.734 31.6681 108.905C18.7489 60.0757 38.4022 42.8129 66.7346 30.7959C96.5278 18.1594 114.987 38.1172 126.527 21.5497C147.136 -8.03822 219.104 -5.66677 229.148 31.1042C240.222 71.646 219.305 69.7372 244.422 99.1636C254.929 111.474 238.187 160.516 191.152 151.287C144.118 142.059 88.1742 146.958 82.7299 150.298Z" fill="#B6E7D6"/>
<path d="M118.934 146.374L175.692 155.427V43.565L118.934 34.5114V146.374Z" fill="#97D5BF"/>
<path opacity="0.13" d="M119 146.861L175.758 155.915V44.0526L119 34.999V146.861Z" fill="#479082"/>
<path d="M118.934 146.374L62.1761 155.427V43.565L118.934 34.5114V146.374Z" fill="#8DCBB7"/>
<path d="M232.451 146.374L175.692 155.427V43.565L232.451 34.5114V146.374Z" fill="#8DCBB7"/>
<path d="M118.934 77.4892L62.1761 85.3485V79.9549L118.934 72.0956V77.4892Z" fill="#F7F7F7"/>
<path d="M118.934 111.854L62.1761 119.714V114.32L118.934 106.461V111.854Z" fill="#F7F7F7"/>
<path d="M232.451 77.4892L175.692 85.3485V79.9549L232.451 72.0956V77.4892Z" fill="#F7F7F7"/>
<path d="M145.143 108.905C151.788 108.905 157.176 103.166 157.176 96.0861C157.176 89.0065 151.788 83.2672 145.143 83.2672C138.498 83.2672 133.11 89.0065 133.11 96.0861C133.11 103.166 138.498 108.905 145.143 108.905Z" fill="#0E538C"/>
<path d="M232.451 111.854L175.692 119.714V114.32L232.451 106.461V111.854Z" fill="#F7F7F7"/>
<path d="M118.934 77.4892L175.692 85.3485V79.9549L118.934 72.0956V77.4892Z" fill="#F7F7F7"/>
<path d="M118.934 111.854L175.692 119.714V114.32L118.934 106.461V111.854Z" fill="#F7F7F7"/>
<path d="M80.6957 152.473L75.9767 153.205V41.3636L80.6957 40.6109V152.473Z" fill="#F7F7F7"/>
<path d="M107.458 110.115L102.739 110.846V37.1091L107.458 36.3564V110.115Z" fill="#F7F7F7"/>
<path d="M144.118 150.556L148.837 151.287V39.404L144.118 38.6512V150.556Z" fill="#F7F7F7"/>
<path d="M180.411 154.729L175.692 155.461V43.6195L180.411 42.8668V154.729Z" fill="#F7F7F7"/>
<path d="M203.085 113.536L198.366 114.267V40.0508L203.085 39.2981V113.536Z" fill="#F7F7F7"/>
<path d="M226.56 147.203L221.841 147.935V108.87L226.56 108.118V147.203Z" fill="#F7F7F7"/>
<path d="M212.174 149.566L207.455 150.298V111.233L212.174 110.481V149.566Z" fill="#F7F7F7"/>
<path d="M195.871 152.173L191.152 152.905V113.84L195.871 113.087V152.173Z" fill="#F7F7F7"/>
<path d="M145.143 77.5876C135.553 77.5876 127.779 85.8696 127.779 96.0861C127.779 106.303 135.553 114.584 145.143 114.584C154.733 114.584 162.507 106.302 162.507 96.0859C162.507 85.8694 154.733 77.5876 145.143 77.5876ZM145.143 108.905C138.498 108.905 133.11 103.166 133.11 96.0859C133.11 89.0063 138.498 83.2671 145.143 83.2671C151.789 83.2671 157.176 89.0063 157.176 96.0859C157.176 103.166 151.789 108.905 145.143 108.905Z" fill="#F7F7F7"/>
<path d="M145.143 108.905C151.788 108.905 157.176 103.166 157.176 96.0861C157.176 89.0065 151.788 83.2672 145.143 83.2672C138.498 83.2672 133.11 89.0065 133.11 96.0861C133.11 103.166 138.498 108.905 145.143 108.905Z" fill="#CCE9FF"/>
<path opacity="0.86" d="M145.143 108.905C151.788 108.905 157.176 103.166 157.176 96.0861C157.176 89.0065 151.788 83.2672 145.143 83.2672C138.498 83.2672 133.11 89.0065 133.11 96.0861C133.11 103.166 138.498 108.905 145.143 108.905Z" fill="#479082"/>
<path d="M175.696 83.0179L175.639 83.0101L118.212 75.2407L91.559 78.3581L91.4658 77.5588L118.219 74.4296L175.688 82.2047L200.324 78.3773V39.7385L201.127 39.6104V79.0669L175.696 83.0179Z" fill="#FF6340"/>
<path d="M92.1972 88.2225C89.3537 88.2225 84.5414 87.7461 84.5414 85.9607C84.5414 84.1752 89.3537 83.6987 92.1972 83.6987C95.0407 83.6987 99.853 84.1752 99.853 85.9607C99.853 87.7461 95.0407 88.2225 92.1972 88.2225ZM85.581 85.9607C85.8143 86.4006 88.2231 87.1875 92.1972 87.1875C96.1712 87.1875 98.58 86.4006 98.8133 85.9607C98.58 85.5208 96.1712 84.7339 92.1972 84.7339C88.223 84.7339 85.8142 85.5208 85.581 85.9607Z" fill="#FF6340"/>
<path d="M96.5278 74.0763C96.5278 71.6798 94.589 69.7371 92.1972 69.7371C89.8054 69.7371 87.8665 71.6798 87.8665 74.0763C87.8665 74.0802 87.8665 74.0841 87.8665 74.0881C87.8682 74.6491 88.0159 75.2 88.2642 75.7029L92.1972 83.6662L96.1301 75.7029C96.3785 75.2 96.5262 74.6491 96.5278 74.0881C96.5278 74.0841 96.5278 74.0802 96.5278 74.0763ZM92.1972 76.3689C90.9336 76.3689 89.9091 75.3424 89.9091 74.0763C89.9091 72.8102 90.9336 71.7837 92.1972 71.7837C93.4608 71.7837 94.4852 72.8102 94.4852 74.0763C94.4852 75.3424 93.4608 76.3689 92.1972 76.3689Z" fill="#FF6340"/>
<path d="M94.5146 84.5136C94.5146 84.5136 92.3808 82.9598 93.5156 80.359C94.1642 78.8725 94.7685 81.2354 95.884 81.6928C95.884 81.6928 96.3142 81.981 95.9837 81.5167C95.6531 81.0523 95.3829 81.0205 95.4174 80.8282C95.4519 80.6359 95.5311 80.606 95.8306 80.7461C96.2782 80.9555 96.3901 81.0567 96.7072 81.5808C97.0244 82.1048 98.1691 83.7899 97.3319 84.3851C96.4947 84.9802 96.0016 86.1489 94.5146 84.5136Z" fill="#FCD2B1"/>
<path d="M117.901 76.9926H113.157L113.715 71.6458H117.343L117.901 76.9926Z" fill="#FCD2B1"/>
<path d="M115.529 73.7861C118.358 73.7861 120.652 71.488 120.652 68.6532C120.652 65.8183 118.358 63.5203 115.529 63.5203C112.7 63.5203 110.406 65.8183 110.406 68.6532C110.406 71.488 112.7 73.7861 115.529 73.7861Z" fill="#FAB9AF"/>
<path d="M105.437 110.356L109.195 152.085H111.946C111.946 152.085 115.978 123.488 115.978 118.531C115.978 117.2 116.63 117.389 116.689 117.771C116.752 118.172 122.334 152.037 122.334 152.037L125.37 151.942L125.62 110.356C125.62 110.356 121.829 110.155 116.293 110.155C110.756 110.155 105.437 110.356 105.437 110.356Z" fill="#FFE3CA"/>
<path d="M113.521 75.2346C113.521 75.2346 108.129 75.9233 105.995 79.6304C103.86 83.3375 103.38 89.6894 102.739 90.545C102.099 91.4005 104.484 96.3727 106.176 94.1497C107.867 91.9265 108.841 85.7614 109.268 84.7634C109.694 83.7652 113.521 75.2346 113.521 75.2346Z" fill="#0F0F0F"/>
<path d="M119.68 75.9093C119.68 75.9093 123.938 77.4019 124.94 80.423C125.942 83.444 130.223 90.9767 130.069 93.3767C129.914 95.7766 124.707 107.102 124.707 107.102L123.288 106.391C123.288 106.391 125.316 94.4381 125.3 93.175C125.285 91.9119 120.678 88.6286 121.735 84.483C121.798 84.234 115.426 79.1563 119.68 75.9093Z" fill="#151515"/>
<path d="M115.529 73.7868C115.529 73.7868 112.635 74.4263 110.975 72.8103C109.315 71.1944 109.552 69.1982 108.414 68.913C107.275 68.6278 107.513 66.8693 108.414 66.3941C109.315 65.9188 110.643 65.7287 110.975 64.1128C111.307 62.4969 115.853 61.6889 116.9 62.6395C117.948 63.5901 119.229 63.4474 120.035 64.5405C120.841 65.6336 120.762 68.7538 121.221 69.6734C121.79 70.8141 119.239 73.107 118.101 73.4397C116.963 73.7724 115.529 73.7868 115.529 73.7868Z" fill="#151515"/>
<path d="M125.62 110.356C125.62 110.356 119.892 111.161 115.529 111.161C111.166 111.161 105.438 110.356 105.438 110.356L107.966 82.0984C108.179 79.3291 111.121 75.2104 113.892 75.2104H117.715C120.525 75.2104 123.412 79.3861 123.576 82.1969L125.62 110.356Z" fill="#2E2E2E"/>
<path d="M111.758 154.746H103.551C103.401 154.746 103.334 154.556 103.451 154.462C105.69 152.651 108.481 151.664 111.358 151.664H111.758C111.846 151.664 111.918 151.735 111.918 151.823V154.586C111.918 154.674 111.846 154.746 111.758 154.746Z" fill="#2E2E2E"/>
<path d="M125.461 154.746H117.254C117.103 154.746 117.037 154.556 117.154 154.462C119.393 152.651 122.183 151.664 125.06 151.664H125.461C125.549 151.664 125.62 151.735 125.62 151.823V154.586C125.62 154.674 125.549 154.746 125.461 154.746Z" fill="#2E2E2E"/>
<path d="M95.7394 85.3485C95.7394 85.3485 99.853 96.0859 105.437 94.6903L104.364 89.0375C104.364 89.0375 99.101 85.845 97.5971 84.0643L95.7394 85.3485Z" fill="#0F0F0F"/>
</g>
<defs>
<clipPath id="clip0_400:2152">
<rect width="289" height="162.883" fill="white" transform="translate(0 0.800293)"/>
</clipPath>
</defs>
</svg>
