<svg width="289" height="183" viewBox="0 0 289 183" fill="none" xmlns="http://www.w3.org/2000/svg">
<g clip-path="url(#clip0_400:2151)">
<path d="M0 16C0 7.16343 7.16344 0 16 0H273C281.837 0 289 7.16344 289 16V166.2C289 175.037 281.837 182.2 273 182.2H16C7.16344 182.2 0 175.037 0 166.2V16Z" fill="white"/>
<rect width="289" height="182.2" fill="#479082"/>
</g>
<path d="M196.186 71.461C207.028 71.461 215.818 62.8729 215.818 52.2789C215.818 41.6849 207.028 33.0968 196.186 33.0968C185.345 33.0968 176.555 41.6849 176.555 52.2789C176.555 62.8729 185.345 71.461 196.186 71.461Z" stroke="#479082" stroke-miterlimit="10" stroke-dasharray="11.95 11.95"/>
<path d="M185.644 44.8506C189.976 46.3485 194.294 48.1674 197.328 51.0256C200.363 53.8838 201.88 57.9953 200.066 61.4343C197.626 66.035 189.93 68.7098 189.883 73.6925C189.851 77.2538 194.043 79.9897 198.267 81.2736C202.49 82.5728 207.167 83.0314 211 84.9266C216.787 87.7849 219.509 93.3178 220.62 98.6369C221.777 104.155 221.308 110.437 216.349 114.426C210.202 119.409 200.003 118.858 191.29 117.788C179.652 116.367 168.062 114.716 156.471 113.05C131.067 109.412 105.664 105.759 80.2609 102.122C77.5392 101.724 74.7079 101.296 72.4867 99.9972C68.0912 97.3988 67.7158 92.034 70.2811 88.1975C72.8308 84.3611 77.5548 81.7628 82.2475 79.5159C86.9402 77.2691 91.8989 75.1293 95.4184 71.7972C98.9379 68.4652 100.69 63.5436 98.015 59.753C95.7625 56.5433 90.9134 54.8314 88.8017 51.5605C86.0173 47.2503 89.224 41.7632 94.2609 39.012C99.2977 36.2607 162.712 36.9485 185.644 44.8506Z" fill="#539A8B"/>
<path d="M217.288 159.76H66.1516C65.3381 159.76 64.6655 159.102 64.6655 158.308V152.775C64.6655 151.98 65.3381 151.323 66.1516 151.323H217.288C218.101 151.323 218.774 151.98 218.774 152.775V158.308C218.774 159.102 218.101 159.76 217.288 159.76Z" fill="black" fill-opacity="0.25"/>
<path d="M148.462 155.541H90.6788C85.8297 155.541 81.8878 151.705 81.8878 146.951V30.85C81.8878 26.1118 85.814 22.2601 90.6788 22.2601H148.462C153.311 22.2601 157.253 26.0965 157.253 30.85V146.966C157.237 151.705 153.311 155.541 148.462 155.541Z" fill="#1A1A1A"/>
<path d="M147.727 151.475H91.414C88.4576 151.475 86.0643 149.137 86.0643 146.248V31.8129C86.0643 28.9241 88.4576 26.5856 91.414 26.5856H147.727C150.683 26.5856 153.076 28.9241 153.076 31.8129V146.248C153.092 149.137 150.683 151.475 147.727 151.475Z" fill="white"/>
<path d="M98.1402 26.0659L101.644 30.422C103.052 32.1644 105.101 33.1732 107.275 33.1732H131.615C133.789 33.1732 135.838 32.1644 137.246 30.422L140.75 26.0659H98.1402Z" fill="#1A1A1A"/>
<g filter="url(#filter0_d_400:2151)">
<path d="M75.8342 41.3046H163.306C164.777 41.3046 165.965 42.4662 165.965 43.9029V56.1917C165.965 57.6284 164.777 58.7901 163.306 58.7901H75.8342C74.3638 58.7901 73.175 57.6284 73.175 56.1917V43.9029C73.175 42.4662 74.3638 41.3046 75.8342 41.3046Z" fill="#479082"/>
</g>
<path d="M81.3403 55.4275C84.364 55.4275 86.8151 53.0324 86.8151 50.0779C86.8151 47.1234 84.364 44.7283 81.3403 44.7283C78.3166 44.7283 75.8655 47.1234 75.8655 50.0779C75.8655 53.0324 78.3166 55.4275 81.3403 55.4275Z" fill="white"/>
<path d="M139.843 47.7852H91.5079C90.9917 47.7852 90.5693 47.3725 90.5693 46.8681C90.5693 46.3638 90.9917 45.9511 91.5079 45.9511H139.843C140.359 45.9511 140.781 46.3638 140.781 46.8681C140.781 47.3725 140.359 47.7852 139.843 47.7852Z" fill="white"/>
<path d="M139.843 51.3007H91.5079C90.9917 51.3007 90.5693 50.888 90.5693 50.3836C90.5693 49.8792 90.9917 49.4665 91.5079 49.4665H139.843C140.359 49.4665 140.781 49.8792 140.781 50.3836C140.781 50.888 140.359 51.3007 139.843 51.3007Z" fill="white"/>
<path d="M139.843 54.8161H91.5079C90.9917 54.8161 90.5693 54.4034 90.5693 53.899C90.5693 53.3946 90.9917 52.9819 91.5079 52.9819H139.843C140.359 52.9819 140.781 53.3946 140.781 53.899C140.781 54.4034 140.359 54.8161 139.843 54.8161Z" fill="white"/>
<path d="M157.206 35.5423L161.554 44.8812L171.644 45.7982L163.666 53.0584L166.138 62.3819L157.206 56.9712L148.274 62.3819L150.745 53.0584L142.768 45.7982L152.857 44.8812L157.206 35.5423Z" fill="#FFBE55"/>
<path d="M88.7391 64.5218H150.307C151.356 64.5218 152.2 65.3472 152.2 66.3712V75.2974C152.2 76.3214 151.356 77.1468 150.307 77.1468H88.7391C87.6911 77.1468 86.8464 76.3214 86.8464 75.2974V66.3712C86.8308 65.3472 87.6911 64.5218 88.7391 64.5218Z" fill="#479082" fill-opacity="0.5"/>
<path d="M92.7436 74.7319C94.9293 74.7319 96.7011 73.0006 96.7011 70.8649C96.7011 68.7292 94.9293 66.9979 92.7436 66.9979C90.5579 66.9979 88.7861 68.7292 88.7861 70.8649C88.7861 73.0006 90.5579 74.7319 92.7436 74.7319Z" fill="white"/>
<path d="M135.009 69.1989H100.08C99.7044 69.1989 99.4072 68.8932 99.4072 68.5416C99.4072 68.1748 99.7201 67.8844 100.08 67.8844H135.009C135.385 67.8844 135.682 68.1901 135.682 68.5416C135.682 68.9085 135.385 69.1989 135.009 69.1989Z" fill="white"/>
<path d="M135.009 71.7514H100.08C99.7044 71.7514 99.4072 71.4457 99.4072 71.0942C99.4072 70.7274 99.7201 70.437 100.08 70.437H135.009C135.385 70.437 135.682 70.7426 135.682 71.0942C135.682 71.4457 135.385 71.7514 135.009 71.7514Z" fill="white"/>
<path d="M135.009 74.2886H100.08C99.7044 74.2886 99.4072 73.9829 99.4072 73.6314C99.4072 73.2645 99.7201 72.9741 100.08 72.9741H135.009C135.385 72.9741 135.682 73.2798 135.682 73.6314C135.682 73.9829 135.385 74.2886 135.009 74.2886Z" fill="white"/>
<path d="M144.692 66.0197L146.24 69.367L149.854 69.6879L146.991 72.2863L147.883 75.6183L144.692 73.6772L141.501 75.6183L142.392 72.2863L139.53 69.6879L143.143 69.367L144.692 66.0197Z" stroke="#F7F7F7" stroke-miterlimit="10"/>
<path d="M88.7391 80.9526H150.307C151.356 80.9526 152.2 81.778 152.2 82.8021V91.7282C152.2 92.7523 151.356 93.5776 150.307 93.5776H88.7391C87.6911 93.5776 86.8464 92.7523 86.8464 91.7282V82.8021C86.8308 81.778 87.6911 80.9526 88.7391 80.9526Z" fill="#479082" fill-opacity="0.5"/>
<path d="M92.7436 91.1627C94.9293 91.1627 96.7011 89.4314 96.7011 87.2957C96.7011 85.16 94.9293 83.4287 92.7436 83.4287C90.5579 83.4287 88.7861 85.16 88.7861 87.2957C88.7861 89.4314 90.5579 91.1627 92.7436 91.1627Z" fill="white"/>
<path d="M135.009 85.6297H100.08C99.7044 85.6297 99.4072 85.324 99.4072 84.9724C99.4072 84.6056 99.7201 84.3152 100.08 84.3152H135.009C135.385 84.3152 135.682 84.6209 135.682 84.9724C135.682 85.3393 135.385 85.6297 135.009 85.6297Z" fill="white"/>
<path d="M135.009 88.1822H100.08C99.7044 88.1822 99.4072 87.8765 99.4072 87.525C99.4072 87.1581 99.7201 86.8677 100.08 86.8677H135.009C135.385 86.8677 135.682 87.1734 135.682 87.525C135.682 87.8765 135.385 88.1822 135.009 88.1822Z" fill="white"/>
<path d="M135.009 90.7194H100.08C99.7044 90.7194 99.4072 90.4137 99.4072 90.0622C99.4072 89.6953 99.7201 89.4049 100.08 89.4049H135.009C135.385 89.4049 135.682 89.7106 135.682 90.0622C135.682 90.4137 135.385 90.7194 135.009 90.7194Z" fill="white"/>
<path d="M144.692 82.4505L146.24 85.7978L149.854 86.1188L146.991 88.7172L147.883 92.0492L144.692 90.1081L141.501 92.0492L142.392 88.7172L139.53 86.1188L143.143 85.7978L144.692 82.4505Z" stroke="#F7F7F7" stroke-miterlimit="10"/>
<path d="M88.7391 97.3835H150.307C151.356 97.3835 152.2 98.2088 152.2 99.2329V108.159C152.2 109.183 151.356 110.008 150.307 110.008H88.7391C87.6911 110.008 86.8464 109.183 86.8464 108.159V99.2329C86.8308 98.2088 87.6911 97.3835 88.7391 97.3835Z" fill="#479082" fill-opacity="0.5"/>
<path d="M92.7436 107.594C94.9293 107.594 96.7011 105.862 96.7011 103.727C96.7011 101.591 94.9293 99.8596 92.7436 99.8596C90.5579 99.8596 88.7861 101.591 88.7861 103.727C88.7861 105.862 90.5579 107.594 92.7436 107.594Z" fill="white"/>
<path d="M135.009 102.061H100.08C99.7044 102.061 99.4072 101.755 99.4072 101.403C99.4072 101.036 99.7201 100.746 100.08 100.746H135.009C135.385 100.746 135.682 101.052 135.682 101.403C135.682 101.77 135.385 102.061 135.009 102.061Z" fill="white"/>
<path d="M135.009 104.613H100.08C99.7044 104.613 99.4072 104.307 99.4072 103.956C99.4072 103.589 99.7201 103.299 100.08 103.299H135.009C135.385 103.299 135.682 103.604 135.682 103.956C135.682 104.307 135.385 104.613 135.009 104.613Z" fill="white"/>
<path d="M135.009 107.15H100.08C99.7044 107.15 99.4072 106.845 99.4072 106.493C99.4072 106.126 99.7201 105.836 100.08 105.836H135.009C135.385 105.836 135.682 106.141 135.682 106.493C135.682 106.845 135.385 107.15 135.009 107.15Z" fill="white"/>
<path d="M144.692 98.8813L146.24 102.229L149.854 102.55L146.991 105.148L147.883 108.48L144.692 106.539L141.501 108.48L142.392 105.148L139.53 102.55L143.143 102.229L144.692 98.8813Z" stroke="#F7F7F7" stroke-miterlimit="10"/>
<path d="M88.7391 113.814H150.307C151.356 113.814 152.2 114.64 152.2 115.664V124.59C152.2 125.614 151.356 126.439 150.307 126.439H88.7391C87.6911 126.439 86.8464 125.614 86.8464 124.59V115.664C86.8308 114.64 87.6911 113.814 88.7391 113.814Z" fill="#479082" fill-opacity="0.5"/>
<path d="M92.7436 124.024C94.9293 124.024 96.7011 122.293 96.7011 120.157C96.7011 118.022 94.9293 116.29 92.7436 116.29C90.5579 116.29 88.7861 118.022 88.7861 120.157C88.7861 122.293 90.5579 124.024 92.7436 124.024Z" fill="white"/>
<path d="M135.009 118.491H100.08C99.7044 118.491 99.4072 118.186 99.4072 117.834C99.4072 117.467 99.7201 117.177 100.08 117.177H135.009C135.385 117.177 135.682 117.483 135.682 117.834C135.682 118.201 135.385 118.491 135.009 118.491Z" fill="white"/>
<path d="M135.009 121.044H100.08C99.7044 121.044 99.4072 120.738 99.4072 120.387C99.4072 120.02 99.7201 119.729 100.08 119.729H135.009C135.385 119.729 135.682 120.035 135.682 120.387C135.682 120.738 135.385 121.044 135.009 121.044Z" fill="white"/>
<path d="M135.009 123.581H100.08C99.7044 123.581 99.4072 123.275 99.4072 122.924C99.4072 122.557 99.7201 122.267 100.08 122.267H135.009C135.385 122.267 135.682 122.572 135.682 122.924C135.682 123.275 135.385 123.581 135.009 123.581Z" fill="white"/>
<path d="M144.692 115.312L146.24 118.66L149.854 118.98L146.991 121.579L147.883 124.911L144.692 122.97L141.501 124.911L142.392 121.579L139.53 118.98L143.143 118.66L144.692 115.312Z" stroke="#F7F7F7" stroke-miterlimit="10"/>
<path d="M88.7391 130.245H150.307C151.356 130.245 152.2 131.071 152.2 132.095V141.021C152.2 142.045 151.356 142.87 150.307 142.87H88.7391C87.6911 142.87 86.8464 142.045 86.8464 141.021V132.095C86.8308 131.071 87.6911 130.245 88.7391 130.245Z" fill="#479082" fill-opacity="0.5"/>
<path d="M92.7436 140.455C94.9293 140.455 96.7011 138.724 96.7011 136.588C96.7011 134.453 94.9293 132.721 92.7436 132.721C90.5579 132.721 88.7861 134.453 88.7861 136.588C88.7861 138.724 90.5579 140.455 92.7436 140.455Z" fill="white"/>
<path d="M135.009 134.922H100.08C99.7044 134.922 99.4072 134.617 99.4072 134.265C99.4072 133.898 99.7201 133.608 100.08 133.608H135.009C135.385 133.608 135.682 133.914 135.682 134.265C135.682 134.632 135.385 134.922 135.009 134.922Z" fill="white"/>
<path d="M135.009 137.475H100.08C99.7044 137.475 99.4072 137.169 99.4072 136.818C99.4072 136.451 99.7201 136.16 100.08 136.16H135.009C135.385 136.16 135.682 136.466 135.682 136.818C135.682 137.169 135.385 137.475 135.009 137.475Z" fill="white"/>
<path d="M135.009 140.012H100.08C99.7044 140.012 99.4072 139.706 99.4072 139.355C99.4072 138.988 99.7201 138.698 100.08 138.698H135.009C135.385 138.698 135.682 139.003 135.682 139.355C135.682 139.706 135.385 140.012 135.009 140.012Z" fill="white"/>
<path d="M144.692 131.743L146.24 135.09L149.854 135.411L146.991 138.01L147.883 141.342L144.692 139.401L141.501 141.342L142.392 138.01L139.53 135.411L143.143 135.09L144.692 131.743Z" stroke="#F7F7F7" stroke-miterlimit="10"/>
<path d="M159.818 54.4493V52.7375C159.818 52.7375 160.459 51.0256 161.085 49.7875C160.616 49.9404 159.818 51.0256 159.818 51.0256C159.818 51.0256 159.505 48.3814 159.818 47.77C157.753 49.4819 157.753 50.0932 157.753 50.0932L158.551 52.8903L158.395 55.0607L159.818 54.4493Z" fill="#FFE3CA"/>
<path d="M189.664 94.3113L190.618 96.0232C190.618 96.0232 192.526 97.2612 192.526 97.8879C192.526 98.5146 192.526 99.2788 192.526 99.2788L191.103 100.991C191.103 100.991 189.836 97.5822 189.679 97.7351C189.523 98.5146 189.523 99.4469 189.21 99.5998C189.054 98.6674 189.523 96.3442 188.897 95.5647C188.225 94.7699 189.664 94.3113 189.664 94.3113Z" fill="#FFE3CA"/>
<path d="M184.401 151.914L187.254 151.695L186.769 145.661L183.916 145.88L184.401 151.914Z" fill="#FFE3CA"/>
<path d="M187.255 151.705C188.459 152.851 189.335 153.722 189.382 154.349C188.334 155.205 184.908 156.091 183.25 155.281C182.922 153.126 184.408 151.919 184.408 151.919L187.255 151.705Z" fill="#1A1A1A"/>
<path d="M167.162 151.792L170.024 151.792L170.024 145.74L167.162 145.74L167.162 151.792Z" fill="#FFE3CA"/>
<path d="M171.956 87.7084C170.048 93.4554 159.787 131.392 165.965 148.296C168.578 150.085 171.44 148.373 171.44 148.373C171.44 148.373 180.841 108.954 179.089 98.8814C177.337 88.8089 177.103 87.7084 177.103 87.7084H171.956Z" fill="#FFD5B0"/>
<path d="M175.217 69.574L177.517 69.574L177.517 64.7594L175.217 64.7594L175.217 69.574Z" fill="#FFE3CA"/>
<path d="M172.457 63.5742C172.457 65.8516 173.349 67.7163 175.241 67.7163C177.134 67.7163 179.277 65.8668 179.277 63.5742C179.277 61.2815 177.744 59.4321 175.867 59.4321C173.99 59.4321 172.457 61.2968 172.457 63.5742Z" fill="#FFE3CA"/>
<path d="M171.597 60.3186C171.346 61.9693 171.816 62.4584 172.394 62.5043C173.208 62.5501 173.912 63.0698 174.162 63.834C174.663 65.3777 175.46 66.8756 176.806 67.6551C178.573 68.5264 183.751 63.9563 181.232 59.8753C178.714 55.8096 171.847 59.2028 171.597 60.3186Z" fill="#131313"/>
<path d="M177.51 69.5657C180.372 69.8714 184.502 71.889 184.502 71.889C184.502 71.889 189.257 89.5732 190.211 94.9992C188.788 95.9315 188.303 96.3901 188.303 96.3901L182.906 79.0116L180.841 87.6932H171.956L169.892 76.5202C169.892 76.5202 156.564 70.1618 157.675 54.4952C160.209 53.41 160.209 53.41 160.209 53.41C160.209 53.41 159.568 70.009 171.956 69.7033C171.956 69.7186 175.93 68.9391 177.51 69.5657Z" fill="#655B4F"/>
<path d="M180.826 87.7084C186.379 97.1696 190.399 135.732 187.849 148.923C185.237 151.017 183.094 148.923 183.094 148.923C183.094 148.923 176.54 114.09 176.696 99.5081C176.055 90.8265 176.696 87.7237 176.696 87.7237H180.826V87.7084Z" fill="#FFE3CA"/>
<path d="M170.017 151.796C171.127 153.034 171.925 153.967 171.925 154.593C170.815 155.373 167.326 155.984 165.731 155.052C165.574 152.882 167.154 151.796 167.154 151.796H170.017Z" fill="#1A1A1A"/>
<path d="M177.431 59.1875C177.994 57.6285 179.731 56.635 181.42 56.6503C183.109 56.6656 184.721 57.5826 185.784 58.8513C186.864 60.1352 187.458 61.74 187.755 63.3602C187.99 64.6441 188.052 66.0503 187.395 67.1966C186.817 68.2207 185.769 68.9085 185.159 69.902C184.423 71.1247 184.439 72.6532 184.752 74.0288C185.065 75.4044 185.69 76.7036 186.082 78.0639C186.739 80.3566 186.739 82.9397 185.471 84.9572C184.204 86.9748 181.42 88.1823 179.199 87.2041C177.541 86.4704 176.524 84.7127 176.368 82.955C176.196 81.1819 176.774 79.4242 177.588 77.8499C178.401 76.2603 179.465 74.8236 180.388 73.2798C181.17 71.9501 181.874 70.4981 181.811 68.9543C181.717 66.9826 180.419 65.3166 179.34 63.6506C178.26 61.9846 177.337 59.9365 178.088 58.1023" fill="#1A1A1A"/>
<path d="M207.23 155.449C204.07 155.449 202.741 152.989 202.224 150.375C201.63 147.425 202.068 144.292 202.068 144.292H212.392C212.392 144.292 212.408 144.414 212.423 144.628C212.627 146.493 213.252 155.449 207.23 155.449Z" fill="#FF785A"/>
<path d="M212.392 144.307C212.392 144.521 210.077 144.704 207.23 144.704C204.383 144.704 202.068 144.521 202.068 144.307C202.068 144.093 204.383 143.91 207.23 143.91C210.077 143.91 212.392 144.078 212.392 144.307Z" fill="#D15C41"/>
<path d="M221.214 116.321C221.214 116.321 215.771 124.422 212.501 129.359C209.232 134.296 208.372 135.335 207.981 136.925C207.59 138.514 207.246 144.414 207.246 144.414H207.011C207.011 144.414 207.089 139.416 207.386 137.735C207.668 136.114 207.371 135.518 207.136 133.807C206.902 132.095 206.589 129.359 208.356 127.463C210.124 125.568 209.655 123.703 210.28 122.45C210.906 121.197 215.724 119.668 216.35 118.384C216.975 117.085 219.697 116.29 221.214 116.321Z" fill="#21463F"/>
<path d="M221.214 116.321C221.214 116.321 219.509 118.216 218.336 118.873C217.163 119.515 216.631 118.95 215.724 120.509C214.832 122.068 214.801 122.756 213.972 123.551C213.158 124.345 212.173 124.391 212.095 126.134C212.017 127.876 212.486 129.359 212.486 129.359C212.486 129.359 220.87 116.734 221.214 116.321Z" fill="#397267"/>
<path d="M207.684 144.414H207.934C207.934 144.414 208.012 142.794 208.669 142.014C209.091 141.51 210.89 140.929 212.674 140.241C213.659 139.859 214.629 139.447 215.364 138.988C217.429 137.704 219.415 133.562 219.587 132.813C219.65 132.553 219.681 132.4 219.666 132.293C219.666 132.095 219.556 132.064 219.384 131.865C219.306 131.774 219.04 131.804 218.743 131.896C217.851 132.156 217.1 132.767 216.631 133.547C216.193 134.28 215.505 135.197 214.66 135.411C213.19 135.793 213.315 136.023 212.783 137.49C212.251 138.942 210.89 139.187 209.185 140.899C207.465 142.61 207.684 144.414 207.684 144.414Z" fill="#21463F"/>
<path d="M212.658 140.241C213.643 139.859 214.613 139.446 215.348 138.988C217.413 137.704 219.4 133.562 219.572 132.813C219.634 132.553 219.666 132.4 219.65 132.293C219.65 132.339 219.541 132.996 218.461 133.44C217.335 133.898 217.116 133.898 216.975 134.586C216.834 135.274 216.709 136.023 216.115 136.16C215.536 136.298 215.161 135.656 214.707 136.711C214.238 137.765 214.019 138.117 213.596 138.254C213.174 138.392 212.846 138.178 212.752 138.988C212.705 139.477 212.674 139.951 212.658 140.241Z" fill="#397267"/>
<path d="M205.885 144.414H205.603C205.603 144.414 205.04 134.387 204.258 133.455C203.757 132.859 202.099 131.774 199.988 130.964C198.83 130.52 197.673 130.016 196.797 129.481C194.341 127.952 192.01 123.046 191.807 122.175C191.728 121.869 191.697 121.686 191.713 121.564C191.713 121.334 191.838 121.288 192.041 121.059C192.135 120.937 192.432 120.983 192.808 121.09C193.871 121.411 194.763 122.114 195.311 123.046C195.827 123.917 196.64 124.987 197.641 125.262C199.378 125.721 199.237 125.996 199.862 127.723C200.504 129.45 202.115 129.725 204.133 131.758C206.151 133.776 205.885 144.414 205.885 144.414Z" fill="#21463F"/>
<path d="M199.988 130.964C198.83 130.52 197.673 130.016 196.797 129.481C194.341 127.952 192.01 123.046 191.807 122.175C191.728 121.869 191.697 121.686 191.713 121.564C191.713 121.625 191.838 122.404 193.105 122.909C194.435 123.444 194.685 123.444 194.873 124.269C195.045 125.079 195.185 125.965 195.889 126.134C196.578 126.302 197.016 125.538 197.563 126.776C198.111 128.014 198.376 128.442 198.877 128.61C199.378 128.778 199.769 128.518 199.878 129.481C199.925 130.077 199.956 130.627 199.988 130.964Z" fill="#397267"/>
<path d="M207.23 155.449C204.07 155.449 202.741 152.989 202.224 150.375C205.322 149.229 209.201 147.394 212.439 144.628C212.627 146.493 213.252 155.449 207.23 155.449Z" fill="#FF6F4F"/>
<path d="M74.9426 154.609C72.4398 154.609 71.3918 152.652 70.9695 150.589C70.5002 148.25 70.8443 145.774 70.8443 145.774H79.0253C79.0253 145.774 79.0409 145.866 79.0566 146.034C79.2286 147.517 79.7135 154.609 74.9426 154.609Z" fill="#FF785A"/>
<path d="M79.0408 145.774C79.0408 145.942 77.2107 146.095 74.9425 146.095C72.6744 146.095 70.8442 145.958 70.8442 145.774C70.8442 145.606 72.6744 145.453 74.9425 145.453C77.2107 145.469 79.0408 145.606 79.0408 145.774Z" fill="#D15C41"/>
<path d="M86.7682 123.612C86.7682 123.612 82.451 130.031 79.8543 133.944C77.2577 137.857 76.5851 138.667 76.2722 139.936C75.9594 141.204 75.6935 145.866 75.6935 145.866H75.5057C75.5057 145.866 75.5683 141.907 75.8029 140.562C76.0219 139.278 75.7873 138.805 75.5996 137.46C75.4119 136.099 75.1616 133.929 76.5694 132.431C77.9772 130.918 77.6018 129.45 78.1024 128.457C78.6029 127.463 82.4197 126.256 82.9046 125.232C83.4051 124.208 85.5638 123.581 86.7682 123.612Z" fill="#21463F"/>
<path d="M86.7682 123.612C86.7682 123.612 85.4073 125.125 84.4844 125.629C83.5615 126.149 83.1236 125.69 82.4197 126.928C81.7157 128.166 81.6845 128.701 81.0275 129.343C80.3705 129.97 79.604 130.001 79.5415 131.392C79.4789 132.782 79.8543 133.959 79.8543 133.959C79.8543 133.959 86.4867 123.933 86.7682 123.612Z" fill="#397267"/>
<path d="M74.6141 145.866H74.3795C74.3795 145.866 73.9258 137.918 73.3158 137.184C72.9247 136.711 71.6108 135.855 69.937 135.213C69.0141 134.861 68.1069 134.464 67.403 134.036C65.4633 132.828 63.6019 128.946 63.4455 128.243C63.3829 127.998 63.3672 127.861 63.3672 127.754C63.3672 127.57 63.4611 127.54 63.6332 127.356C63.7114 127.265 63.946 127.295 64.2432 127.387C65.0879 127.632 65.7918 128.197 66.2298 128.946C66.6365 129.634 67.2778 130.49 68.0756 130.704C69.4521 131.055 69.327 131.285 69.8432 132.645C70.3437 134.005 71.6264 134.234 73.2219 135.839C74.8175 137.429 74.6141 145.866 74.6141 145.866Z" fill="#21463F"/>
<path d="M69.937 135.213C69.0141 134.861 68.1069 134.464 67.403 134.036C65.4633 132.828 63.6019 128.946 63.4455 128.243C63.3829 127.998 63.3672 127.861 63.3672 127.754C63.3672 127.8 63.4611 128.411 64.4779 128.824C65.5259 129.252 65.7292 129.252 65.87 129.894C66.0108 130.536 66.1203 131.239 66.6678 131.376C67.2153 131.514 67.5594 130.902 67.9974 131.896C68.4354 132.874 68.6387 133.21 69.0454 133.348C69.4521 133.485 69.7493 133.287 69.8432 134.036C69.8901 134.494 69.9214 134.937 69.937 135.213Z" fill="#397267"/>
<path d="M74.9426 154.609C72.4398 154.609 71.3918 152.652 70.9694 150.589C73.4253 149.687 76.5068 148.22 79.0565 146.034C79.2286 147.517 79.7135 154.609 74.9426 154.609Z" fill="#FF6F4F"/>
<defs>
<filter id="filter0_d_400:2151" x="71.175" y="41.3046" width="96.7905" height="22.4855" filterUnits="userSpaceOnUse" color-interpolation-filters="sRGB">
<feFlood flood-opacity="0" result="BackgroundImageFix"/>
<feColorMatrix in="SourceAlpha" type="matrix" values="0 0 0 0 0 0 0 0 0 0 0 0 0 0 0 0 0 0 127 0" result="hardAlpha"/>
<feOffset dy="3"/>
<feGaussianBlur stdDeviation="1"/>
<feComposite in2="hardAlpha" operator="out"/>
<feColorMatrix type="matrix" values="0 0 0 0 0 0 0 0 0 0 0 0 0 0 0 0 0 0 0.05 0"/>
<feBlend mode="normal" in2="BackgroundImageFix" result="effect1_dropShadow_400:2151"/>
<feBlend mode="normal" in="SourceGraphic" in2="effect1_dropShadow_400:2151" result="shape"/>
</filter>
<clipPath id="clip0_400:2151">
<path d="M0 16C0 7.16343 7.16344 0 16 0H273C281.837 0 289 7.16344 289 16V166.2C289 175.037 281.837 182.2 273 182.2H16C7.16344 182.2 0 175.037 0 166.2V16Z" fill="white"/>
</clipPath>
</defs>
</svg>
