<svg width="289" height="182" viewBox="0 0 289 182" fill="none" xmlns="http://www.w3.org/2000/svg">
<rect width="289" height="182" fill="#479082"/>
<g clip-path="url(#clip0_625:2049)">
<path opacity="0.11" d="M149.687 169.247C203.48 169.247 247.089 164.24 247.089 158.065C247.089 151.889 203.48 146.883 149.687 146.883C95.8929 146.883 52.2845 151.889 52.2845 158.065C52.2845 164.24 95.8929 169.247 149.687 169.247Z" fill="black"/>
<path opacity="0.11" d="M91.9198 167.301C87.4375 170.051 55.097 174.48 42.6249 127.34C30.1527 80.2008 49.126 63.5353 76.478 51.9342C105.24 39.7349 123.061 59.0021 134.202 43.0079C154.098 14.4438 223.576 16.7332 233.272 52.2318C243.962 91.3707 223.769 89.528 248.017 117.936C258.16 129.82 241.998 177.166 196.591 168.256C151.183 159.347 97.1758 164.077 91.9198 167.301Z" fill="#B6E7D6"/>
<path d="M120.819 152.536L175.613 161.276V53.285L120.819 44.5447V152.536Z" fill="#97D5BF"/>
<path opacity="0.13" d="M120.882 153.007L175.677 161.747V53.7556L120.882 45.0154V153.007Z" fill="#479082"/>
<path d="M120.819 152.536L66.0247 161.276V53.285L120.819 44.5447V152.536Z" fill="#8DCBB7"/>
<path d="M230.407 152.536L175.613 161.276V53.285L230.407 44.5447V152.536Z" fill="#8DCBB7"/>
<path d="M120.819 86.0354L66.0247 93.6227V88.4158L120.819 80.8283V86.0354Z" fill="#F7F7F7"/>
<path d="M120.819 119.211L66.0247 126.799V121.592L120.819 114.004V119.211Z" fill="#F7F7F7"/>
<path d="M230.407 86.0354L175.613 93.6227V88.4158L230.407 80.8283V86.0354Z" fill="#F7F7F7"/>
<path d="M146.121 116.364C152.536 116.364 157.737 110.823 157.737 103.989C157.737 97.1541 152.536 91.6134 146.121 91.6134C139.705 91.6134 134.504 97.1541 134.504 103.989C134.504 110.823 139.705 116.364 146.121 116.364Z" fill="#0E538C"/>
<path d="M230.407 119.211L175.613 126.799V121.592L230.407 114.004V119.211Z" fill="#F7F7F7"/>
<path d="M120.819 86.0354L175.613 93.6227V88.4158L120.819 80.8283V86.0354Z" fill="#F7F7F7"/>
<path d="M120.819 119.211L175.613 126.799V121.592L120.819 114.004V119.211Z" fill="#F7F7F7"/>
<path d="M83.9035 158.425L79.3478 159.131V51.1598L83.9035 50.4331V158.425Z" fill="#F7F7F7"/>
<path d="M109.74 117.532L105.184 118.238V47.0525L109.74 46.3258V117.532Z" fill="#F7F7F7"/>
<path d="M145.131 156.574L149.687 157.28V49.2679L145.131 48.5412V156.574Z" fill="#F7F7F7"/>
<path d="M180.169 160.602L175.613 161.309V53.3376L180.169 52.6109V160.602Z" fill="#F7F7F7"/>
<path d="M202.058 120.834L197.503 121.541V49.8924L202.058 49.1657V120.834Z" fill="#F7F7F7"/>
<path d="M224.72 153.337L220.165 154.044V116.331L224.72 115.604V153.337Z" fill="#F7F7F7"/>
<path d="M210.832 155.618L206.277 156.325V118.612L210.832 117.885V155.618Z" fill="#F7F7F7"/>
<path d="M195.094 158.135L190.538 158.841V121.128L195.094 120.402V158.135Z" fill="#F7F7F7"/>
<path d="M146.121 86.1303C136.863 86.1303 129.358 94.1257 129.358 103.989C129.358 113.852 136.863 121.847 146.121 121.847C155.379 121.847 162.884 113.852 162.884 103.989C162.884 94.1256 155.379 86.1303 146.121 86.1303ZM146.121 116.364C139.705 116.364 134.504 110.823 134.504 103.989C134.504 97.1539 139.705 91.6133 146.121 91.6133C152.536 91.6133 157.737 97.1539 157.737 103.989C157.737 110.823 152.536 116.364 146.121 116.364Z" fill="#F7F7F7"/>
<path d="M146.121 116.364C152.536 116.364 157.737 110.823 157.737 103.989C157.737 97.1541 152.536 91.6134 146.121 91.6134C139.705 91.6134 134.504 97.1541 134.504 103.989C134.504 110.823 139.705 116.364 146.121 116.364Z" fill="#CCE9FF"/>
<path opacity="0.86" d="M146.121 116.364C152.536 116.364 157.737 110.823 157.737 103.989C157.737 97.1541 152.536 91.6134 146.121 91.6134C139.705 91.6134 134.504 97.1541 134.504 103.989C134.504 110.823 139.705 116.364 146.121 116.364Z" fill="#479082"/>
<path d="M175.617 91.3727L175.561 91.3651L120.121 83.8646L94.3908 86.8742L94.3009 86.1025L120.128 83.0816L175.609 90.5876L199.393 86.8926V49.5908L200.168 49.4672V87.5585L175.617 91.3727Z" fill="#FF6340"/>
<path d="M95.007 96.3972C92.2619 96.3972 87.6161 95.9373 87.6161 94.2137C87.6161 92.4899 92.2619 92.03 95.007 92.03C97.7521 92.03 102.398 92.4899 102.398 94.2137C102.398 95.9373 97.7521 96.3972 95.007 96.3972ZM88.6197 94.2137C88.845 94.6384 91.1704 95.398 95.007 95.398C98.8435 95.398 101.169 94.6384 101.394 94.2137C101.169 93.789 98.8435 93.0294 95.007 93.0294C91.1703 93.0294 88.8448 93.789 88.6197 94.2137Z" fill="#FF6340"/>
<path d="M99.1877 82.7405C99.1877 80.4269 97.316 78.5515 95.007 78.5515C92.6979 78.5515 90.8262 80.4269 90.8262 82.7405C90.8262 82.7443 90.8262 82.748 90.8262 82.7518C90.8278 83.2935 90.9703 83.8253 91.2101 84.3108L95.007 91.9985L98.8038 84.3108C99.0436 83.8253 99.1861 83.2935 99.1877 82.7518C99.1877 82.748 99.1877 82.7443 99.1877 82.7405ZM95.007 84.9537C93.7871 84.9537 92.7981 83.9628 92.7981 82.7405C92.7981 81.5182 93.7871 80.5272 95.007 80.5272C96.2269 80.5272 97.2159 81.5182 97.2159 82.7405C97.2159 83.9628 96.2269 84.9537 95.007 84.9537Z" fill="#FF6340"/>
<path d="M97.2442 92.8166C97.2442 92.8166 95.1843 91.3167 96.2798 88.8058C96.9059 87.3708 97.4893 89.6519 98.5662 90.0935C98.5662 90.0935 98.9815 90.3717 98.6624 89.9234C98.3433 89.4751 98.0825 89.4444 98.1158 89.2588C98.1491 89.0731 98.2255 89.0443 98.5147 89.1796C98.9468 89.3816 99.0548 89.4793 99.361 89.9853C99.6671 90.4913 100.772 92.118 99.964 92.6926C99.1558 93.2671 98.6797 94.3953 97.2442 92.8166Z" fill="#FCD2B1"/>
<path d="M119.821 85.5559H115.242L115.78 80.3941H119.283L119.821 85.5559Z" fill="#FCD2B1"/>
<path d="M117.531 82.4603C120.263 82.4603 122.477 80.2418 122.477 77.505C122.477 74.7683 120.263 72.5497 117.531 72.5497C114.8 72.5497 112.586 74.7683 112.586 77.505C112.586 80.2418 114.8 82.4603 117.531 82.4603Z" fill="#FAB9AF"/>
<path d="M107.789 117.765L111.417 158.05H114.072C114.072 158.05 117.965 130.443 117.965 125.657C117.965 124.372 118.594 124.555 118.652 124.923C118.712 125.31 124.101 158.004 124.101 158.004L127.032 157.912L127.273 117.765C127.273 117.765 123.614 117.571 118.269 117.571C112.923 117.571 107.789 117.765 107.789 117.765Z" fill="#FFE3CA"/>
<path d="M115.593 83.8588C115.593 83.8588 110.388 84.5236 108.327 88.1024C106.266 91.6812 105.802 97.8134 105.184 98.6394C104.566 99.4652 106.869 104.265 108.502 102.119C110.135 99.973 111.075 94.0213 111.487 93.0578C111.899 92.0941 115.593 83.8588 115.593 83.8588Z" fill="#0F0F0F"/>
<path d="M121.539 84.5101C121.539 84.5101 125.65 85.9511 126.617 88.8676C127.584 91.784 131.717 99.0561 131.568 101.373C131.419 103.69 126.392 114.623 126.392 114.623L125.022 113.937C125.022 113.937 126.98 102.398 126.965 101.178C126.949 99.959 122.502 96.7893 123.523 92.7871C123.584 92.5467 117.432 87.6447 121.539 84.5101Z" fill="#151515"/>
<path d="M117.531 82.4611C117.531 82.4611 114.738 83.0784 113.135 81.5183C111.532 79.9584 111.761 78.0312 110.662 77.7559C109.563 77.4806 109.793 75.7829 110.662 75.3241C111.532 74.8653 112.815 74.6817 113.135 73.1218C113.456 71.5618 117.844 70.7817 118.855 71.6994C119.867 72.6171 121.103 72.4794 121.881 73.5347C122.66 74.59 122.583 77.6021 123.026 78.49C123.576 79.5912 121.114 81.8047 120.015 82.1259C118.916 82.4471 117.531 82.4611 117.531 82.4611Z" fill="#151515"/>
<path d="M127.274 117.765C127.274 117.765 121.743 118.542 117.531 118.542C113.32 118.542 107.789 117.765 107.789 117.765L110.23 90.485C110.436 87.8115 113.275 83.8354 115.952 83.8354H119.642C122.354 83.8354 125.142 87.8666 125.3 90.5801L127.274 117.765Z" fill="#2E2E2E"/>
<path d="M113.891 160.619H105.968C105.823 160.619 105.759 160.436 105.872 160.344C108.033 158.596 110.727 157.643 113.505 157.643H113.891C113.976 157.643 114.045 157.712 114.045 157.797V160.464C114.045 160.55 113.976 160.619 113.891 160.619Z" fill="#2E2E2E"/>
<path d="M127.12 160.619H119.197C119.051 160.619 118.987 160.436 119.1 160.344C121.261 158.596 123.955 157.643 126.733 157.643H127.12C127.205 157.643 127.273 157.712 127.273 157.797V160.464C127.274 160.55 127.205 160.619 127.12 160.619Z" fill="#2E2E2E"/>
<path d="M98.4266 93.6226C98.4266 93.6226 102.398 103.989 107.789 102.641L106.753 97.184C106.753 97.184 101.672 94.102 100.22 92.3829L98.4266 93.6226Z" fill="#0F0F0F"/>
</g>
<defs>
<clipPath id="clip0_625:2049">
<rect x="6" y="12" width="279" height="157.247" rx="16" fill="white"/>
</clipPath>
</defs>
</svg>
