<svg width="15" height="16" viewBox="0 0 15 16" fill="none" xmlns="http://www.w3.org/2000/svg">
<path d="M1.49013 6.09524H11.921V7.61905H13.4112V3.04762C13.4112 2.20952 12.7406 1.52381 11.921 1.52381H11.176V0H9.68583V1.52381H3.72532V0H2.23519V1.52381H1.49013C0.663107 1.52381 0.00745063 2.20952 0.00745063 3.04762L0 13.7143C0 14.5524 0.663107 15.2381 1.49013 15.2381H6.70558V13.7143H1.49013V6.09524ZM1.49013 3.04762H11.921V4.57143H1.49013V3.04762ZM14.7821 10.88L14.2531 11.421L12.6735 9.80571L13.2025 9.26476C13.4931 8.96762 13.9625 8.96762 14.2531 9.26476L14.7821 9.80571C15.0726 10.1029 15.0726 10.5829 14.7821 10.88ZM12.1445 10.3467L13.7241 11.9619L9.77524 16H8.1957V14.3848L12.1445 10.3467Z" fill="#999999"/>
</svg>
