<svg width="112" height="112" viewBox="0 0 112 112" fill="none" xmlns="http://www.w3.org/2000/svg">
<path d="M0 0H112V112H0V0Z" fill="#DFDFDF"/>
<path d="M56.5044 23.2072C38.6812 23.2072 24.2161 37.6724 24.2161 55.4955C24.2161 73.3186 38.6812 87.7838 56.5044 87.7838C74.3275 87.7838 88.7926 73.3186 88.7926 55.4955C88.7926 37.6724 74.3275 23.2072 56.5044 23.2072ZM56.5044 32.8937C61.8642 32.8937 66.1908 37.2203 66.1908 42.5802C66.1908 47.94 61.8642 52.2667 56.5044 52.2667C51.1445 52.2667 46.8179 47.94 46.8179 42.5802C46.8179 37.2203 51.1445 32.8937 56.5044 32.8937ZM56.5044 78.7431C48.4323 78.7431 41.2966 74.6102 37.1314 68.3462C37.2282 61.9209 50.0467 58.4014 56.5044 58.4014C62.9297 58.4014 75.7805 61.9209 75.8773 68.3462C71.7121 74.6102 64.5764 78.7431 56.5044 78.7431Z" fill="#999999"/>
</svg>
