<svg width="11" height="17" viewBox="0 0 11 17" fill="none" xmlns="http://www.w3.org/2000/svg">
<path d="M5.5 0.160034C2.45929 0.160034 0 2.66403 0 5.76003C0 9.96003 5.5 16.16 5.5 16.16C5.5 16.16 11 9.96003 11 5.76003C11 2.66403 8.54071 0.160034 5.5 0.160034ZM1.57143 5.76003C1.57143 3.55203 3.33143 1.76003 5.5 1.76003C7.66857 1.76003 9.42857 3.55203 9.42857 5.76003C9.42857 8.06403 7.16571 11.512 5.5 13.664C3.86571 11.528 1.57143 8.04003 1.57143 5.76003Z" fill="#808080"/>
<path d="M5.5 7.76003C6.58485 7.76003 7.46429 6.8646 7.46429 5.76003C7.46429 4.65546 6.58485 3.76003 5.5 3.76003C4.41515 3.76003 3.53571 4.65546 3.53571 5.76003C3.53571 6.8646 4.41515 7.76003 5.5 7.76003Z" fill="#808080"/>
</svg>
