<svg width="83" height="83" viewBox="0 0 83 83" fill="none" xmlns="http://www.w3.org/2000/svg">
<rect width="83" height="83" rx="8" fill="#DFDFDF"/>
<path d="M42 17C28.752 17 18 27.752 18 41C18 54.248 28.752 65 42 65C55.248 65 66 54.248 66 41C66 27.752 55.248 17 42 17ZM42 24.2C45.984 24.2 49.2 27.416 49.2 31.4C49.2 35.384 45.984 38.6 42 38.6C38.016 38.6 34.8 35.384 34.8 31.4C34.8 27.416 38.016 24.2 42 24.2ZM42 58.28C36 58.28 30.696 55.208 27.6 50.552C27.672 45.776 37.2 43.16 42 43.16C46.776 43.16 56.328 45.776 56.4 50.552C53.304 55.208 48 58.28 42 58.28Z" fill="#999999"/>
</svg>
