<svg width="24" height="32" viewBox="0 0 24 32" fill="none" xmlns="http://www.w3.org/2000/svg">
<path d="M12 32C13.65 32 15 30.5231 15 28.7179H9C9 30.5231 10.35 32 12 32ZM21 22.1538V13.9487C21 8.91077 18.555 4.69333 14.25 3.57744V2.46154C14.25 1.09949 13.245 0 12 0C10.755 0 9.75 1.09949 9.75 2.46154V3.57744C5.46 4.69333 3 8.89436 3 13.9487V22.1538L0 25.4359V27.0769H24V25.4359L21 22.1538ZM18 23.7949H6V13.9487C6 9.87897 8.265 6.5641 12 6.5641C15.735 6.5641 18 9.87897 18 13.9487V23.7949Z" fill="#479082"/>
</svg>
