<svg xmlns="http://www.w3.org/2000/svg" viewBox="0 0 1189.05 1184.33"><defs><style>.cls-1{opacity:0.5;}.cls-2{opacity:0.1;}.cls-3{fill:#fff;}.cls-4{opacity:0.15;}.cls-5{opacity:0.05;}</style></defs><title>Pattern</title><g id="Camada_2" data-name="Camada 2"><g id="Camada_1-2" data-name="Camada 1"><g class="cls-1"><g class="cls-2"><path class="cls-3" d="M1166.72,327.52a46.15,46.15,0,0,0-38.21-19.41s-35.76,0-46.35,32a52,52,0,0,0,1.7,36.09,66.2,66.2,0,0,0,6.68,12.42c9.23,13.34,38,49.75,38,49.75s33.19-45.67,40.5-60C1176.6,363.48,1177.77,342.72,1166.72,327.52Zm-38.5,59.21a30.55,30.55,0,1,1,30.54-30.55A30.33,30.33,0,0,1,1128.22,386.73Z"/><path class="cls-3" d="M1145.18,352.64a2.13,2.13,0,0,1,2.13,2.13v6.69a2.13,2.13,0,0,1-2.13,2.13h-12l-.06,0h0a.07.07,0,0,0,0,.06v11.68a2.14,2.14,0,0,1-2.14,2.14h-6.69a2.13,2.13,0,0,1-2.13-2.14V363.64h-11.51a2.13,2.13,0,0,1-2.14-2.13v-6.69a2.13,2.13,0,0,1,2.14-2.13h11.51V340.84a2.13,2.13,0,0,1,2.13-2.13H1131a2.13,2.13,0,0,1,2.14,2.13v11.85Z"/></g><g class="cls-4"><path class="cls-3" d="M1037,283.72a29.86,29.86,0,0,0-24.7-12.54s-23.11,0-30,20.69a33.62,33.62,0,0,0,1.1,23.33,43.12,43.12,0,0,0,4.32,8c6,8.62,24.54,32.15,24.54,32.15s21.45-29.52,26.18-38.78C1043.34,307,1044.09,293.55,1037,283.72ZM1012.06,322a19.74,19.74,0,1,1,19.74-19.74A19.59,19.59,0,0,1,1012.06,322Z"/><path class="cls-3" d="M1023,300a1.38,1.38,0,0,1,1.38,1.38v4.32A1.38,1.38,0,0,1,1023,307h-7.73l0,0h0a.05.05,0,0,0,0,0v7.55a1.38,1.38,0,0,1-1.38,1.38h-4.32a1.38,1.38,0,0,1-1.38-1.38v-7.57h-7.44a1.38,1.38,0,0,1-1.38-1.38v-4.33a1.38,1.38,0,0,1,1.38-1.38h7.44v-7.65a1.38,1.38,0,0,1,1.38-1.38h4.32a1.38,1.38,0,0,1,1.38,1.38V300Z"/></g><g class="cls-4"><path class="cls-3" d="M1112.89,228.8a18.32,18.32,0,0,0-15.15-7.69s-14.17,0-18.37,12.69a20.66,20.66,0,0,0,.67,14.3,26.51,26.51,0,0,0,2.65,4.93c3.66,5.28,15,19.72,15,19.72s13.16-18.11,16.06-23.79C1116.81,243.06,1117.27,234.83,1112.89,228.8Zm-15.26,23.47a12.11,12.11,0,1,1,12.1-12.1A12,12,0,0,1,1097.63,252.27Z"/><path class="cls-3" d="M1104.35,238.76a.85.85,0,0,1,.85.85v2.65a.85.85,0,0,1-.85.84h-4.77v4.66a.84.84,0,0,1-.84.84h-2.66a.84.84,0,0,1-.84-.84v-4.65h-4.56a.85.85,0,0,1-.85-.84v-2.65a.85.85,0,0,1,.85-.85h4.56v-4.69a.85.85,0,0,1,.84-.85h2.66a.85.85,0,0,1,.84.85v4.69Z"/></g><g class="cls-4"><path class="cls-3" d="M947.66,245.38A46.18,46.18,0,0,0,909.45,226s-35.76,0-46.35,32a52,52,0,0,0,1.7,36.1,66.2,66.2,0,0,0,6.68,12.42c9.23,13.33,38,49.75,38,49.75s33.19-45.67,40.5-60C957.54,281.34,958.71,260.58,947.66,245.38Zm-38.5,59.21a30.54,30.54,0,1,1,30.54-30.54A30.31,30.31,0,0,1,909.16,304.59Z"/><path class="cls-3" d="M926.12,270.5a2.13,2.13,0,0,1,2.13,2.14v6.68a2.13,2.13,0,0,1-2.13,2.14h-12l-.06,0h0a.09.09,0,0,0,0,.07v11.68a2.13,2.13,0,0,1-2.13,2.13h-6.69a2.13,2.13,0,0,1-2.13-2.13V281.51H891.6a2.14,2.14,0,0,1-2.14-2.14v-6.68a2.14,2.14,0,0,1,2.14-2.14h11.51V258.71a2.13,2.13,0,0,1,2.13-2.14h6.69a2.13,2.13,0,0,1,2.13,2.14v11.84Z"/></g><g class="cls-2"><path class="cls-3" d="M854.89,367.59a29.84,29.84,0,0,0-24.7-12.54s-23.11,0-30,20.68a33.61,33.61,0,0,0,1.1,23.33,42.24,42.24,0,0,0,4.32,8c6,8.62,24.54,32.16,24.54,32.16s21.45-29.52,26.18-38.79C861.27,390.83,862,377.41,854.89,367.59ZM830,405.86a19.74,19.74,0,1,1,19.74-19.74A19.6,19.6,0,0,1,830,405.86Z"/><path class="cls-3" d="M841,383.82a1.38,1.38,0,0,1,1.38,1.38v4.33a1.38,1.38,0,0,1-1.38,1.38h-7.77a.08.08,0,0,0,0,0v7.55a1.38,1.38,0,0,1-1.38,1.38h-4.32a1.38,1.38,0,0,1-1.38-1.38v-7.57h-7.44a1.38,1.38,0,0,1-1.38-1.38v-4.32a1.38,1.38,0,0,1,1.38-1.38h7.44V376.2a1.38,1.38,0,0,1,1.38-1.38h4.32a1.38,1.38,0,0,1,1.38,1.38v7.66Z"/></g><g class="cls-5"><path class="cls-3" d="M974.83,387.67A18.3,18.3,0,0,0,959.68,380s-14.17,0-18.37,12.68A20.63,20.63,0,0,0,942,407a26.77,26.77,0,0,0,2.65,4.92c3.66,5.29,15,19.72,15,19.72s13.16-18.1,16.05-23.78C978.74,401.92,979.21,393.69,974.83,387.67Zm-15.26,23.47A12.11,12.11,0,1,1,971.67,399,12,12,0,0,1,959.57,411.14Z"/><path class="cls-3" d="M966.29,397.62a.84.84,0,0,1,.84.85v2.65a.84.84,0,0,1-.84.85h-4.77s0,0,0,0v4.63a.85.85,0,0,1-.85.85H958a.85.85,0,0,1-.84-.85V402H952.6a.85.85,0,0,1-.84-.85v-2.65a.85.85,0,0,1,.84-.85h4.57V393a.85.85,0,0,1,.84-.85h2.65a.85.85,0,0,1,.85.85v4.69Z"/></g><g class="cls-5"><path class="cls-3" d="M741.69,296a46.15,46.15,0,0,0-38.21-19.41s-35.76,0-46.35,32a52,52,0,0,0,1.7,36.09,66.27,66.27,0,0,0,6.68,12.43c9.23,13.33,38,49.74,38,49.74s33.19-45.67,40.5-60C751.57,331.91,752.74,311.15,741.69,296Zm-38.5,59.21a30.54,30.54,0,1,1,30.54-30.54A30.31,30.31,0,0,1,703.19,355.16Z"/><path class="cls-3" d="M720.15,321.07a2.13,2.13,0,0,1,2.13,2.13v6.69a2.13,2.13,0,0,1-2.13,2.14h-12a.07.07,0,0,0-.06,0h0a.09.09,0,0,0,0,.06V343.8a2.13,2.13,0,0,1-2.13,2.13h-6.69a2.13,2.13,0,0,1-2.13-2.13V332.08H685.63a2.14,2.14,0,0,1-2.14-2.14v-6.69a2.13,2.13,0,0,1,2.14-2.13h11.51V309.27a2.13,2.13,0,0,1,2.13-2.13H706a2.13,2.13,0,0,1,2.13,2.13v11.85Z"/></g><g class="cls-2"><path class="cls-3" d="M638.92,370.16a29.85,29.85,0,0,0-24.7-12.55s-23.11,0-30,20.69a33.61,33.61,0,0,0,1.1,23.33,42.54,42.54,0,0,0,4.32,8c6,8.62,24.54,32.15,24.54,32.15S635.67,412.29,640.4,403C645.3,393.4,646.06,380,638.92,370.16ZM614,408.43a19.74,19.74,0,1,1,19.74-19.74A19.6,19.6,0,0,1,614,408.43Z"/><path class="cls-3" d="M625,386.39a1.38,1.38,0,0,1,1.38,1.38v4.32a1.38,1.38,0,0,1-1.38,1.38h-7.73l0,0h0l0,0v7.55a1.38,1.38,0,0,1-1.38,1.38H611.5a1.38,1.38,0,0,1-1.38-1.38v-7.57h-7.44a1.38,1.38,0,0,1-1.38-1.38V387.8a1.38,1.38,0,0,1,1.38-1.38h7.44v-7.65a1.38,1.38,0,0,1,1.38-1.38h4.32a1.38,1.38,0,0,1,1.38,1.38v7.65Z"/></g><g class="cls-5"><path class="cls-3" d="M783.86,233.24a18.31,18.31,0,0,0-15.15-7.7s-14.17,0-18.37,12.69a20.69,20.69,0,0,0,.67,14.31,26.77,26.77,0,0,0,2.65,4.92c3.66,5.29,15.05,19.72,15.05,19.72s13.16-18.1,16.06-23.79C787.78,247.49,788.24,239.26,783.86,233.24ZM768.6,256.7a12.11,12.11,0,1,1,12.1-12.1A12,12,0,0,1,768.6,256.7Z"/><path class="cls-3" d="M775.32,243.19a.84.84,0,0,1,.84.85v2.65a.84.84,0,0,1-.84.85h-4.77s0,0,0,0v4.63a.85.85,0,0,1-.85.85H767a.85.85,0,0,1-.84-.85v-4.64h-4.56a.85.85,0,0,1-.85-.85v-2.65a.85.85,0,0,1,.85-.85h4.56v-4.69a.85.85,0,0,1,.84-.85h2.65a.85.85,0,0,1,.85.85v4.69Z"/></g><g class="cls-4"><path class="cls-3" d="M559.63,283.81a46.18,46.18,0,0,0-38.21-19.4s-35.76,0-46.35,32a52,52,0,0,0,1.7,36.09,66.2,66.2,0,0,0,6.68,12.42c9.23,13.34,38,49.75,38,49.75s33.19-45.67,40.5-60C569.51,319.78,570.68,299,559.63,283.81ZM521.13,343a30.54,30.54,0,1,1,30.54-30.54A30.31,30.31,0,0,1,521.13,343Z"/><path class="cls-3" d="M538.09,308.93a2.13,2.13,0,0,1,2.13,2.14v6.69a2.13,2.13,0,0,1-2.13,2.13h-12l-.06,0h0a.07.07,0,0,0,0,.06v11.68a2.13,2.13,0,0,1-2.13,2.14h-6.69a2.13,2.13,0,0,1-2.13-2.14V319.94H503.57a2.13,2.13,0,0,1-2.14-2.13v-6.69a2.14,2.14,0,0,1,2.14-2.14h11.51V297.14a2.13,2.13,0,0,1,2.13-2.14h6.69a2.13,2.13,0,0,1,2.13,2.14V309Z"/></g><g class="cls-2"><path class="cls-3" d="M424.86,232a29.86,29.86,0,0,0-24.7-12.54s-23.11,0-30,20.69a33.62,33.62,0,0,0,1.1,23.33,42.47,42.47,0,0,0,4.32,8c6,8.62,24.54,32.16,24.54,32.16s21.45-29.52,26.18-38.79C431.24,255.27,432,241.85,424.86,232ZM400,270.29a19.74,19.74,0,1,1,19.74-19.74A19.59,19.59,0,0,1,400,270.29Z"/><path class="cls-3" d="M410.93,248.26a1.38,1.38,0,0,1,1.38,1.38V254a1.38,1.38,0,0,1-1.38,1.38H403.2a.05.05,0,0,0,0,0h0a.05.05,0,0,0,0,0V263a1.38,1.38,0,0,1-1.38,1.38h-4.32a1.38,1.38,0,0,1-1.38-1.38v-7.58h-7.44a1.38,1.38,0,0,1-1.38-1.38v-4.32a1.38,1.38,0,0,1,1.38-1.38h7.44v-7.66a1.38,1.38,0,0,1,1.38-1.38h4.32a1.38,1.38,0,0,1,1.38,1.38v7.66Z"/></g><g class="cls-4"><path class="cls-3" d="M603.8,238.1a18.3,18.3,0,0,0-15.15-7.69s-14.17,0-18.37,12.69a20.61,20.61,0,0,0,.67,14.3,26.24,26.24,0,0,0,2.65,4.93c3.66,5.28,15,19.71,15,19.71s13.16-18.1,16.05-23.78C607.71,252.35,608.18,244.13,603.8,238.1Zm-15.26,23.47a12.11,12.11,0,1,1,12.1-12.11A12,12,0,0,1,588.54,261.57Z"/><path class="cls-3" d="M595.26,248.06a.85.85,0,0,1,.84.84v2.65a.85.85,0,0,1-.84.85h-4.77a0,0,0,0,0,0,0v4.63a.85.85,0,0,1-.85.84H587a.85.85,0,0,1-.84-.84v-4.65h-4.57a.85.85,0,0,1-.84-.85v-2.65a.85.85,0,0,1,.84-.84h4.57v-4.7a.85.85,0,0,1,.84-.84h2.65a.85.85,0,0,1,.85.84v4.7Z"/></g><g class="cls-2"><path class="cls-3" d="M1151.71,527.48a46.2,46.2,0,0,0-38.22-19.4s-35.75,0-46.34,32a52,52,0,0,0,1.7,36.1,65.63,65.63,0,0,0,6.68,12.42c9.23,13.33,38,49.75,38,49.75s33.2-45.67,40.51-60C1161.59,563.44,1162.76,542.68,1151.71,527.48Zm-38.5,59.21a30.54,30.54,0,1,1,30.54-30.54A30.31,30.31,0,0,1,1113.21,586.69Z"/><path class="cls-3" d="M1130.16,552.6a2.14,2.14,0,0,1,2.14,2.14v6.68a2.14,2.14,0,0,1-2.14,2.14h-12l-.06,0h0a.09.09,0,0,0,0,.07v11.68a2.13,2.13,0,0,1-2.14,2.13h-6.68a2.13,2.13,0,0,1-2.14-2.13V563.61h-11.51a2.13,2.13,0,0,1-2.13-2.14v-6.68a2.13,2.13,0,0,1,2.13-2.14h11.51V540.81a2.14,2.14,0,0,1,2.14-2.14H1116a2.14,2.14,0,0,1,2.14,2.14v11.84Z"/></g><g class="cls-4"><path class="cls-3" d="M1021.93,483.69a29.82,29.82,0,0,0-24.7-12.54s-23.11,0-30,20.68a33.61,33.61,0,0,0,1.1,23.33,42.16,42.16,0,0,0,4.31,8c6,8.62,24.54,32.16,24.54,32.16s21.46-29.52,26.18-38.79C1028.32,506.93,1029.07,493.51,1021.93,483.69ZM997.05,522a19.74,19.74,0,1,1,19.74-19.74A19.6,19.6,0,0,1,997.05,522Z"/><path class="cls-3" d="M1008,499.92a1.38,1.38,0,0,1,1.38,1.38v4.33A1.38,1.38,0,0,1,1008,507h-7.78a.06.06,0,0,0,0,0v7.55a1.38,1.38,0,0,1-1.38,1.38h-4.33a1.38,1.38,0,0,1-1.38-1.38V507H985.7a1.38,1.38,0,0,1-1.38-1.38v-4.32A1.38,1.38,0,0,1,985.7,500h7.43V492.3a1.38,1.38,0,0,1,1.38-1.38h4.33a1.38,1.38,0,0,1,1.38,1.38V500Z"/></g><g class="cls-4"><path class="cls-3" d="M1097.87,428.77a18.28,18.28,0,0,0-15.14-7.69s-14.18,0-18.37,12.68a20.57,20.57,0,0,0,.67,14.31,26.18,26.18,0,0,0,2.65,4.92c3.66,5.29,15,19.72,15,19.72s13.15-18.1,16-23.78C1101.79,443,1102.25,434.79,1097.87,428.77Zm-15.26,23.47a12.11,12.11,0,1,1,12.11-12.11A12,12,0,0,1,1082.61,452.24Z"/><path class="cls-3" d="M1089.33,438.72a.85.85,0,0,1,.85.85v2.65a.85.85,0,0,1-.85.85h-4.76s0,0,0,0v4.63a.85.85,0,0,1-.85.85h-2.65a.85.85,0,0,1-.85-.85v-4.64h-4.56a.85.85,0,0,1-.85-.85v-2.65a.84.84,0,0,1,.85-.84h4.56v-4.7a.85.85,0,0,1,.85-.85h2.65a.85.85,0,0,1,.85.85v4.7Z"/></g><g class="cls-4"><path class="cls-3" d="M932.64,445.35a46.15,46.15,0,0,0-38.21-19.41s-35.75,0-46.34,32A52,52,0,0,0,849.78,494a66.79,66.79,0,0,0,6.68,12.42c9.24,13.34,38,49.75,38,49.75s33.2-45.67,40.5-60C942.53,481.31,943.7,460.55,932.64,445.35Zm-38.49,59.21A30.55,30.55,0,1,1,924.69,474,30.32,30.32,0,0,1,894.15,504.56Z"/><path class="cls-3" d="M911.1,470.47a2.13,2.13,0,0,1,2.14,2.13v6.69a2.13,2.13,0,0,1-2.14,2.13h-12a.09.09,0,0,0-.07,0h0a.14.14,0,0,0,0,.06v11.68a2.14,2.14,0,0,1-2.14,2.14h-6.68a2.14,2.14,0,0,1-2.14-2.14V481.47H876.58a2.13,2.13,0,0,1-2.13-2.13v-6.69a2.13,2.13,0,0,1,2.13-2.13h11.51V458.67a2.13,2.13,0,0,1,2.14-2.13h6.68a2.13,2.13,0,0,1,2.14,2.13v11.85Z"/></g><g class="cls-2"><path class="cls-3" d="M839.87,567.55A29.85,29.85,0,0,0,815.17,555s-23.11,0-29.95,20.69A33.62,33.62,0,0,0,786.31,599a43.12,43.12,0,0,0,4.32,8c6,8.62,24.54,32.15,24.54,32.15s21.46-29.52,26.18-38.78C846.26,590.8,847,577.38,839.87,567.55ZM815,605.82a19.74,19.74,0,1,1,19.74-19.74A19.59,19.59,0,0,1,815,605.82Z"/><path class="cls-3" d="M826,583.79a1.38,1.38,0,0,1,1.38,1.38v4.32a1.38,1.38,0,0,1-1.38,1.38h-7.74l0,0h0s0,0,0,0v7.55a1.38,1.38,0,0,1-1.38,1.38h-4.33a1.38,1.38,0,0,1-1.38-1.38v-7.57h-7.44a1.38,1.38,0,0,1-1.38-1.38V585.2a1.38,1.38,0,0,1,1.38-1.38h7.44v-7.65a1.38,1.38,0,0,1,1.38-1.38h4.33a1.38,1.38,0,0,1,1.38,1.38v7.65Z"/></g><g class="cls-5"><path class="cls-3" d="M959.81,587.63a18.31,18.31,0,0,0-15.15-7.69s-14.17,0-18.36,12.69a20.55,20.55,0,0,0,.67,14.3,25.94,25.94,0,0,0,2.65,4.93c3.66,5.28,15,19.72,15,19.72s13.16-18.11,16.06-23.79C963.73,601.89,964.19,593.66,959.81,587.63ZM944.55,611.1A12.11,12.11,0,1,1,956.66,599,12,12,0,0,1,944.55,611.1Z"/><path class="cls-3" d="M951.27,597.59a.85.85,0,0,1,.85.85v2.65a.85.85,0,0,1-.85.84h-4.76a0,0,0,0,0,0,0v4.63a.84.84,0,0,1-.85.84H943a.84.84,0,0,1-.85-.84V602h-4.56a.85.85,0,0,1-.85-.84v-2.65a.85.85,0,0,1,.85-.85h4.56v-4.69a.85.85,0,0,1,.85-.85h2.65a.85.85,0,0,1,.85.85v4.69Z"/></g><g class="cls-5"><path class="cls-3" d="M726.68,495.91a46.2,46.2,0,0,0-38.22-19.4s-35.75,0-46.34,32a52,52,0,0,0,1.7,36.09A65.63,65.63,0,0,0,650.5,557c9.23,13.34,38,49.75,38,49.75s33.2-45.67,40.51-60C736.56,531.88,737.73,511.12,726.68,495.91Zm-38.5,59.21a30.54,30.54,0,1,1,30.54-30.54A30.31,30.31,0,0,1,688.18,555.12Z"/><path class="cls-3" d="M705.13,521a2.14,2.14,0,0,1,2.14,2.14v6.69a2.14,2.14,0,0,1-2.14,2.13h-12a.09.09,0,0,0-.07,0h0a.11.11,0,0,0,0,.06v11.68a2.14,2.14,0,0,1-2.14,2.14h-6.68a2.14,2.14,0,0,1-2.14-2.14V532H670.61a2.13,2.13,0,0,1-2.13-2.13v-6.69a2.13,2.13,0,0,1,2.13-2.14h11.51V509.24a2.14,2.14,0,0,1,2.14-2.14h6.68a2.14,2.14,0,0,1,2.14,2.14v11.84Z"/></g><g class="cls-2"><path class="cls-3" d="M623.9,570.12a29.85,29.85,0,0,0-24.7-12.54s-23.11,0-30,20.69a33.62,33.62,0,0,0,1.09,23.33,43.05,43.05,0,0,0,4.32,8c6,8.62,24.54,32.16,24.54,32.16s21.46-29.52,26.18-38.79C630.29,593.37,631,580,623.9,570.12ZM599,608.39a19.74,19.74,0,1,1,19.74-19.74A19.59,19.59,0,0,1,599,608.39Z"/><path class="cls-3" d="M610,586.36a1.38,1.38,0,0,1,1.38,1.38v4.32a1.38,1.38,0,0,1-1.38,1.38h-7.74l0,0h0s0,0,0,0v7.55a1.38,1.38,0,0,1-1.38,1.38h-4.33a1.38,1.38,0,0,1-1.38-1.38v-7.58h-7.44a1.38,1.38,0,0,1-1.38-1.38v-4.32a1.38,1.38,0,0,1,1.38-1.38h7.44v-7.66a1.38,1.38,0,0,1,1.38-1.38h4.33a1.38,1.38,0,0,1,1.38,1.38v7.66Z"/></g><g class="cls-5"><path class="cls-3" d="M768.84,433.2a18.28,18.28,0,0,0-15.14-7.69s-14.18,0-18.37,12.69a20.55,20.55,0,0,0,.67,14.3,26.24,26.24,0,0,0,2.65,4.93c3.66,5.28,15.05,19.71,15.05,19.71s13.15-18.1,16-23.78C772.76,447.46,773.22,439.23,768.84,433.2Zm-15.26,23.47a12.11,12.11,0,1,1,12.11-12.11A12,12,0,0,1,753.58,456.67Z"/><path class="cls-3" d="M760.3,443.16a.85.85,0,0,1,.85.84v2.65a.85.85,0,0,1-.85.85h-4.76a0,0,0,0,0,0,0v4.63a.85.85,0,0,1-.85.84H752a.85.85,0,0,1-.85-.84v-4.65h-4.56a.85.85,0,0,1-.85-.85V444a.85.85,0,0,1,.85-.84h4.56v-4.7a.85.85,0,0,1,.85-.84h2.65a.85.85,0,0,1,.85.84v4.7Z"/></g><g class="cls-2"><path class="cls-3" d="M487.84,415a29.83,29.83,0,0,0-24.7-12.55s-23.11,0-29.95,20.69a33.55,33.55,0,0,0,1.09,23.33,43.12,43.12,0,0,0,4.32,8c6,8.62,24.54,32.15,24.54,32.15s21.46-29.51,26.18-38.78C494.23,438.23,495,424.81,487.84,415ZM463,453.26a19.74,19.74,0,1,1,19.74-19.74A19.6,19.6,0,0,1,463,453.26Z"/><path class="cls-3" d="M473.92,431.22a1.38,1.38,0,0,1,1.38,1.38v4.32a1.38,1.38,0,0,1-1.38,1.38h-7.74l0,0h0a.06.06,0,0,0,0,0v7.55a1.38,1.38,0,0,1-1.38,1.38h-4.33a1.38,1.38,0,0,1-1.38-1.38v-7.57H451.6a1.38,1.38,0,0,1-1.38-1.38v-4.32a1.38,1.38,0,0,1,1.38-1.38H459V423.6a1.38,1.38,0,0,1,1.38-1.38h4.33a1.38,1.38,0,0,1,1.38,1.38v7.66Z"/></g><g class="cls-4"><path class="cls-3" d="M560.78,480.07a18.3,18.3,0,0,0-15.15-7.7s-14.17,0-18.36,12.69a20.58,20.58,0,0,0,.67,14.31,26.18,26.18,0,0,0,2.65,4.92c3.65,5.29,15,19.72,15,19.72s13.16-18.1,16.06-23.79C564.7,494.32,565.16,486.09,560.78,480.07Zm-15.26,23.46a12.11,12.11,0,1,1,12.11-12.1A12,12,0,0,1,545.52,503.53Z"/><path class="cls-3" d="M552.24,490a.85.85,0,0,1,.85.85v2.65a.85.85,0,0,1-.85.85h-4.77V499a.84.84,0,0,1-.84.85H544a.85.85,0,0,1-.85-.85v-4.64h-4.56a.85.85,0,0,1-.85-.85v-2.65a.85.85,0,0,1,.85-.85h4.56v-4.69a.85.85,0,0,1,.85-.85h2.65a.84.84,0,0,1,.84.85V490Z"/></g><g class="cls-2"><path class="cls-3" d="M1178.71,117.48a46.2,46.2,0,0,0-38.22-19.4s-35.75,0-46.34,32a52,52,0,0,0,1.7,36.1,65.63,65.63,0,0,0,6.68,12.42c9.23,13.33,38,49.75,38,49.75s33.2-45.67,40.51-60C1188.59,153.44,1189.76,132.68,1178.71,117.48Zm-38.5,59.21a30.54,30.54,0,1,1,30.54-30.54A30.31,30.31,0,0,1,1140.21,176.69Z"/><path class="cls-3" d="M1157.16,142.6a2.14,2.14,0,0,1,2.14,2.14v6.68a2.14,2.14,0,0,1-2.14,2.14h-12l-.06,0h0a.09.09,0,0,0,0,.07v11.68a2.13,2.13,0,0,1-2.14,2.13h-6.68a2.13,2.13,0,0,1-2.14-2.13V153.61h-11.51a2.13,2.13,0,0,1-2.13-2.14v-6.68a2.13,2.13,0,0,1,2.13-2.14h11.51V130.81a2.14,2.14,0,0,1,2.14-2.14H1143a2.14,2.14,0,0,1,2.14,2.14v11.84Z"/></g><g class="cls-4"><path class="cls-3" d="M1048.93,73.69a29.82,29.82,0,0,0-24.7-12.54s-23.11,0-30,20.68a33.61,33.61,0,0,0,1.1,23.33,42.16,42.16,0,0,0,4.31,8c6,8.62,24.54,32.16,24.54,32.16s21.46-29.52,26.18-38.79C1055.32,96.93,1056.07,83.51,1048.93,73.69ZM1024.05,112a19.74,19.74,0,1,1,19.74-19.74A19.6,19.6,0,0,1,1024.05,112Z"/><path class="cls-3" d="M1035,89.92a1.38,1.38,0,0,1,1.38,1.38v4.33A1.38,1.38,0,0,1,1035,97h-7.78a.06.06,0,0,0,0,0v7.55a1.38,1.38,0,0,1-1.38,1.38h-4.33a1.38,1.38,0,0,1-1.38-1.38V97h-7.43a1.38,1.38,0,0,1-1.38-1.38V91.34A1.38,1.38,0,0,1,1012.7,90h7.43V82.3a1.38,1.38,0,0,1,1.38-1.38h4.33a1.38,1.38,0,0,1,1.38,1.38V90Z"/></g><g class="cls-4"><path class="cls-3" d="M1124.87,18.77a18.28,18.28,0,0,0-15.14-7.69s-14.18,0-18.37,12.68a20.57,20.57,0,0,0,.67,14.31,26.18,26.18,0,0,0,2.65,4.92c3.66,5.29,15,19.72,15,19.72s13.15-18.1,16-23.78C1128.79,33,1129.25,24.79,1124.87,18.77Zm-15.26,23.47a12.11,12.11,0,1,1,12.11-12.11A12,12,0,0,1,1109.61,42.24Z"/><path class="cls-3" d="M1116.33,28.72a.85.85,0,0,1,.85.85v2.65a.85.85,0,0,1-.85.85h-4.76s0,0,0,0v4.63a.85.85,0,0,1-.85.85h-2.65a.85.85,0,0,1-.85-.85V33.09h-4.56a.85.85,0,0,1-.85-.85V29.59a.84.84,0,0,1,.85-.84h4.56v-4.7a.85.85,0,0,1,.85-.85h2.65a.85.85,0,0,1,.85.85v4.7Z"/></g><g class="cls-4"><path class="cls-3" d="M959.64,35.35a46.15,46.15,0,0,0-38.21-19.41s-35.75,0-46.34,32A52,52,0,0,0,876.78,84a66.79,66.79,0,0,0,6.68,12.42c9.24,13.34,38,49.75,38,49.75s33.2-45.67,40.5-60C969.53,71.31,970.7,50.55,959.64,35.35ZM921.15,94.56A30.55,30.55,0,1,1,951.69,64,30.32,30.32,0,0,1,921.15,94.56Z"/><path class="cls-3" d="M938.1,60.47a2.13,2.13,0,0,1,2.14,2.13v6.69a2.13,2.13,0,0,1-2.14,2.13h-12a.09.09,0,0,0-.07,0h0a.14.14,0,0,0,0,.06V83.19a2.14,2.14,0,0,1-2.14,2.14h-6.68a2.14,2.14,0,0,1-2.14-2.14V71.47H903.58a2.13,2.13,0,0,1-2.13-2.13V62.65a2.13,2.13,0,0,1,2.13-2.13h11.51V48.67a2.13,2.13,0,0,1,2.14-2.13h6.68a2.13,2.13,0,0,1,2.14,2.13V60.52Z"/></g><g class="cls-2"><path class="cls-3" d="M866.87,157.55A29.85,29.85,0,0,0,842.17,145s-23.11,0-29.95,20.69A33.62,33.62,0,0,0,813.31,189a43.12,43.12,0,0,0,4.32,8c6,8.62,24.54,32.15,24.54,32.15s21.46-29.52,26.18-38.78C873.26,180.8,874,167.38,866.87,157.55ZM842,195.82a19.74,19.74,0,1,1,19.74-19.74A19.59,19.59,0,0,1,842,195.82Z"/><path class="cls-3" d="M853,173.79a1.38,1.38,0,0,1,1.38,1.38v4.32a1.38,1.38,0,0,1-1.38,1.38h-7.74l0,0h0s0,0,0,0v7.55a1.38,1.38,0,0,1-1.38,1.38h-4.33a1.38,1.38,0,0,1-1.38-1.38v-7.57h-7.44a1.38,1.38,0,0,1-1.38-1.38V175.2a1.38,1.38,0,0,1,1.38-1.38h7.44v-7.65a1.38,1.38,0,0,1,1.38-1.38h4.33a1.38,1.38,0,0,1,1.38,1.38v7.65Z"/></g><g class="cls-5"><path class="cls-3" d="M986.81,177.63a18.31,18.31,0,0,0-15.15-7.69s-14.17,0-18.36,12.69a20.55,20.55,0,0,0,.67,14.3,25.94,25.94,0,0,0,2.65,4.93c3.66,5.28,15,19.72,15,19.72s13.16-18.11,16.06-23.79C990.73,191.89,991.19,183.66,986.81,177.63ZM971.55,201.1A12.11,12.11,0,1,1,983.66,189,12,12,0,0,1,971.55,201.1Z"/><path class="cls-3" d="M978.27,187.59a.85.85,0,0,1,.85.85v2.65a.85.85,0,0,1-.85.84h-4.76a0,0,0,0,0,0,0v4.63a.84.84,0,0,1-.85.84H970a.84.84,0,0,1-.85-.84V192h-4.56a.85.85,0,0,1-.85-.84v-2.65a.85.85,0,0,1,.85-.85h4.56v-4.69a.85.85,0,0,1,.85-.85h2.65a.85.85,0,0,1,.85.85v4.69Z"/></g><g class="cls-5"><path class="cls-3" d="M753.68,85.91a46.2,46.2,0,0,0-38.22-19.4s-35.75,0-46.34,32a52,52,0,0,0,1.7,36.09A65.63,65.63,0,0,0,677.5,147c9.23,13.34,38,49.75,38,49.75s33.2-45.67,40.51-60C763.56,121.88,764.73,101.12,753.68,85.91Zm-38.5,59.21a30.54,30.54,0,1,1,30.54-30.54A30.31,30.31,0,0,1,715.18,145.12Z"/><path class="cls-3" d="M732.13,111a2.14,2.14,0,0,1,2.14,2.14v6.69a2.14,2.14,0,0,1-2.14,2.13h-12a.09.09,0,0,0-.07,0h0a.11.11,0,0,0,0,.06v11.68a2.14,2.14,0,0,1-2.14,2.14h-6.68a2.14,2.14,0,0,1-2.14-2.14V122H697.61a2.13,2.13,0,0,1-2.13-2.13v-6.69a2.13,2.13,0,0,1,2.13-2.14h11.51V99.24a2.14,2.14,0,0,1,2.14-2.14h6.68a2.14,2.14,0,0,1,2.14,2.14v11.84Z"/></g><g class="cls-2"><path class="cls-3" d="M650.9,160.12a29.85,29.85,0,0,0-24.7-12.54s-23.11,0-30,20.69a33.62,33.62,0,0,0,1.09,23.33,43.05,43.05,0,0,0,4.32,8c6,8.62,24.54,32.16,24.54,32.16s21.46-29.52,26.18-38.79C657.29,183.37,658,170,650.9,160.12ZM626,198.39a19.74,19.74,0,1,1,19.74-19.74A19.59,19.59,0,0,1,626,198.39Z"/><path class="cls-3" d="M637,176.36a1.38,1.38,0,0,1,1.38,1.38v4.32a1.38,1.38,0,0,1-1.38,1.38h-7.74l0,0h0s0,0,0,0v7.55a1.38,1.38,0,0,1-1.38,1.38h-4.33a1.38,1.38,0,0,1-1.38-1.38v-7.58h-7.44a1.38,1.38,0,0,1-1.38-1.38v-4.32a1.38,1.38,0,0,1,1.38-1.38h7.44v-7.66a1.38,1.38,0,0,1,1.38-1.38h4.33a1.38,1.38,0,0,1,1.38,1.38v7.66Z"/></g><g class="cls-5"><path class="cls-3" d="M795.84,23.2a18.28,18.28,0,0,0-15.14-7.69s-14.18,0-18.37,12.69A20.55,20.55,0,0,0,763,42.5a26.24,26.24,0,0,0,2.65,4.93c3.66,5.28,15.05,19.71,15.05,19.71s13.15-18.1,16-23.78C799.76,37.46,800.22,29.23,795.84,23.2ZM780.58,46.67a12.11,12.11,0,1,1,12.11-12.11A12,12,0,0,1,780.58,46.67Z"/><path class="cls-3" d="M787.3,33.16a.85.85,0,0,1,.85.84v2.65a.85.85,0,0,1-.85.85h-4.76a0,0,0,0,0,0,0v4.63a.85.85,0,0,1-.85.84H779a.85.85,0,0,1-.85-.84V37.52h-4.56a.85.85,0,0,1-.85-.85V34a.85.85,0,0,1,.85-.84h4.56v-4.7a.85.85,0,0,1,.85-.84h2.65a.85.85,0,0,1,.85.84v4.7Z"/></g><g class="cls-4"><path class="cls-3" d="M540.61,89.78A46.15,46.15,0,0,0,502.4,70.37s-35.75,0-46.34,32a52,52,0,0,0,1.69,36.09,66.85,66.85,0,0,0,6.68,12.43c9.24,13.33,38,49.74,38,49.74s33.2-45.67,40.5-60C550.5,125.74,551.66,105,540.61,89.78ZM502.12,149a30.54,30.54,0,1,1,30.54-30.54A30.3,30.3,0,0,1,502.12,149Z"/><path class="cls-3" d="M519.07,114.9a2.13,2.13,0,0,1,2.14,2.13v6.69a2.14,2.14,0,0,1-2.14,2.14h-12l-.07,0h0a.14.14,0,0,0,0,.06v11.69a2.14,2.14,0,0,1-2.14,2.13h-6.69a2.14,2.14,0,0,1-2.13-2.13V125.91H484.55a2.13,2.13,0,0,1-2.13-2.14v-6.69a2.13,2.13,0,0,1,2.13-2.13h11.51V103.1a2.14,2.14,0,0,1,2.13-2.13h6.69A2.14,2.14,0,0,1,507,103.1V115Z"/></g><g class="cls-2"><path class="cls-3" d="M436.84,22a29.83,29.83,0,0,0-24.7-12.55s-23.11,0-29.95,20.69a33.55,33.55,0,0,0,1.09,23.33,43.12,43.12,0,0,0,4.32,8c6,8.62,24.54,32.15,24.54,32.15s21.46-29.51,26.18-38.78C443.23,45.23,444,31.81,436.84,22ZM412,60.26A19.74,19.74,0,1,1,431.7,40.52,19.6,19.6,0,0,1,412,60.26Z"/><path class="cls-3" d="M422.92,38.22a1.38,1.38,0,0,1,1.38,1.38v4.32a1.38,1.38,0,0,1-1.38,1.38h-7.74l0,0h0a.06.06,0,0,0,0,0v7.55a1.38,1.38,0,0,1-1.38,1.38h-4.33A1.38,1.38,0,0,1,408,52.91V45.34H400.6A1.38,1.38,0,0,1,399.22,44V39.64a1.38,1.38,0,0,1,1.38-1.38H408V30.6a1.38,1.38,0,0,1,1.38-1.38h4.33a1.38,1.38,0,0,1,1.38,1.38v7.66Z"/></g><g class="cls-4"><path class="cls-3" d="M615.78,28.07a18.3,18.3,0,0,0-15.15-7.7s-14.17,0-18.36,12.69a20.58,20.58,0,0,0,.67,14.31,26.18,26.18,0,0,0,2.65,4.92c3.65,5.29,15,19.72,15,19.72s13.16-18.1,16.06-23.79C619.7,42.32,620.16,34.09,615.78,28.07ZM600.52,51.53a12.11,12.11,0,1,1,12.11-12.1A12,12,0,0,1,600.52,51.53Z"/><path class="cls-3" d="M607.24,38a.85.85,0,0,1,.85.85v2.65a.85.85,0,0,1-.85.85h-4.77V47a.84.84,0,0,1-.84.85H599a.85.85,0,0,1-.85-.85V42.39h-4.56a.85.85,0,0,1-.85-.85V38.89a.85.85,0,0,1,.85-.85h4.56V33.35a.85.85,0,0,1,.85-.85h2.65a.84.84,0,0,1,.84.85V38Z"/></g><g class="cls-2"><path class="cls-3" d="M368.08,316.44A46.17,46.17,0,0,0,329.86,297s-35.75,0-46.34,32a52,52,0,0,0,1.7,36.09,66,66,0,0,0,6.68,12.43c9.23,13.33,38,49.75,38,49.75s33.2-45.68,40.51-60C378,352.4,379.13,331.64,368.08,316.44Zm-38.5,59.21a30.54,30.54,0,1,1,30.54-30.54A30.31,30.31,0,0,1,329.58,375.65Z"/><path class="cls-3" d="M346.54,341.56a2.13,2.13,0,0,1,2.13,2.13v6.69a2.13,2.13,0,0,1-2.13,2.14h-12l-.06,0h0a.09.09,0,0,0,0,.06v11.69a2.13,2.13,0,0,1-2.13,2.13h-6.69a2.13,2.13,0,0,1-2.14-2.13V352.57H312a2.14,2.14,0,0,1-2.14-2.14v-6.69a2.14,2.14,0,0,1,2.14-2.13h11.5V329.77a2.14,2.14,0,0,1,2.14-2.14h6.69a2.13,2.13,0,0,1,2.13,2.14v11.84Z"/></g><g class="cls-4"><path class="cls-3" d="M238.31,272.65a29.85,29.85,0,0,0-24.7-12.55s-23.11,0-30,20.69a33.61,33.61,0,0,0,1.1,23.33,42.54,42.54,0,0,0,4.32,8c6,8.62,24.54,32.16,24.54,32.16s21.45-29.52,26.18-38.79C244.69,295.89,245.45,282.47,238.31,272.65Zm-24.89,38.27a19.74,19.74,0,1,1,19.74-19.74A19.6,19.6,0,0,1,213.42,310.92Z"/><path class="cls-3" d="M224.38,288.88a1.38,1.38,0,0,1,1.38,1.38v4.33a1.38,1.38,0,0,1-1.38,1.38h-7.77l0,0v7.55a1.38,1.38,0,0,1-1.38,1.38h-4.32a1.38,1.38,0,0,1-1.38-1.38V296h-7.44a1.38,1.38,0,0,1-1.38-1.38V290.3a1.38,1.38,0,0,1,1.38-1.38h7.44v-7.66a1.38,1.38,0,0,1,1.38-1.38h4.32a1.38,1.38,0,0,1,1.38,1.38v7.66Z"/></g><g class="cls-4"><path class="cls-3" d="M314.25,217.73A18.31,18.31,0,0,0,299.1,210s-14.17,0-18.37,12.69A20.63,20.63,0,0,0,281.4,237a26.18,26.18,0,0,0,2.65,4.92c3.66,5.29,15.05,19.72,15.05,19.72s13.16-18.1,16-23.78C318.16,232,318.63,223.75,314.25,217.73ZM299,241.2a12.11,12.11,0,1,1,12.1-12.11A12,12,0,0,1,299,241.2Z"/><path class="cls-3" d="M305.71,227.68a.85.85,0,0,1,.84.85v2.65a.85.85,0,0,1-.84.85h-4.77s0,0,0,0v4.63a.85.85,0,0,1-.85.85h-2.65a.85.85,0,0,1-.84-.85v-4.64H292a.85.85,0,0,1-.84-.85v-2.65a.85.85,0,0,1,.84-.85h4.57V223a.85.85,0,0,1,.84-.85h2.65a.85.85,0,0,1,.85.85v4.69Z"/></g><g class="cls-4"><path class="cls-3" d="M149,234.31A46.17,46.17,0,0,0,110.8,214.9s-35.75,0-46.34,32A52,52,0,0,0,66.16,283a66.2,66.2,0,0,0,6.68,12.42c9.23,13.34,38,49.75,38,49.75s33.2-45.67,40.51-60C158.9,270.27,160.07,249.51,149,234.31Zm-38.5,59.2A30.54,30.54,0,1,1,141.06,263,30.31,30.31,0,0,1,110.52,293.51Z"/><path class="cls-3" d="M127.47,259.42a2.14,2.14,0,0,1,2.14,2.14v6.69a2.13,2.13,0,0,1-2.14,2.13h-12a.07.07,0,0,0-.06,0h0a.07.07,0,0,0,0,.06v11.68a2.13,2.13,0,0,1-2.13,2.14H106.6a2.14,2.14,0,0,1-2.14-2.14V270.43H93a2.13,2.13,0,0,1-2.13-2.13v-6.69A2.13,2.13,0,0,1,93,259.47h11.51V247.63a2.13,2.13,0,0,1,2.14-2.13h6.69a2.13,2.13,0,0,1,2.13,2.13v11.84Z"/></g><g class="cls-2"><path class="cls-3" d="M56.24,356.51A29.85,29.85,0,0,0,31.54,344S8.43,344,1.59,364.66A33.62,33.62,0,0,0,2.69,388,42.47,42.47,0,0,0,7,396c6,8.62,24.53,32.16,24.53,32.16S53,398.65,57.72,389.38C62.63,379.76,63.39,366.34,56.24,356.51ZM31.36,394.78A19.74,19.74,0,1,1,51.1,375,19.59,19.59,0,0,1,31.36,394.78Z"/><path class="cls-3" d="M42.32,372.75a1.38,1.38,0,0,1,1.38,1.38v4.32a1.38,1.38,0,0,1-1.38,1.38H34.59a.05.05,0,0,0,0,0h0a.05.05,0,0,0,0,0v7.55a1.38,1.38,0,0,1-1.38,1.38H28.83a1.38,1.38,0,0,1-1.38-1.38v-7.58H20a1.38,1.38,0,0,1-1.38-1.38v-4.32A1.38,1.38,0,0,1,20,372.78h7.44v-7.66a1.38,1.38,0,0,1,1.38-1.38h4.32a1.38,1.38,0,0,1,1.38,1.38v7.66Z"/></g><g class="cls-5"><path class="cls-3" d="M176.18,376.59A18.31,18.31,0,0,0,161,368.9s-14.17,0-18.37,12.69a20.61,20.61,0,0,0,.67,14.3,26.24,26.24,0,0,0,2.65,4.93c3.66,5.28,15,19.72,15,19.72s13.16-18.11,16.05-23.79C180.1,390.85,180.57,382.62,176.18,376.59Zm-15.25,23.47A12.11,12.11,0,1,1,173,388,12,12,0,0,1,160.93,400.06Z"/><path class="cls-3" d="M167.65,386.55a.85.85,0,0,1,.84.84V390a.85.85,0,0,1-.84.85h-4.77a0,0,0,0,0,0,0v4.63a.85.85,0,0,1-.85.84h-2.65a.84.84,0,0,1-.84-.84v-4.65H154a.85.85,0,0,1-.84-.84v-2.66a.85.85,0,0,1,.84-.84h4.57v-4.7a.84.84,0,0,1,.84-.84H162a.85.85,0,0,1,.85.84v4.7Z"/></g><g class="cls-2"><path class="cls-3" d="M403.06,516.41A46.15,46.15,0,0,0,364.85,497s-35.75,0-46.34,32a52,52,0,0,0,1.69,36.09,66.79,66.79,0,0,0,6.68,12.42c9.24,13.34,38,49.75,38,49.75s33.2-45.67,40.5-60C413,552.37,414.11,531.61,403.06,516.41Zm-38.49,59.2a30.54,30.54,0,1,1,30.54-30.54A30.3,30.3,0,0,1,364.57,575.61Z"/><path class="cls-3" d="M381.52,541.52a2.14,2.14,0,0,1,2.14,2.14v6.69a2.13,2.13,0,0,1-2.14,2.13h-12a.09.09,0,0,0-.07,0h0a.11.11,0,0,0,0,.06v11.68a2.14,2.14,0,0,1-2.14,2.14h-6.69a2.14,2.14,0,0,1-2.13-2.14V552.53H347a2.13,2.13,0,0,1-2.14-2.13v-6.69a2.14,2.14,0,0,1,2.14-2.14h11.51V529.73a2.13,2.13,0,0,1,2.13-2.13h6.69a2.13,2.13,0,0,1,2.14,2.13v11.84Z"/></g><g class="cls-4"><path class="cls-3" d="M223.29,472.61a29.85,29.85,0,0,0-24.7-12.54s-23.11,0-30,20.69a33.56,33.56,0,0,0,1.09,23.33,43.43,43.43,0,0,0,4.32,8c6,8.61,24.54,32.15,24.54,32.15s21.46-29.52,26.18-38.78C229.68,495.86,230.43,482.44,223.29,472.61Zm-24.88,38.27a19.74,19.74,0,1,1,19.74-19.74A19.59,19.59,0,0,1,198.41,510.88Z"/><path class="cls-3" d="M209.37,488.85a1.38,1.38,0,0,1,1.38,1.38v4.32a1.38,1.38,0,0,1-1.38,1.38h-7.74l0,0h0s0,0,0,0v7.55a1.38,1.38,0,0,1-1.38,1.38h-4.33a1.38,1.38,0,0,1-1.38-1.38V496h-7.44a1.38,1.38,0,0,1-1.38-1.38v-4.32a1.38,1.38,0,0,1,1.38-1.38h7.44v-7.65a1.38,1.38,0,0,1,1.38-1.38h4.33a1.38,1.38,0,0,1,1.38,1.38v7.65Z"/></g><g class="cls-4"><path class="cls-3" d="M299.23,417.69A18.31,18.31,0,0,0,284.08,410s-14.17,0-18.36,12.69a20.55,20.55,0,0,0,.67,14.3,25.94,25.94,0,0,0,2.65,4.93c3.65,5.28,15,19.72,15,19.72s13.16-18.11,16.06-23.79C303.15,432,303.61,423.72,299.23,417.69ZM284,441.16a12.11,12.11,0,1,1,12.11-12.11A12,12,0,0,1,284,441.16Z"/><path class="cls-3" d="M290.69,427.65a.85.85,0,0,1,.85.84v2.65a.85.85,0,0,1-.85.85h-4.77v4.66a.84.84,0,0,1-.84.84h-2.65a.85.85,0,0,1-.85-.84V432H277a.85.85,0,0,1-.85-.84v-2.66a.85.85,0,0,1,.85-.84h4.56V423a.85.85,0,0,1,.85-.84h2.65a.84.84,0,0,1,.84.84v4.7Z"/></g><g class="cls-4"><path class="cls-3" d="M134,434.27a46.15,46.15,0,0,0-38.21-19.41s-35.76,0-46.34,32A52,52,0,0,0,51.14,483a66.79,66.79,0,0,0,6.68,12.42c9.23,13.33,38,49.75,38,49.75s33.2-45.68,40.5-60C143.89,470.23,145.05,449.47,134,434.27ZM95.51,493.48a30.54,30.54,0,1,1,30.54-30.54A30.32,30.32,0,0,1,95.51,493.48Z"/><path class="cls-3" d="M112.46,459.39a2.13,2.13,0,0,1,2.13,2.13v6.69a2.13,2.13,0,0,1-2.13,2.14h-12l-.06,0h0a.14.14,0,0,0,0,.06v11.69a2.13,2.13,0,0,1-2.14,2.13H91.58a2.13,2.13,0,0,1-2.13-2.13V470.4H77.94a2.14,2.14,0,0,1-2.14-2.14v-6.69a2.14,2.14,0,0,1,2.14-2.13H89.45V447.6a2.13,2.13,0,0,1,2.13-2.14h6.69a2.14,2.14,0,0,1,2.14,2.14v11.84Z"/></g><g class="cls-2"><path class="cls-3" d="M64.23,556.48a29.83,29.83,0,0,0-24.7-12.55s-23.11,0-29.95,20.69A33.55,33.55,0,0,0,10.67,588,43.12,43.12,0,0,0,15,596c6,8.62,24.54,32.16,24.54,32.16S61,598.62,65.71,589.35C70.62,579.72,71.37,566.3,64.23,556.48ZM39.35,594.75A19.74,19.74,0,1,1,59.09,575,19.6,19.6,0,0,1,39.35,594.75Z"/><path class="cls-3" d="M50.3,572.71a1.38,1.38,0,0,1,1.38,1.38v4.33a1.38,1.38,0,0,1-1.38,1.38H42.53l0,0v7.55a1.38,1.38,0,0,1-1.38,1.38H36.81a1.38,1.38,0,0,1-1.38-1.38v-7.57H28a1.38,1.38,0,0,1-1.38-1.38v-4.32A1.38,1.38,0,0,1,28,572.75h7.44v-7.66a1.38,1.38,0,0,1,1.38-1.38h4.32a1.38,1.38,0,0,1,1.38,1.38v7.66Z"/></g><g class="cls-5"><path class="cls-3" d="M161.17,576.56a18.3,18.3,0,0,0-15.15-7.7s-14.17,0-18.37,12.69a20.63,20.63,0,0,0,.68,14.31,26.69,26.69,0,0,0,2.64,4.92C134.63,606.07,146,620.5,146,620.5s13.16-18.1,16.06-23.78C165.09,590.81,165.55,582.58,161.17,576.56ZM145.91,600A12.11,12.11,0,1,1,158,587.92,12,12,0,0,1,145.91,600Z"/><path class="cls-3" d="M152.63,586.51a.85.85,0,0,1,.85.85V590a.85.85,0,0,1-.85.85h-4.77v4.65a.85.85,0,0,1-.84.85h-2.65a.85.85,0,0,1-.85-.85v-4.64H139a.85.85,0,0,1-.85-.85v-2.65a.85.85,0,0,1,.85-.85h4.56v-4.69a.85.85,0,0,1,.85-.85H147a.85.85,0,0,1,.84.85v4.69Z"/></g><g class="cls-2"><path class="cls-3" d="M380.06,106.41A46.15,46.15,0,0,0,341.85,87s-35.75,0-46.34,32a52,52,0,0,0,1.69,36.09,66.79,66.79,0,0,0,6.68,12.42c9.24,13.34,38,49.75,38,49.75s33.2-45.67,40.5-60C390,142.37,391.11,121.61,380.06,106.41Zm-38.49,59.2a30.54,30.54,0,1,1,30.54-30.54A30.3,30.3,0,0,1,341.57,165.61Z"/><path class="cls-3" d="M358.52,131.52a2.14,2.14,0,0,1,2.14,2.14v6.69a2.13,2.13,0,0,1-2.14,2.13h-12a.09.09,0,0,0-.07,0h0a.11.11,0,0,0,0,.06v11.68a2.14,2.14,0,0,1-2.14,2.14h-6.69a2.14,2.14,0,0,1-2.13-2.14V142.53H324a2.13,2.13,0,0,1-2.14-2.13v-6.69a2.14,2.14,0,0,1,2.14-2.14h11.51V119.73a2.13,2.13,0,0,1,2.13-2.13h6.69a2.13,2.13,0,0,1,2.14,2.13v11.84Z"/></g><g class="cls-4"><path class="cls-3" d="M250.29,62.61a29.85,29.85,0,0,0-24.7-12.54s-23.11,0-30,20.69a33.56,33.56,0,0,0,1.09,23.33,43.43,43.43,0,0,0,4.32,8c6,8.61,24.54,32.15,24.54,32.15s21.46-29.52,26.18-38.78C256.68,85.86,257.43,72.44,250.29,62.61Zm-24.88,38.27a19.74,19.74,0,1,1,19.74-19.74A19.59,19.59,0,0,1,225.41,100.88Z"/><path class="cls-3" d="M236.37,78.85a1.38,1.38,0,0,1,1.38,1.38v4.32a1.38,1.38,0,0,1-1.38,1.38h-7.74l0,0h0s0,0,0,0v7.55a1.38,1.38,0,0,1-1.38,1.38h-4.33a1.38,1.38,0,0,1-1.38-1.38V86h-7.44a1.38,1.38,0,0,1-1.38-1.38V80.26a1.38,1.38,0,0,1,1.38-1.38h7.44V71.23a1.38,1.38,0,0,1,1.38-1.38h4.33a1.38,1.38,0,0,1,1.38,1.38v7.65Z"/></g><g class="cls-4"><path class="cls-3" d="M326.23,7.69A18.31,18.31,0,0,0,311.08,0s-14.17,0-18.36,12.69a20.55,20.55,0,0,0,.67,14.3A25.94,25.94,0,0,0,296,31.92c3.65,5.28,15,19.72,15,19.72s13.16-18.11,16.06-23.79C330.15,22,330.61,13.72,326.23,7.69ZM311,31.16a12.11,12.11,0,1,1,12.11-12.11A12,12,0,0,1,311,31.16Z"/><path class="cls-3" d="M317.69,17.65a.85.85,0,0,1,.85.84v2.65a.85.85,0,0,1-.85.85h-4.77s0,0,0,0v4.63a.84.84,0,0,1-.84.84h-2.65a.85.85,0,0,1-.85-.84V22H304a.85.85,0,0,1-.85-.84V18.51a.85.85,0,0,1,.85-.84h4.56V13a.85.85,0,0,1,.85-.84h2.65a.84.84,0,0,1,.84.84v4.7Z"/></g><g class="cls-4"><path class="cls-3" d="M161,24.27A46.15,46.15,0,0,0,122.79,4.86s-35.76,0-46.34,32A52,52,0,0,0,78.14,73a66.79,66.79,0,0,0,6.68,12.42c9.23,13.33,38,49.75,38,49.75s33.2-45.68,40.5-60C170.89,60.23,172.05,39.47,161,24.27ZM122.51,83.48a30.54,30.54,0,1,1,30.54-30.54A30.32,30.32,0,0,1,122.51,83.48Z"/><path class="cls-3" d="M139.46,49.39a2.13,2.13,0,0,1,2.13,2.13v6.69a2.13,2.13,0,0,1-2.13,2.14h-12l-.06,0h0a.14.14,0,0,0,0,.06V72.12a2.13,2.13,0,0,1-2.14,2.13h-6.69a2.13,2.13,0,0,1-2.13-2.13V60.4H104.94a2.14,2.14,0,0,1-2.14-2.14V51.57a2.14,2.14,0,0,1,2.14-2.13h11.51V37.6a2.13,2.13,0,0,1,2.13-2.14h6.69a2.14,2.14,0,0,1,2.14,2.14V49.44Z"/></g><g class="cls-2"><path class="cls-3" d="M68.23,146.48a29.83,29.83,0,0,0-24.7-12.55s-23.11,0-29.95,20.69A33.55,33.55,0,0,0,14.67,178,43.12,43.12,0,0,0,19,186c6,8.62,24.54,32.16,24.54,32.16S65,188.62,69.71,179.35C74.62,169.72,75.37,156.3,68.23,146.48ZM43.35,184.75A19.74,19.74,0,1,1,63.09,165,19.6,19.6,0,0,1,43.35,184.75Z"/><path class="cls-3" d="M54.3,162.71a1.38,1.38,0,0,1,1.38,1.38v4.33a1.38,1.38,0,0,1-1.38,1.38H46.53l0,0v7.55a1.38,1.38,0,0,1-1.38,1.38H40.81a1.38,1.38,0,0,1-1.38-1.38v-7.57H32a1.38,1.38,0,0,1-1.38-1.38v-4.32A1.38,1.38,0,0,1,32,162.75h7.44v-7.66a1.38,1.38,0,0,1,1.38-1.38h4.32a1.38,1.38,0,0,1,1.38,1.38v7.66Z"/></g><g class="cls-5"><path class="cls-3" d="M188.17,166.56a18.3,18.3,0,0,0-15.15-7.7s-14.17,0-18.37,12.69a20.63,20.63,0,0,0,.68,14.31,26.69,26.69,0,0,0,2.64,4.92C161.63,196.07,173,210.5,173,210.5s13.16-18.1,16.06-23.78C192.09,180.81,192.55,172.58,188.17,166.56ZM172.91,190A12.11,12.11,0,1,1,185,177.92,12,12,0,0,1,172.91,190Z"/><path class="cls-3" d="M179.63,176.51a.85.85,0,0,1,.85.85V180a.85.85,0,0,1-.85.85h-4.77v4.65a.85.85,0,0,1-.84.85h-2.65a.85.85,0,0,1-.85-.85v-4.64H166a.85.85,0,0,1-.85-.85v-2.65a.85.85,0,0,1,.85-.85h4.56v-4.69a.85.85,0,0,1,.85-.85H174a.85.85,0,0,1,.84.85v4.69Z"/></g><g class="cls-1"><g class="cls-2"><path class="cls-3" d="M1150.56,914.63a46.18,46.18,0,0,0-38.21-19.4s-35.76,0-46.35,32a52,52,0,0,0,1.7,36.1,66.2,66.2,0,0,0,6.68,12.42c9.23,13.33,38,49.75,38,49.75s33.19-45.67,40.5-60C1160.44,950.59,1161.61,929.83,1150.56,914.63Zm-38.5,59.21a30.54,30.54,0,1,1,30.54-30.54A30.31,30.31,0,0,1,1112.06,973.84Z"/><path class="cls-3" d="M1129,939.75a2.13,2.13,0,0,1,2.13,2.14v6.68a2.13,2.13,0,0,1-2.13,2.14h-12l-.06,0h0a.06.06,0,0,0,0,.06v11.68a2.13,2.13,0,0,1-2.13,2.13h-6.69a2.13,2.13,0,0,1-2.13-2.13V950.76H1094.5a2.13,2.13,0,0,1-2.14-2.13v-6.69a2.14,2.14,0,0,1,2.14-2.14H1106V928a2.13,2.13,0,0,1,2.13-2.14h6.69A2.13,2.13,0,0,1,1117,928V939.8Z"/></g><g class="cls-4"><path class="cls-3" d="M1183.79,803.84a29.86,29.86,0,0,0-24.7-12.54s-23.11,0-30,20.69a33.59,33.59,0,0,0,1.1,23.32,42.24,42.24,0,0,0,4.32,8c6,8.62,24.54,32.16,24.54,32.16s21.45-29.52,26.18-38.79C1190.17,827.08,1190.93,813.67,1183.79,803.84Zm-24.89,38.27a19.74,19.74,0,1,1,19.74-19.74A19.6,19.6,0,0,1,1158.9,842.11Z"/><path class="cls-3" d="M1169.86,820.08a1.38,1.38,0,0,1,1.38,1.38v4.32a1.38,1.38,0,0,1-1.38,1.38h-7.77s0,0,0,.05v7.55a1.38,1.38,0,0,1-1.38,1.38h-4.32a1.38,1.38,0,0,1-1.38-1.38v-7.58h-7.44a1.38,1.38,0,0,1-1.38-1.38v-4.32a1.38,1.38,0,0,1,1.38-1.38H1155v-7.66a1.38,1.38,0,0,1,1.38-1.38h4.32a1.38,1.38,0,0,1,1.38,1.38v7.66Z"/></g><g class="cls-4"><path class="cls-3" d="M87.73,668.92a18.3,18.3,0,0,0-15.15-7.69s-14.17,0-18.37,12.68a20.63,20.63,0,0,0,.67,14.31,25.87,25.87,0,0,0,2.65,4.92c3.66,5.29,15,19.72,15,19.72s13.16-18.1,16-23.78C91.64,683.17,92.11,674.94,87.73,668.92ZM72.47,692.39a12.11,12.11,0,1,1,12.1-12.11A12,12,0,0,1,72.47,692.39Z"/><path class="cls-3" d="M79.19,678.88a.83.83,0,0,1,.84.84v2.65a.84.84,0,0,1-.84.85H74.42v4.65a.85.85,0,0,1-.85.85H70.91a.85.85,0,0,1-.84-.85v-4.64H65.5a.85.85,0,0,1-.84-.85v-2.65a.85.85,0,0,1,.84-.84h4.57v-4.7a.84.84,0,0,1,.84-.84h2.65a.84.84,0,0,1,.85.84v4.7Z"/></g><g class="cls-4"><path class="cls-3" d="M1035.5,838.5a46.17,46.17,0,0,0-38.22-19.41s-35.75,0-46.34,32a52,52,0,0,0,1.7,36.09,65.89,65.89,0,0,0,6.68,12.42c9.23,13.34,38,49.75,38,49.75s33.2-45.67,40.51-60C1045.38,874.46,1046.55,853.7,1035.5,838.5ZM997,897.71a30.55,30.55,0,1,1,30.54-30.54A30.33,30.33,0,0,1,997,897.71Z"/><path class="cls-3" d="M1014,863.62a2.13,2.13,0,0,1,2.13,2.13v6.69a2.13,2.13,0,0,1-2.13,2.13h-12a.07.07,0,0,0-.06,0h0a.09.09,0,0,0,0,.06v11.68a2.13,2.13,0,0,1-2.13,2.14h-6.69a2.14,2.14,0,0,1-2.14-2.14V874.63H979.43a2.14,2.14,0,0,1-2.13-2.14V865.8a2.13,2.13,0,0,1,2.13-2.13h11.51V851.82a2.13,2.13,0,0,1,2.14-2.13h6.69a2.13,2.13,0,0,1,2.13,2.13v11.85Z"/></g><g class="cls-2"><path class="cls-3" d="M942.72,960.71A29.82,29.82,0,0,0,918,948.16s-23.11,0-30,20.69a33.62,33.62,0,0,0,1.1,23.33,42.54,42.54,0,0,0,4.32,8c6,8.62,24.54,32.15,24.54,32.15s21.45-29.52,26.18-38.78C949.11,984,949.87,970.53,942.72,960.71ZM917.84,999a19.74,19.74,0,1,1,19.74-19.74A19.59,19.59,0,0,1,917.84,999Z"/><path class="cls-3" d="M928.8,976.94a1.38,1.38,0,0,1,1.38,1.38v4.32A1.38,1.38,0,0,1,928.8,984h-7.73l0,0h0a.05.05,0,0,0,0,0v7.55a1.38,1.38,0,0,1-1.38,1.38h-4.32a1.38,1.38,0,0,1-1.38-1.38v-7.57h-7.44a1.38,1.38,0,0,1-1.38-1.38v-4.33a1.38,1.38,0,0,1,1.38-1.38h7.44v-7.65a1.38,1.38,0,0,1,1.38-1.38h4.32a1.38,1.38,0,0,1,1.38,1.38V977Z"/></g><g class="cls-5"><path class="cls-3" d="M1062.67,980.78a18.32,18.32,0,0,0-15.15-7.69s-14.17,0-18.37,12.69a20.63,20.63,0,0,0,.67,14.31,26.18,26.18,0,0,0,2.65,4.92c3.66,5.28,15,19.72,15,19.72s13.16-18.1,16-23.79C1066.58,995,1067.05,986.81,1062.67,980.78Zm-15.26,23.47a12.11,12.11,0,1,1,12.1-12.1A12,12,0,0,1,1047.41,1004.25Z"/><path class="cls-3" d="M1054.13,990.74a.85.85,0,0,1,.84.85v2.65a.84.84,0,0,1-.84.84h-4.77a0,0,0,0,0,0,0v4.63a.85.85,0,0,1-.85.85h-2.65a.84.84,0,0,1-.84-.85V995.1h-4.57a.84.84,0,0,1-.84-.84v-2.65a.85.85,0,0,1,.84-.85H1045v-4.69a.84.84,0,0,1,.84-.85h2.65a.85.85,0,0,1,.85.85v4.69Z"/></g><g class="cls-5"><path class="cls-3" d="M829.53,889.07a46.17,46.17,0,0,0-38.22-19.41s-35.75,0-46.34,32a52,52,0,0,0,1.7,36.09,66.2,66.2,0,0,0,6.68,12.42c9.23,13.34,38,49.75,38,49.75s33.2-45.67,40.51-60C839.41,925,840.58,904.27,829.53,889.07ZM791,948.27a30.54,30.54,0,1,1,30.54-30.54A30.31,30.31,0,0,1,791,948.27Z"/><path class="cls-3" d="M808,914.18a2.13,2.13,0,0,1,2.13,2.14V923a2.13,2.13,0,0,1-2.13,2.13H796l-.06,0h0a.07.07,0,0,0,0,.06v11.68a2.13,2.13,0,0,1-2.13,2.14h-6.69a2.13,2.13,0,0,1-2.13-2.14V925.19H773.47a2.13,2.13,0,0,1-2.14-2.13v-6.69a2.13,2.13,0,0,1,2.14-2.13H785V902.39a2.13,2.13,0,0,1,2.13-2.13h6.69a2.13,2.13,0,0,1,2.13,2.13v11.85Z"/></g><g class="cls-2"><path class="cls-3" d="M726.76,963.27a29.86,29.86,0,0,0-24.7-12.54s-23.11,0-30,20.69a33.62,33.62,0,0,0,1.1,23.33,42.85,42.85,0,0,0,4.32,8c6,8.61,24.54,32.15,24.54,32.15s21.45-29.52,26.18-38.78C733.14,986.52,733.9,973.1,726.76,963.27Zm-24.89,38.27a19.74,19.74,0,1,1,19.74-19.74A19.59,19.59,0,0,1,701.87,1001.54Z"/><path class="cls-3" d="M712.83,979.51a1.38,1.38,0,0,1,1.38,1.38v4.32a1.38,1.38,0,0,1-1.38,1.38H705.1l0,0h0a.05.05,0,0,0,0,0v7.55a1.38,1.38,0,0,1-1.38,1.38h-4.32A1.38,1.38,0,0,1,698,994.2v-7.58h-7.44a1.38,1.38,0,0,1-1.38-1.38v-4.32a1.38,1.38,0,0,1,1.38-1.38H698v-7.65a1.38,1.38,0,0,1,1.38-1.38h4.32a1.38,1.38,0,0,1,1.38,1.38v7.65Z"/></g><g class="cls-5"><path class="cls-3" d="M871.7,826.35a18.32,18.32,0,0,0-15.15-7.69s-14.17,0-18.37,12.69a20.61,20.61,0,0,0,.67,14.3,25.94,25.94,0,0,0,2.65,4.93c3.66,5.28,15,19.72,15,19.72s13.16-18.11,16.05-23.79C875.61,840.61,876.08,832.38,871.7,826.35Zm-15.26,23.47a12.11,12.11,0,1,1,12.1-12.11A12,12,0,0,1,856.44,849.82Z"/><path class="cls-3" d="M863.16,836.31a.85.85,0,0,1,.84.84v2.66a.85.85,0,0,1-.84.84h-4.77a0,0,0,0,0,0,0v4.63a.85.85,0,0,1-.85.84h-2.65a.85.85,0,0,1-.84-.84v-4.65h-4.57a.85.85,0,0,1-.84-.84v-2.66a.85.85,0,0,1,.84-.84H854v-4.7a.85.85,0,0,1,.84-.84h2.65a.85.85,0,0,1,.85.84v4.7Z"/></g><g class="cls-4"><path class="cls-3" d="M647.47,876.93a46.16,46.16,0,0,0-38.22-19.4s-35.75,0-46.34,32a52,52,0,0,0,1.7,36.1,66.2,66.2,0,0,0,6.68,12.42c9.23,13.33,38,49.75,38,49.75s33.2-45.68,40.51-60C657.35,912.89,658.52,892.13,647.47,876.93ZM609,936.14a30.54,30.54,0,1,1,30.54-30.54A30.31,30.31,0,0,1,609,936.14Z"/><path class="cls-3" d="M625.92,902.05a2.13,2.13,0,0,1,2.14,2.13v6.69a2.14,2.14,0,0,1-2.14,2.14H614l-.06,0h0a.09.09,0,0,0,0,.06v11.69a2.13,2.13,0,0,1-2.13,2.13h-6.69a2.13,2.13,0,0,1-2.14-2.13V913.06H591.4a2.13,2.13,0,0,1-2.13-2.14v-6.68a2.13,2.13,0,0,1,2.13-2.14h11.51V890.26a2.14,2.14,0,0,1,2.14-2.14h6.69a2.13,2.13,0,0,1,2.13,2.14V902.1Z"/></g><g class="cls-2"><path class="cls-3" d="M512.69,825.14A29.8,29.8,0,0,0,488,812.6s-23.11,0-29.95,20.68a33.61,33.61,0,0,0,1.1,23.33,42.54,42.54,0,0,0,4.32,8c6,8.62,24.53,32.16,24.53,32.16s21.46-29.52,26.18-38.79C519.08,848.38,519.84,835,512.69,825.14Zm-24.88,38.27a19.74,19.74,0,1,1,19.74-19.74A19.6,19.6,0,0,1,487.81,863.41Z"/><path class="cls-3" d="M498.77,841.37a1.38,1.38,0,0,1,1.38,1.38v4.33a1.38,1.38,0,0,1-1.38,1.38H491l0,0v7.55a1.38,1.38,0,0,1-1.38,1.38h-4.32a1.37,1.37,0,0,1-1.38-1.38v-7.57h-7.44a1.38,1.38,0,0,1-1.38-1.38v-4.32a1.38,1.38,0,0,1,1.38-1.38h7.44v-7.66a1.38,1.38,0,0,1,1.38-1.38h4.32a1.38,1.38,0,0,1,1.38,1.38v7.66Z"/></g><g class="cls-4"><path class="cls-3" d="M691.64,831.22a18.31,18.31,0,0,0-15.15-7.69s-14.17,0-18.37,12.68a20.63,20.63,0,0,0,.67,14.31,26.18,26.18,0,0,0,2.65,4.92c3.66,5.29,15,19.72,15,19.72s13.16-18.1,16-23.78C695.55,845.47,696,837.24,691.64,831.22Zm-15.26,23.47a12.11,12.11,0,1,1,12.1-12.11A12,12,0,0,1,676.38,854.69Z"/><path class="cls-3" d="M683.1,841.17a.85.85,0,0,1,.84.85v2.65a.85.85,0,0,1-.84.85h-4.77s0,0,0,0v4.63a.85.85,0,0,1-.85.85h-2.65a.84.84,0,0,1-.84-.85v-4.64h-4.57a.85.85,0,0,1-.84-.85V842a.85.85,0,0,1,.84-.85H674V836.5a.84.84,0,0,1,.84-.85h2.65a.85.85,0,0,1,.85.85v4.69Z"/></g><g class="cls-2"><path class="cls-3" d="M91.54,1022.6a46.15,46.15,0,0,0-38.21-19.41s-35.75,0-46.34,32a52,52,0,0,0,1.69,36.09,66.47,66.47,0,0,0,6.68,12.42c9.24,13.34,38,49.75,38,49.75s33.2-45.67,40.5-60C101.43,1058.56,102.6,1037.8,91.54,1022.6Zm-38.49,59.21a30.55,30.55,0,1,1,30.54-30.54A30.31,30.31,0,0,1,53.05,1081.81Z"/><path class="cls-3" d="M70,1047.72a2.13,2.13,0,0,1,2.14,2.13v6.69a2.13,2.13,0,0,1-2.14,2.13H58a.09.09,0,0,0-.07,0h0a.14.14,0,0,0,0,.06v11.68a2.14,2.14,0,0,1-2.14,2.14H49.13a2.14,2.14,0,0,1-2.14-2.14v-11.71H35.48a2.13,2.13,0,0,1-2.13-2.14v-6.69a2.13,2.13,0,0,1,2.13-2.13H47v-11.85a2.13,2.13,0,0,1,2.14-2.13h6.68a2.13,2.13,0,0,1,2.14,2.13v11.85Z"/></g><g class="cls-4"><path class="cls-3" d="M1109.77,1076.81a29.83,29.83,0,0,0-24.7-12.55s-23.11,0-30,20.69a33.61,33.61,0,0,0,1.09,23.33,43.12,43.12,0,0,0,4.32,8c6,8.62,24.54,32.15,24.54,32.15s21.46-29.52,26.18-38.78C1116.16,1100.05,1116.91,1086.63,1109.77,1076.81Zm-24.88,38.27a19.75,19.75,0,1,1,19.74-19.75A19.61,19.61,0,0,1,1084.89,1115.08Z"/><path class="cls-3" d="M1095.85,1093a1.38,1.38,0,0,1,1.38,1.38v4.32a1.38,1.38,0,0,1-1.38,1.38h-7.74l0,0h0a.06.06,0,0,0,0,0v7.55a1.38,1.38,0,0,1-1.38,1.38h-4.33a1.38,1.38,0,0,1-1.38-1.38v-7.57h-7.44a1.38,1.38,0,0,1-1.38-1.38v-4.33a1.38,1.38,0,0,1,1.38-1.38H1081v-7.65a1.38,1.38,0,0,1,1.38-1.38h4.33a1.38,1.38,0,0,1,1.38,1.38v7.65Z"/></g><g class="cls-4"><path class="cls-3" d="M1185.71,1021.88a18.31,18.31,0,0,0-15.15-7.69s-14.17,0-18.36,12.69a20.58,20.58,0,0,0,.67,14.31,26.18,26.18,0,0,0,2.65,4.92c3.66,5.29,15,19.72,15,19.72s13.16-18.1,16.06-23.79C1189.63,1036.14,1190.09,1027.91,1185.71,1021.88Zm-15.26,23.47a12.11,12.11,0,1,1,12.11-12.1A12,12,0,0,1,1170.45,1045.35Z"/><path class="cls-3" d="M1177.17,1031.84a.85.85,0,0,1,.85.85v2.65a.84.84,0,0,1-.85.84h-4.76a0,0,0,0,0,0,0v4.63a.85.85,0,0,1-.85.85h-2.65a.85.85,0,0,1-.85-.85v-4.65h-4.56a.84.84,0,0,1-.85-.84v-2.65a.85.85,0,0,1,.85-.85h4.56v-4.69a.85.85,0,0,1,.85-.85h2.65a.85.85,0,0,1,.85.85v4.69Z"/></g><g class="cls-4"><path class="cls-3" d="M1020.48,1038.46a46.17,46.17,0,0,0-38.21-19.4s-35.76,0-46.34,32a52,52,0,0,0,1.69,36.09,66.79,66.79,0,0,0,6.68,12.42c9.24,13.33,38,49.75,38,49.75s33.2-45.67,40.5-60C1030.37,1074.42,1031.53,1053.66,1020.48,1038.46ZM982,1097.67a30.54,30.54,0,1,1,30.54-30.54A30.3,30.3,0,0,1,982,1097.67Z"/><path class="cls-3" d="M998.94,1063.58a2.14,2.14,0,0,1,2.14,2.14v6.68a2.14,2.14,0,0,1-2.14,2.14H987a.09.09,0,0,0-.07,0h0a.08.08,0,0,0,0,.06v11.68a2.13,2.13,0,0,1-2.14,2.13h-6.69a2.13,2.13,0,0,1-2.13-2.13v-11.72H964.42a2.13,2.13,0,0,1-2.14-2.13v-6.69a2.14,2.14,0,0,1,2.14-2.14h11.51v-11.84a2.14,2.14,0,0,1,2.13-2.14h6.69a2.14,2.14,0,0,1,2.14,2.14v11.84Z"/></g><g class="cls-2"><path class="cls-3" d="M912.71,1112.67a29.85,29.85,0,0,0-24.7-12.54s-23.11,0-30,20.69a33.53,33.53,0,0,0,1.09,23.32,42.81,42.81,0,0,0,4.32,8c6,8.62,24.54,32.16,24.54,32.16s21.46-29.52,26.18-38.79C919.1,1135.91,919.85,1122.5,912.71,1112.67Zm-24.88,38.27a19.74,19.74,0,1,1,19.74-19.74A19.6,19.6,0,0,1,887.83,1150.94Z"/><path class="cls-3" d="M898.79,1128.91a1.38,1.38,0,0,1,1.38,1.38v4.32a1.38,1.38,0,0,1-1.38,1.38h-7.74a0,0,0,0,0,0,0h0a.05.05,0,0,0,0,0v7.55a1.38,1.38,0,0,1-1.38,1.38h-4.32a1.38,1.38,0,0,1-1.38-1.38V1136h-7.44a1.38,1.38,0,0,1-1.38-1.38v-4.32a1.38,1.38,0,0,1,1.38-1.38h7.44v-7.66a1.38,1.38,0,0,1,1.38-1.38h4.32a1.38,1.38,0,0,1,1.38,1.38v7.66Z"/></g><g class="cls-5"><path class="cls-3" d="M1165.65,1135.75a18.29,18.29,0,0,0-15.15-7.69s-14.17,0-18.37,12.68a20.63,20.63,0,0,0,.68,14.31,26.37,26.37,0,0,0,2.64,4.92c3.66,5.29,15,19.72,15,19.72s13.16-18.1,16.06-23.78C1169.57,1150,1170,1141.77,1165.65,1135.75Zm-15.26,23.47a12.11,12.11,0,1,1,12.11-12.11A12,12,0,0,1,1150.39,1159.22Z"/><path class="cls-3" d="M1157.11,1145.71a.84.84,0,0,1,.85.84v2.65a.85.85,0,0,1-.85.85h-4.77v4.65a.84.84,0,0,1-.84.85h-2.65a.85.85,0,0,1-.85-.85v-4.64h-4.56a.85.85,0,0,1-.85-.85v-2.65a.85.85,0,0,1,.85-.84H1148V1141a.84.84,0,0,1,.85-.84h2.65a.83.83,0,0,1,.84.84v4.7Z"/></g><g class="cls-5"><path class="cls-3" d="M772.51,1071a46.17,46.17,0,0,0-38.21-19.4s-35.75,0-46.34,32a52,52,0,0,0,1.69,36.1,66.79,66.79,0,0,0,6.68,12.42c9.24,13.33,38,49.75,38,49.75s33.2-45.68,40.5-60C782.4,1107,783.56,1086.23,772.51,1071ZM734,1130.24a30.54,30.54,0,1,1,30.54-30.54A30.3,30.3,0,0,1,734,1130.24Z"/><path class="cls-3" d="M751,1096.15a2.13,2.13,0,0,1,2.14,2.13V1105a2.14,2.14,0,0,1-2.14,2.14H739l-.07,0h0a.14.14,0,0,0,0,.06v11.69a2.13,2.13,0,0,1-2.14,2.13h-6.69a2.13,2.13,0,0,1-2.13-2.13v-11.72H716.45a2.14,2.14,0,0,1-2.14-2.14v-6.68a2.14,2.14,0,0,1,2.14-2.14H728v-11.84a2.14,2.14,0,0,1,2.13-2.14h6.69a2.14,2.14,0,0,1,2.14,2.14v11.84Z"/></g><g class="cls-2"><path class="cls-3" d="M614.74,1100.24A29.82,29.82,0,0,0,590,1087.7s-23.11,0-29.95,20.68a33.55,33.55,0,0,0,1.09,23.33,43.12,43.12,0,0,0,4.32,8c6,8.62,24.54,32.16,24.54,32.16s21.46-29.52,26.18-38.79C621.13,1123.48,621.88,1110.06,614.74,1100.24Zm-24.88,38.27a19.74,19.74,0,1,1,19.74-19.74A19.6,19.6,0,0,1,589.86,1138.51Z"/><path class="cls-3" d="M600.82,1116.47a1.38,1.38,0,0,1,1.38,1.38v4.33a1.38,1.38,0,0,1-1.38,1.38H593a.06.06,0,0,0,0,0v7.55a1.38,1.38,0,0,1-1.38,1.38h-4.33a1.38,1.38,0,0,1-1.38-1.38v-7.57H578.5a1.38,1.38,0,0,1-1.38-1.38v-4.32a1.38,1.38,0,0,1,1.38-1.38h7.44v-7.66a1.38,1.38,0,0,1,1.38-1.38h4.33a1.38,1.38,0,0,1,1.38,1.38v7.66Z"/></g><g class="cls-5"><path class="cls-3" d="M856.68,1026.32a18.29,18.29,0,0,0-15.15-7.69s-14.17,0-18.36,12.68a20.57,20.57,0,0,0,.67,14.31,26.18,26.18,0,0,0,2.65,4.92c3.65,5.29,15,19.72,15,19.72s13.16-18.1,16.06-23.78C860.6,1040.57,861.06,1032.34,856.68,1026.32Zm-15.26,23.47a12.11,12.11,0,1,1,12.11-12.11A12,12,0,0,1,841.42,1049.79Z"/><path class="cls-3" d="M848.14,1036.27a.85.85,0,0,1,.85.85v2.65a.85.85,0,0,1-.85.85h-4.77v4.65a.84.84,0,0,1-.84.85h-2.65a.85.85,0,0,1-.85-.85v-4.64h-4.56a.85.85,0,0,1-.85-.85v-2.65a.85.85,0,0,1,.85-.85H839v-4.69a.85.85,0,0,1,.85-.85h2.65a.84.84,0,0,1,.84.85v4.69Z"/></g><g class="cls-2"><path class="cls-3" d="M575.68,1008.1A29.85,29.85,0,0,0,551,995.56s-23.11,0-30,20.69a33.56,33.56,0,0,0,1.09,23.33,43.43,43.43,0,0,0,4.32,8c6,8.61,24.54,32.15,24.54,32.15s21.46-29.52,26.18-38.78C582.07,1031.35,582.82,1017.93,575.68,1008.1Zm-24.88,38.27a19.74,19.74,0,1,1,19.74-19.74A19.59,19.59,0,0,1,550.8,1046.37Z"/><path class="cls-3" d="M561.75,1024.34a1.38,1.38,0,0,1,1.38,1.38V1030a1.38,1.38,0,0,1-1.38,1.38H554l0,0h0a.05.05,0,0,0,0,0V1039a1.38,1.38,0,0,1-1.38,1.38h-4.32a1.38,1.38,0,0,1-1.38-1.38v-7.58h-7.44a1.38,1.38,0,0,1-1.38-1.38v-4.32a1.38,1.38,0,0,1,1.38-1.38h7.44v-7.65a1.38,1.38,0,0,1,1.38-1.38h4.32a1.37,1.37,0,0,1,1.38,1.38v7.65Z"/></g><g class="cls-4"><path class="cls-3" d="M648.62,1028.18a18.31,18.31,0,0,0-15.15-7.69s-14.17,0-18.37,12.69a20.61,20.61,0,0,0,.68,14.3,26.44,26.44,0,0,0,2.64,4.93c3.66,5.28,15.05,19.72,15.05,19.72s13.16-18.11,16.06-23.79C652.54,1042.44,653,1034.21,648.62,1028.18Zm-15.26,23.47a12.11,12.11,0,1,1,12.11-12.1A12,12,0,0,1,633.36,1051.65Z"/><path class="cls-3" d="M640.08,1038.14a.85.85,0,0,1,.85.84v2.66a.85.85,0,0,1-.85.84h-4.77v4.66a.85.85,0,0,1-.84.84h-2.65a.85.85,0,0,1-.85-.84v-4.65H626.4a.85.85,0,0,1-.85-.84V1039a.85.85,0,0,1,.85-.84H631v-4.7a.85.85,0,0,1,.85-.84h2.65a.85.85,0,0,1,.84.84v4.7Z"/></g><g class="cls-2"><path class="cls-3" d="M97.54,812.6a46.15,46.15,0,0,0-38.21-19.41s-35.75,0-46.34,32a52,52,0,0,0,1.69,36.09,66.47,66.47,0,0,0,6.68,12.42c9.24,13.34,38,49.75,38,49.75s33.2-45.67,40.5-60C107.43,848.56,108.6,827.8,97.54,812.6ZM59.05,871.81a30.55,30.55,0,1,1,30.54-30.54A30.31,30.31,0,0,1,59.05,871.81Z"/><path class="cls-3" d="M76,837.72a2.13,2.13,0,0,1,2.14,2.13v6.69A2.13,2.13,0,0,1,76,848.67H64a.09.09,0,0,0-.07,0h0a.14.14,0,0,0,0,.06v11.68a2.14,2.14,0,0,1-2.14,2.14H55.13A2.14,2.14,0,0,1,53,860.44V848.73H41.48a2.13,2.13,0,0,1-2.13-2.14V839.9a2.13,2.13,0,0,1,2.13-2.13H53V825.92a2.13,2.13,0,0,1,2.14-2.13h6.68A2.13,2.13,0,0,1,64,825.92v11.85Z"/></g><g class="cls-4"><path class="cls-3" d="M1136.77,666.81a29.83,29.83,0,0,0-24.7-12.55s-23.11,0-30,20.69a33.61,33.61,0,0,0,1.09,23.33,43.12,43.12,0,0,0,4.32,8c6,8.62,24.54,32.15,24.54,32.15s21.46-29.52,26.18-38.78C1143.16,690.05,1143.91,676.63,1136.77,666.81Zm-24.88,38.27a19.75,19.75,0,1,1,19.74-19.75A19.61,19.61,0,0,1,1111.89,705.08Z"/><path class="cls-3" d="M1122.85,683a1.38,1.38,0,0,1,1.38,1.38v4.32a1.38,1.38,0,0,1-1.38,1.38h-7.74l0,0h0a.06.06,0,0,0,0,0v7.55a1.38,1.38,0,0,1-1.38,1.38h-4.33a1.38,1.38,0,0,1-1.38-1.38v-7.57h-7.44a1.38,1.38,0,0,1-1.38-1.38v-4.33a1.38,1.38,0,0,1,1.38-1.38H1108v-7.65a1.38,1.38,0,0,1,1.38-1.38h4.33a1.38,1.38,0,0,1,1.38,1.38v7.65Z"/></g><g class="cls-4"><path class="cls-3" d="M1182.71,616.88a18.31,18.31,0,0,0-15.15-7.69s-14.17,0-18.36,12.69a20.58,20.58,0,0,0,.67,14.31,26.18,26.18,0,0,0,2.65,4.92c3.66,5.29,15,19.72,15,19.72s13.16-18.1,16.06-23.79C1186.63,631.14,1187.09,622.91,1182.71,616.88Zm-15.26,23.47a12.11,12.11,0,1,1,12.11-12.1A12,12,0,0,1,1167.45,640.35Z"/><path class="cls-3" d="M1174.17,626.84a.85.85,0,0,1,.85.85v2.65a.84.84,0,0,1-.85.84h-4.76a0,0,0,0,0,0,0v4.63a.85.85,0,0,1-.85.85h-2.65a.85.85,0,0,1-.85-.85V631.2h-4.56a.84.84,0,0,1-.85-.84v-2.65a.85.85,0,0,1,.85-.85h4.56v-4.69a.85.85,0,0,1,.85-.85h2.65a.85.85,0,0,1,.85.85v4.69Z"/></g><g class="cls-4"><path class="cls-3" d="M1047.48,628.46a46.17,46.17,0,0,0-38.21-19.4s-35.76,0-46.34,32a52,52,0,0,0,1.69,36.09,66.79,66.79,0,0,0,6.68,12.42c9.24,13.33,38,49.75,38,49.75s33.2-45.67,40.5-60C1057.37,664.42,1058.53,643.66,1047.48,628.46ZM1009,687.67a30.54,30.54,0,1,1,30.54-30.54A30.3,30.3,0,0,1,1009,687.67Z"/><path class="cls-3" d="M1025.94,653.58a2.14,2.14,0,0,1,2.14,2.14v6.68a2.14,2.14,0,0,1-2.14,2.14h-12a.09.09,0,0,0-.07,0h0a.08.08,0,0,0,0,.06v11.68a2.13,2.13,0,0,1-2.14,2.13h-6.69a2.13,2.13,0,0,1-2.13-2.13V664.59H991.42a2.13,2.13,0,0,1-2.14-2.13v-6.69a2.14,2.14,0,0,1,2.14-2.14h11.51V641.79a2.14,2.14,0,0,1,2.13-2.14h6.69a2.14,2.14,0,0,1,2.14,2.14v11.84Z"/></g><g class="cls-2"><path class="cls-3" d="M954.71,750.67A29.85,29.85,0,0,0,930,738.13s-23.11,0-30,20.69a33.53,33.53,0,0,0,1.09,23.32,42.81,42.81,0,0,0,4.32,8c6,8.62,24.54,32.16,24.54,32.16s21.46-29.52,26.18-38.79C961.1,773.91,961.85,760.5,954.71,750.67Zm-24.88,38.27a19.74,19.74,0,1,1,19.74-19.74A19.6,19.6,0,0,1,929.83,788.94Z"/><path class="cls-3" d="M940.79,766.91a1.38,1.38,0,0,1,1.38,1.38v4.32a1.38,1.38,0,0,1-1.38,1.38h-7.74a0,0,0,0,0,0,0h0a.05.05,0,0,0,0,0v7.55a1.38,1.38,0,0,1-1.38,1.38h-4.32a1.38,1.38,0,0,1-1.38-1.38V774h-7.44a1.38,1.38,0,0,1-1.38-1.38v-4.32a1.38,1.38,0,0,1,1.38-1.38h7.44v-7.66a1.38,1.38,0,0,1,1.38-1.38h4.32a1.38,1.38,0,0,1,1.38,1.38v7.66Z"/></g><g class="cls-5"><path class="cls-3" d="M1074.65,770.75a18.29,18.29,0,0,0-15.15-7.69s-14.17,0-18.37,12.68a20.63,20.63,0,0,0,.68,14.31,26.37,26.37,0,0,0,2.64,4.92c3.66,5.29,15,19.72,15,19.72s13.16-18.1,16.06-23.78C1078.57,785,1079,776.77,1074.65,770.75Zm-15.26,23.47a12.11,12.11,0,1,1,12.11-12.11A12,12,0,0,1,1059.39,794.22Z"/><path class="cls-3" d="M1066.11,780.71a.84.84,0,0,1,.85.84v2.65a.85.85,0,0,1-.85.85h-4.77s0,0,0,0v4.63a.84.84,0,0,1-.84.85h-2.65a.85.85,0,0,1-.85-.85v-4.64h-4.56a.85.85,0,0,1-.85-.85v-2.65a.85.85,0,0,1,.85-.84H1057V776a.84.84,0,0,1,.85-.84h2.65a.83.83,0,0,1,.84.84v4.7Z"/></g><g class="cls-5"><path class="cls-3" d="M841.51,679a46.17,46.17,0,0,0-38.21-19.4s-35.75,0-46.34,32a52,52,0,0,0,1.69,36.1,66.79,66.79,0,0,0,6.68,12.42c9.24,13.33,38,49.75,38,49.75s33.2-45.68,40.5-60C851.4,715,852.56,694.23,841.51,679ZM803,738.24a30.54,30.54,0,1,1,30.54-30.54A30.3,30.3,0,0,1,803,738.24Z"/><path class="cls-3" d="M820,704.15a2.13,2.13,0,0,1,2.14,2.13V713a2.14,2.14,0,0,1-2.14,2.14H808l-.07,0h0a.14.14,0,0,0,0,.06v11.69a2.13,2.13,0,0,1-2.14,2.13h-6.69a2.13,2.13,0,0,1-2.13-2.13V715.16H785.45a2.14,2.14,0,0,1-2.14-2.14v-6.68a2.14,2.14,0,0,1,2.14-2.14H797V692.36a2.14,2.14,0,0,1,2.13-2.14h6.69a2.14,2.14,0,0,1,2.14,2.14V704.2Z"/></g><g class="cls-2"><path class="cls-3" d="M738.74,753.24A29.82,29.82,0,0,0,714,740.7s-23.11,0-29.95,20.68a33.55,33.55,0,0,0,1.09,23.33,43.12,43.12,0,0,0,4.32,8c6,8.62,24.54,32.16,24.54,32.16s21.46-29.52,26.18-38.79C745.13,776.48,745.88,763.06,738.74,753.24Zm-24.88,38.27a19.74,19.74,0,1,1,19.74-19.74A19.6,19.6,0,0,1,713.86,791.51Z"/><path class="cls-3" d="M724.82,769.47a1.38,1.38,0,0,1,1.38,1.38v4.33a1.38,1.38,0,0,1-1.38,1.38H717a.06.06,0,0,0,0,0v7.55a1.38,1.38,0,0,1-1.38,1.38h-4.33a1.38,1.38,0,0,1-1.38-1.38v-7.57H702.5a1.38,1.38,0,0,1-1.38-1.38v-4.32a1.38,1.38,0,0,1,1.38-1.38h7.44v-7.66a1.38,1.38,0,0,1,1.38-1.38h4.33a1.38,1.38,0,0,1,1.38,1.38v7.66Z"/></g><g class="cls-5"><path class="cls-3" d="M883.68,616.32a18.29,18.29,0,0,0-15.15-7.69s-14.17,0-18.36,12.68a20.57,20.57,0,0,0,.67,14.31,26.18,26.18,0,0,0,2.65,4.92c3.65,5.29,15,19.72,15,19.72s13.16-18.1,16.06-23.78C887.6,630.57,888.06,622.34,883.68,616.32Zm-15.26,23.47a12.11,12.11,0,1,1,12.11-12.11A12,12,0,0,1,868.42,639.79Z"/><path class="cls-3" d="M875.14,626.27a.85.85,0,0,1,.85.85v2.65a.85.85,0,0,1-.85.85h-4.77v4.65a.84.84,0,0,1-.84.85h-2.65a.85.85,0,0,1-.85-.85v-4.64h-4.56a.85.85,0,0,1-.85-.85v-2.65a.85.85,0,0,1,.85-.85H866V621.6a.85.85,0,0,1,.85-.85h2.65a.84.84,0,0,1,.84.85v4.69Z"/></g><g class="cls-4"><path class="cls-3" d="M628.45,682.9a46.15,46.15,0,0,0-38.21-19.41s-35.76,0-46.34,32a52,52,0,0,0,1.69,36.09A66.79,66.79,0,0,0,552.27,744c9.23,13.34,38,49.75,38,49.75s33.2-45.67,40.5-60C638.34,718.86,639.5,698.1,628.45,682.9ZM590,742.1a30.54,30.54,0,1,1,30.54-30.54A30.32,30.32,0,0,1,590,742.1Z"/><path class="cls-3" d="M606.91,708a2.13,2.13,0,0,1,2.13,2.14v6.69a2.13,2.13,0,0,1-2.13,2.13h-12l-.06,0h0a.11.11,0,0,0,0,.06v11.68a2.14,2.14,0,0,1-2.14,2.14H586a2.13,2.13,0,0,1-2.13-2.14V719H572.39a2.13,2.13,0,0,1-2.14-2.13V710.2a2.13,2.13,0,0,1,2.14-2.13H583.9V696.22a2.13,2.13,0,0,1,2.13-2.13h6.69a2.13,2.13,0,0,1,2.14,2.13v11.85Z"/></g><g class="cls-2"><path class="cls-3" d="M524.68,615.1A29.85,29.85,0,0,0,500,602.56s-23.11,0-30,20.69a33.56,33.56,0,0,0,1.09,23.33,43.43,43.43,0,0,0,4.32,8c6,8.61,24.54,32.15,24.54,32.15s21.46-29.52,26.18-38.78C531.07,638.35,531.82,624.93,524.68,615.1ZM499.8,653.37a19.74,19.74,0,1,1,19.74-19.74A19.59,19.59,0,0,1,499.8,653.37Z"/><path class="cls-3" d="M510.75,631.34a1.38,1.38,0,0,1,1.38,1.38V637a1.38,1.38,0,0,1-1.38,1.38H503l0,0h0a.05.05,0,0,0,0,0V646a1.38,1.38,0,0,1-1.38,1.38h-4.32a1.38,1.38,0,0,1-1.38-1.38v-7.58h-7.44a1.38,1.38,0,0,1-1.38-1.38v-4.32a1.38,1.38,0,0,1,1.38-1.38h7.44v-7.65a1.38,1.38,0,0,1,1.38-1.38h4.32a1.37,1.37,0,0,1,1.38,1.38v7.65Z"/></g><g class="cls-4"><path class="cls-3" d="M703.62,621.18a18.31,18.31,0,0,0-15.15-7.69s-14.17,0-18.37,12.69a20.61,20.61,0,0,0,.68,14.3,26.44,26.44,0,0,0,2.64,4.93c3.66,5.28,15.05,19.72,15.05,19.72s13.16-18.11,16.06-23.79C707.54,635.44,708,627.21,703.62,621.18Zm-15.26,23.47a12.11,12.11,0,1,1,12.11-12.1A12,12,0,0,1,688.36,644.65Z"/><path class="cls-3" d="M695.08,631.14a.85.85,0,0,1,.85.84v2.66a.85.85,0,0,1-.85.84h-4.77v4.66a.85.85,0,0,1-.84.84h-2.65a.85.85,0,0,1-.85-.84V635.5H681.4a.85.85,0,0,1-.85-.84V632a.85.85,0,0,1,.85-.84H686v-4.7a.85.85,0,0,1,.85-.84h2.65a.85.85,0,0,1,.84.84v4.7Z"/></g><g class="cls-2"><path class="cls-3" d="M455.92,909.56a46.17,46.17,0,0,0-38.22-19.41s-35.75,0-46.34,32a52,52,0,0,0,1.7,36.09,66.2,66.2,0,0,0,6.68,12.42c9.23,13.34,38,49.75,38,49.75s33.2-45.67,40.51-60C465.8,945.52,467,924.76,455.92,909.56Zm-38.5,59.2A30.54,30.54,0,1,1,448,938.22,30.31,30.31,0,0,1,417.42,968.76Z"/><path class="cls-3" d="M434.37,934.67a2.14,2.14,0,0,1,2.14,2.14v6.69a2.13,2.13,0,0,1-2.14,2.13h-12a.07.07,0,0,0-.06,0h0a.07.07,0,0,0,0,.06V957.4a2.13,2.13,0,0,1-2.13,2.14H413.5a2.14,2.14,0,0,1-2.14-2.14V945.68H399.85a2.13,2.13,0,0,1-2.13-2.13v-6.69a2.13,2.13,0,0,1,2.13-2.13h11.51V922.88a2.13,2.13,0,0,1,2.14-2.13h6.69a2.13,2.13,0,0,1,2.13,2.13v11.85Z"/></g><g class="cls-4"><path class="cls-3" d="M326.14,865.76a29.85,29.85,0,0,0-24.7-12.54s-23.11,0-29.95,20.69a33.62,33.62,0,0,0,1.1,23.33,42.85,42.85,0,0,0,4.32,8c6,8.62,24.53,32.15,24.53,32.15s21.46-29.52,26.18-38.78C332.53,889,333.29,875.59,326.14,865.76ZM301.26,904A19.74,19.74,0,1,1,321,884.29,19.59,19.59,0,0,1,301.26,904Z"/><path class="cls-3" d="M312.22,882a1.38,1.38,0,0,1,1.38,1.38v4.32a1.38,1.38,0,0,1-1.38,1.38h-7.73l0,0h0a.05.05,0,0,0,0,0v7.55a1.38,1.38,0,0,1-1.38,1.38h-4.32a1.38,1.38,0,0,1-1.38-1.38v-7.58h-7.44a1.37,1.37,0,0,1-1.38-1.38v-4.32a1.38,1.38,0,0,1,1.38-1.38h7.44v-7.65a1.37,1.37,0,0,1,1.38-1.38h4.32a1.38,1.38,0,0,1,1.38,1.38V882Z"/></g><g class="cls-4"><path class="cls-3" d="M402.08,810.84a18.31,18.31,0,0,0-15.14-7.69s-14.17,0-18.37,12.69a20.55,20.55,0,0,0,.67,14.3,25.94,25.94,0,0,0,2.65,4.93c3.66,5.28,15.05,19.72,15.05,19.72S400.1,836.68,403,831C406,825.1,406.47,816.87,402.08,810.84Zm-15.25,23.47a12.11,12.11,0,1,1,12.1-12.1A12,12,0,0,1,386.83,834.31Z"/><path class="cls-3" d="M393.55,820.8a.85.85,0,0,1,.84.85v2.65a.85.85,0,0,1-.84.84h-4.77a0,0,0,0,0,0,0v4.63a.85.85,0,0,1-.85.84h-2.65a.85.85,0,0,1-.85-.84v-4.65h-4.56a.85.85,0,0,1-.84-.84v-2.65a.85.85,0,0,1,.84-.85h4.56v-4.7a.85.85,0,0,1,.85-.84h2.65a.85.85,0,0,1,.85.84v4.7Z"/></g><g class="cls-4"><path class="cls-3" d="M236.86,827.42A46.2,46.2,0,0,0,198.64,808s-35.75,0-46.34,32a52,52,0,0,0,1.7,36.1,65.63,65.63,0,0,0,6.68,12.42c9.23,13.33,38,49.75,38,49.75s33.2-45.67,40.51-60C246.74,863.38,247.91,842.62,236.86,827.42Zm-38.5,59.21a30.54,30.54,0,1,1,30.54-30.54A30.31,30.31,0,0,1,198.36,886.63Z"/><path class="cls-3" d="M215.31,852.54a2.14,2.14,0,0,1,2.14,2.13v6.69a2.14,2.14,0,0,1-2.14,2.14h-12l-.06,0h0a.09.09,0,0,0,0,.07v11.68a2.13,2.13,0,0,1-2.13,2.13h-6.69a2.13,2.13,0,0,1-2.14-2.13V863.55H180.79a2.13,2.13,0,0,1-2.13-2.14v-6.68a2.13,2.13,0,0,1,2.13-2.14H192.3V840.75a2.14,2.14,0,0,1,2.14-2.14h6.69a2.14,2.14,0,0,1,2.13,2.14v11.84Z"/></g><g class="cls-2"><path class="cls-3" d="M144.08,949.63a29.82,29.82,0,0,0-24.7-12.54s-23.11,0-29.95,20.68a33.61,33.61,0,0,0,1.1,23.33,42.46,42.46,0,0,0,4.31,8c6,8.62,24.54,32.16,24.54,32.16s21.46-29.52,26.18-38.79C150.47,972.87,151.23,959.45,144.08,949.63ZM119.2,987.9a19.74,19.74,0,1,1,19.74-19.74A19.6,19.6,0,0,1,119.2,987.9Z"/><path class="cls-3" d="M130.16,965.86a1.38,1.38,0,0,1,1.38,1.38v4.33a1.38,1.38,0,0,1-1.38,1.38h-7.78a.06.06,0,0,0,0,0v7.55a1.38,1.38,0,0,1-1.38,1.38h-4.32a1.37,1.37,0,0,1-1.38-1.38V973h-7.44a1.38,1.38,0,0,1-1.38-1.38v-4.32a1.37,1.37,0,0,1,1.38-1.38h7.44v-7.66a1.38,1.38,0,0,1,1.38-1.38H121a1.38,1.38,0,0,1,1.38,1.38v7.66Z"/></g><g class="cls-5"><path class="cls-3" d="M264,969.71A18.28,18.28,0,0,0,248.88,962s-14.18,0-18.37,12.68a20.57,20.57,0,0,0,.67,14.31,26.18,26.18,0,0,0,2.65,4.92c3.66,5.29,15,19.72,15,19.72s13.16-18.1,16.05-23.78C267.94,984,268.4,975.73,264,969.71Zm-15.26,23.47a12.11,12.11,0,1,1,12.11-12.11A12,12,0,0,1,248.76,993.18Z"/><path class="cls-3" d="M255.48,979.66a.85.85,0,0,1,.85.85v2.65a.85.85,0,0,1-.85.85h-4.76s0,0,0,0v4.63a.85.85,0,0,1-.85.85h-2.65a.85.85,0,0,1-.85-.85V984H241.8a.84.84,0,0,1-.84-.85v-2.65a.84.84,0,0,1,.84-.85h4.56V975a.85.85,0,0,1,.85-.85h2.65a.85.85,0,0,1,.85.85v4.69Z"/></g><g class="cls-2"><path class="cls-3" d="M497.9,1058.52a46.17,46.17,0,0,0-38.21-19.4s-35.76,0-46.34,32a52,52,0,0,0,1.69,36.1,66.79,66.79,0,0,0,6.68,12.42c9.23,13.33,38,49.75,38,49.75s33.2-45.67,40.5-60C507.79,1094.48,509,1073.72,497.9,1058.52Zm-38.49,59.21A30.54,30.54,0,1,1,490,1087.19,30.32,30.32,0,0,1,459.41,1117.73Z"/><path class="cls-3" d="M476.36,1083.64a2.13,2.13,0,0,1,2.13,2.13v6.69a2.13,2.13,0,0,1-2.13,2.14h-12l-.06,0h0a.14.14,0,0,0,0,.07v11.68a2.13,2.13,0,0,1-2.14,2.13h-6.69a2.13,2.13,0,0,1-2.13-2.13v-11.72H441.84a2.14,2.14,0,0,1-2.14-2.14v-6.68a2.14,2.14,0,0,1,2.14-2.14h11.51v-11.84a2.13,2.13,0,0,1,2.13-2.14h6.69a2.14,2.14,0,0,1,2.14,2.14v11.84Z"/></g><g class="cls-4"><path class="cls-3" d="M311.13,1065.73a29.82,29.82,0,0,0-24.7-12.54s-23.11,0-29.95,20.68a33.55,33.55,0,0,0,1.09,23.33,43.12,43.12,0,0,0,4.32,8c6,8.62,24.54,32.16,24.54,32.16s21.46-29.52,26.18-38.79C317.52,1089,318.27,1075.55,311.13,1065.73ZM286.25,1104A19.74,19.74,0,1,1,306,1084.26,19.6,19.6,0,0,1,286.25,1104Z"/><path class="cls-3" d="M297.2,1082a1.38,1.38,0,0,1,1.38,1.38v4.33a1.38,1.38,0,0,1-1.38,1.38h-7.77l0,0v7.55A1.37,1.37,0,0,1,288,1098h-4.32a1.38,1.38,0,0,1-1.38-1.38v-7.57h-7.44a1.38,1.38,0,0,1-1.38-1.38v-4.32a1.38,1.38,0,0,1,1.38-1.38h7.44v-7.66a1.38,1.38,0,0,1,1.38-1.38H288a1.38,1.38,0,0,1,1.38,1.38V1082Z"/></g><g class="cls-4"><path class="cls-3" d="M387.07,1010.81a18.29,18.29,0,0,0-15.15-7.69s-14.17,0-18.37,12.68a20.63,20.63,0,0,0,.68,14.31,26.69,26.69,0,0,0,2.64,4.92c3.66,5.29,15.05,19.72,15.05,19.72s13.16-18.1,16.06-23.78C391,1025.06,391.45,1016.83,387.07,1010.81Zm-15.26,23.47a12.11,12.11,0,1,1,12.11-12.11A12,12,0,0,1,371.81,1034.28Z"/><path class="cls-3" d="M378.53,1020.76a.85.85,0,0,1,.85.85v2.65a.85.85,0,0,1-.85.85h-4.77v4.65a.85.85,0,0,1-.84.85h-2.65a.85.85,0,0,1-.85-.85v-4.64h-4.56a.85.85,0,0,1-.85-.85v-2.65a.85.85,0,0,1,.85-.85h4.56v-4.69a.85.85,0,0,1,.85-.85h2.65a.85.85,0,0,1,.84.85v4.69Z"/></g><g class="cls-4"><path class="cls-3" d="M221.84,1027.39A46.15,46.15,0,0,0,183.63,1008s-35.76,0-46.35,32a52,52,0,0,0,1.7,36.09,66.2,66.2,0,0,0,6.68,12.42c9.23,13.34,38,49.75,38,49.75s33.19-45.67,40.5-60C231.72,1063.35,232.89,1042.59,221.84,1027.39Zm-38.5,59.2a30.54,30.54,0,1,1,30.54-30.54A30.31,30.31,0,0,1,183.34,1086.59Z"/><path class="cls-3" d="M200.3,1052.5a2.13,2.13,0,0,1,2.13,2.14v6.69a2.13,2.13,0,0,1-2.13,2.13h-12l-.06,0h0s0,0,0,.06v11.68a2.14,2.14,0,0,1-2.14,2.14h-6.69a2.13,2.13,0,0,1-2.13-2.14v-11.72H165.78a2.13,2.13,0,0,1-2.14-2.13v-6.69a2.13,2.13,0,0,1,2.14-2.13h11.51v-11.85a2.13,2.13,0,0,1,2.13-2.13h6.69a2.13,2.13,0,0,1,2.14,2.13v11.85Z"/></g><g class="cls-2"><path class="cls-3" d="M143.4,1103.94a29.85,29.85,0,0,0-24.7-12.54s-23.11,0-29.95,20.69a33.56,33.56,0,0,0,1.1,23.33,42.77,42.77,0,0,0,4.31,8c6,8.61,24.54,32.15,24.54,32.15s21.46-29.52,26.18-38.78C149.79,1127.19,150.54,1113.77,143.4,1103.94Zm-24.88,38.27a19.74,19.74,0,1,1,19.74-19.74A19.59,19.59,0,0,1,118.52,1142.21Z"/><path class="cls-3" d="M129.48,1120.18a1.38,1.38,0,0,1,1.38,1.38v4.32a1.38,1.38,0,0,1-1.38,1.38h-7.74l0,0h0s0,0,0,0v7.55a1.38,1.38,0,0,1-1.38,1.38H116a1.38,1.38,0,0,1-1.38-1.38v-7.58h-7.44a1.38,1.38,0,0,1-1.38-1.38v-4.32a1.38,1.38,0,0,1,1.38-1.38h7.44v-7.65a1.38,1.38,0,0,1,1.38-1.38h4.33a1.38,1.38,0,0,1,1.38,1.38v7.65Z"/></g><g class="cls-5"><path class="cls-3" d="M362,1114.67a18.32,18.32,0,0,0-15.15-7.69s-14.17,0-18.37,12.69a20.61,20.61,0,0,0,.68,14.3,25.87,25.87,0,0,0,2.64,4.93c3.66,5.28,15.05,19.72,15.05,19.72s13.16-18.11,16.06-23.79C365.93,1128.93,366.39,1120.7,362,1114.67Zm-15.26,23.47a12.11,12.11,0,1,1,12.1-12.1A12,12,0,0,1,346.75,1138.14Z"/><path class="cls-3" d="M353.47,1124.63a.85.85,0,0,1,.85.85v2.65a.85.85,0,0,1-.85.84H348.7v4.66a.84.84,0,0,1-.84.84h-2.66a.84.84,0,0,1-.84-.84V1129h-4.56a.85.85,0,0,1-.85-.84v-2.65a.85.85,0,0,1,.85-.85h4.56V1120a.85.85,0,0,1,.84-.84h2.66a.85.85,0,0,1,.84.84v4.7Z"/></g><g class="cls-2"><path class="cls-3" d="M467.9,699.52a46.17,46.17,0,0,0-38.21-19.4s-35.76,0-46.34,32a52,52,0,0,0,1.69,36.1,66.79,66.79,0,0,0,6.68,12.42c9.23,13.33,38,49.75,38,49.75s33.2-45.67,40.5-60C477.79,735.48,479,714.72,467.9,699.52Zm-38.49,59.21A30.54,30.54,0,1,1,460,728.19,30.32,30.32,0,0,1,429.41,758.73Z"/><path class="cls-3" d="M446.36,724.64a2.13,2.13,0,0,1,2.13,2.13v6.69a2.13,2.13,0,0,1-2.13,2.14h-12l-.06,0h0a.14.14,0,0,0,0,.07v11.68a2.13,2.13,0,0,1-2.14,2.13h-6.69a2.13,2.13,0,0,1-2.13-2.13V735.65H411.84a2.14,2.14,0,0,1-2.14-2.14v-6.68a2.14,2.14,0,0,1,2.14-2.14h11.51V712.85a2.13,2.13,0,0,1,2.13-2.14h6.69a2.14,2.14,0,0,1,2.14,2.14v11.84Z"/></g><g class="cls-4"><path class="cls-3" d="M338.13,655.73a29.82,29.82,0,0,0-24.7-12.54s-23.11,0-29.95,20.68a33.55,33.55,0,0,0,1.09,23.33,43.12,43.12,0,0,0,4.32,8c6,8.62,24.54,32.16,24.54,32.16s21.46-29.52,26.18-38.79C344.52,679,345.27,665.55,338.13,655.73ZM313.25,694A19.74,19.74,0,1,1,333,674.26,19.6,19.6,0,0,1,313.25,694Z"/><path class="cls-3" d="M324.2,672a1.38,1.38,0,0,1,1.38,1.38v4.33a1.38,1.38,0,0,1-1.38,1.38h-7.77l0,0v7.55A1.37,1.37,0,0,1,315,688h-4.32a1.38,1.38,0,0,1-1.38-1.38v-7.57h-7.44a1.38,1.38,0,0,1-1.38-1.38v-4.32a1.38,1.38,0,0,1,1.38-1.38h7.44v-7.66a1.38,1.38,0,0,1,1.38-1.38H315a1.38,1.38,0,0,1,1.38,1.38V672Z"/></g><g class="cls-4"><path class="cls-3" d="M414.07,600.81a18.29,18.29,0,0,0-15.15-7.69s-14.17,0-18.37,12.68a20.63,20.63,0,0,0,.68,14.31,26.69,26.69,0,0,0,2.64,4.92c3.66,5.29,15.05,19.72,15.05,19.72S412.08,626.65,415,621C418,615.06,418.45,606.83,414.07,600.81Zm-15.26,23.47a12.11,12.11,0,1,1,12.11-12.11A12,12,0,0,1,398.81,624.28Z"/><path class="cls-3" d="M405.53,610.76a.85.85,0,0,1,.85.85v2.65a.85.85,0,0,1-.85.85h-4.77v4.65a.85.85,0,0,1-.84.85h-2.65a.85.85,0,0,1-.85-.85v-4.64h-4.56a.85.85,0,0,1-.85-.85v-2.65a.85.85,0,0,1,.85-.85h4.56v-4.69a.85.85,0,0,1,.85-.85h2.65a.85.85,0,0,1,.84.85v4.69Z"/></g><g class="cls-4"><path class="cls-3" d="M248.84,617.39A46.15,46.15,0,0,0,210.63,598s-35.76,0-46.35,32a52,52,0,0,0,1.7,36.09,66.2,66.2,0,0,0,6.68,12.42c9.23,13.34,38,49.75,38,49.75s33.19-45.67,40.5-60C258.72,653.35,259.89,632.59,248.84,617.39Zm-38.5,59.2a30.54,30.54,0,1,1,30.54-30.54A30.31,30.31,0,0,1,210.34,676.59Z"/><path class="cls-3" d="M227.3,642.5a2.13,2.13,0,0,1,2.13,2.14v6.69a2.13,2.13,0,0,1-2.13,2.13h-12l-.06,0h0s0,0,0,.06v11.68a2.14,2.14,0,0,1-2.14,2.14h-6.69a2.13,2.13,0,0,1-2.13-2.14V653.51H192.78a2.13,2.13,0,0,1-2.14-2.13v-6.69a2.13,2.13,0,0,1,2.14-2.13h11.51V630.71a2.13,2.13,0,0,1,2.13-2.13h6.69a2.13,2.13,0,0,1,2.14,2.13v11.85Z"/></g><g class="cls-2"><path class="cls-3" d="M156.07,739.59a29.86,29.86,0,0,0-24.7-12.54s-23.11,0-30,20.69a33.62,33.62,0,0,0,1.1,23.33,43.12,43.12,0,0,0,4.32,8c6,8.62,24.54,32.15,24.54,32.15s21.45-29.52,26.18-38.78C162.46,762.84,163.21,749.42,156.07,739.59Zm-24.89,38.27a19.74,19.74,0,1,1,19.75-19.74A19.59,19.59,0,0,1,131.18,777.86Z"/><path class="cls-3" d="M142.14,755.83a1.38,1.38,0,0,1,1.38,1.38v4.32a1.38,1.38,0,0,1-1.38,1.38h-7.73l0,0h0a.05.05,0,0,0,0,0v7.55A1.38,1.38,0,0,1,133,771.9h-4.32a1.38,1.38,0,0,1-1.38-1.38v-7.58h-7.44a1.38,1.38,0,0,1-1.38-1.38v-4.32a1.38,1.38,0,0,1,1.38-1.38h7.44v-7.65a1.38,1.38,0,0,1,1.38-1.38H133a1.37,1.37,0,0,1,1.38,1.38v7.65Z"/></g><g class="cls-5"><path class="cls-3" d="M276,759.67A18.32,18.32,0,0,0,260.86,752s-14.17,0-18.37,12.69a20.61,20.61,0,0,0,.68,14.3,25.87,25.87,0,0,0,2.64,4.93c3.66,5.28,15.05,19.72,15.05,19.72s13.16-18.11,16.06-23.79C279.93,773.93,280.39,765.7,276,759.67Zm-15.26,23.47a12.11,12.11,0,1,1,12.1-12.1A12,12,0,0,1,260.75,783.14Z"/><path class="cls-3" d="M267.47,769.63a.85.85,0,0,1,.85.85v2.65a.85.85,0,0,1-.85.84H262.7v4.66a.84.84,0,0,1-.84.84h-2.66a.84.84,0,0,1-.84-.84V774h-4.56a.85.85,0,0,1-.85-.84V770.5a.85.85,0,0,1,.85-.85h4.56V765a.85.85,0,0,1,.84-.84h2.66a.85.85,0,0,1,.84.84v4.7Z"/></g></g></g></g></g></svg>