<svg width="16" height="16" viewBox="0 0 16 16" fill="none" xmlns="http://www.w3.org/2000/svg">
<path fill-rule="evenodd" clip-rule="evenodd" d="M0.623618 0.289357C0.959524 0.0648109 1.34903 0 1.65283 0H4.46476C5.28233 0 5.95505 0.672719 5.95505 1.49029C5.95505 2.41929 6.09853 3.31296 6.37497 4.14227L6.37871 4.15349C6.54074 4.66903 6.42266 5.24958 6.023 5.66404L5.99958 5.68833L4.80325 6.70675C5.83475 8.58186 7.52629 10.2239 9.35701 11.2224L10.3079 10.0293L10.3352 10.002C10.7352 9.602 11.3225 9.46046 11.8569 9.641C12.6919 9.91131 13.5862 10.0612 14.5097 10.0612C15.3273 10.0612 16 10.7339 16 11.5515V14.3553C16 14.6804 15.9197 15.0685 15.6897 15.3963C15.4401 15.752 15.0349 16 14.5097 16C6.58943 16 0 9.41923 0 1.49029C0 0.950366 0.251551 0.538076 0.623618 0.289357ZM1.37746 1.43572C1.3754 1.44204 1.37143 1.4586 1.37143 1.49029C1.37143 8.66128 7.34632 14.6286 14.5097 14.6286C14.5377 14.6286 14.5508 14.6246 14.5545 14.6232C14.556 14.622 14.5604 14.6181 14.5671 14.6086C14.579 14.5916 14.5952 14.5606 14.6083 14.5126C14.6214 14.4651 14.6286 14.4105 14.6286 14.3553V11.5515C14.6286 11.5258 14.618 11.4959 14.5917 11.4695C14.5654 11.4432 14.5354 11.4326 14.5097 11.4326C13.4357 11.4326 12.3972 11.258 11.4293 10.9441L11.4185 10.9405C11.3907 10.931 11.3552 10.9332 11.3223 10.9569L9.74074 12.9414L9.24889 12.7068C6.81386 11.5452 4.54323 9.36236 3.32674 6.83449L3.09738 6.35787L5.04914 4.69637C5.07685 4.65909 5.08459 4.61368 5.0713 4.56809C4.74807 3.59548 4.58362 2.55765 4.58362 1.49029C4.58362 1.46461 4.57309 1.43465 4.54675 1.4083C4.5204 1.38196 4.49044 1.37143 4.46476 1.37143H1.65283C1.59213 1.37143 1.5333 1.37835 1.48288 1.39095C1.43195 1.40369 1.40106 1.41928 1.38578 1.4295C1.38158 1.4323 1.37897 1.43439 1.37746 1.43572ZM1.37572 1.43746C1.37528 1.4379 1.3757 1.43746 1.37572 1.43746ZM1.37868 1.43264C1.3787 1.43266 1.37853 1.43312 1.37808 1.43397Z" fill="#808080"/>
</svg>
