<svg width="16" height="16" viewBox="0 0 16 16" fill="none" xmlns="http://www.w3.org/2000/svg">
<path d="M8 0C4.68286 0 2 2.504 2 5.6C2 9.8 8 16 8 16C8 16 14 9.8 14 5.6C14 2.504 11.3171 0 8 0ZM3.71429 5.6C3.71429 3.392 5.63429 1.6 8 1.6C10.3657 1.6 12.2857 3.392 12.2857 5.6C12.2857 7.904 9.81714 11.352 8 13.504C6.21714 11.368 3.71429 7.88 3.71429 5.6Z" fill="#808080"/>
<path d="M8 7.6C9.18347 7.6 10.1429 6.70457 10.1429 5.6C10.1429 4.49543 9.18347 3.6 8 3.6C6.81653 3.6 5.85714 4.49543 5.85714 5.6C5.85714 6.70457 6.81653 7.6 8 7.6Z" fill="#808080"/>
</svg>
