<svg width="112" height="112" viewBox="0 0 112 112" fill="none" xmlns="http://www.w3.org/2000/svg">
<rect width="112" height="112" rx="8" fill="#DFDFDF"/>
<path d="M56 23C38.336 23 24 37.336 24 55C24 72.664 38.336 87 56 87C73.664 87 88 72.664 88 55C88 37.336 73.664 23 56 23ZM56 32.6C61.312 32.6 65.6 36.888 65.6 42.2C65.6 47.512 61.312 51.8 56 51.8C50.688 51.8 46.4 47.512 46.4 42.2C46.4 36.888 50.688 32.6 56 32.6ZM56 78.04C48 78.04 40.928 73.944 36.8 67.736C36.896 61.368 49.6 57.88 56 57.88C62.368 57.88 75.104 61.368 75.2 67.736C71.072 73.944 64 78.04 56 78.04Z" fill="#999999"/>
</svg>
