<svg width="12" height="8" viewBox="0 0 12 8" fill="none" xmlns="http://www.w3.org/2000/svg">
<path d="M6 1C8.06727 1 9.91091 2.065 10.8109 3.75C9.91091 5.435 8.06727 6.5 6 6.5C3.93273 6.5 2.08909 5.435 1.18909 3.75C2.08909 2.065 3.93273 1 6 1ZM6 0C3.27273 0 0.943636 1.555 0 3.75C0.943636 5.945 3.27273 7.5 6 7.5C8.72727 7.5 11.0564 5.945 12 3.75C11.0564 1.555 8.72727 0 6 0ZM6 2.5C6.75273 2.5 7.36364 3.06 7.36364 3.75C7.36364 4.44 6.75273 5 6 5C5.24727 5 4.63636 4.44 4.63636 3.75C4.63636 3.06 5.24727 2.5 6 2.5ZM6 1.5C4.64727 1.5 3.54545 2.51 3.54545 3.75C3.54545 4.99 4.64727 6 6 6C7.35273 6 8.45455 4.99 8.45455 3.75C8.45455 2.51 7.35273 1.5 6 1.5Z" fill="white"/>
</svg>
