<svg width="13" height="12" viewBox="0 0 13 12" fill="none" xmlns="http://www.w3.org/2000/svg">
<path d="M7.72569 3.6L6.13637 5.154L4.54705 3.6L3.68182 4.446L5.27114 6L3.68182 7.554L4.54705 8.4L6.13637 6.846L7.72569 8.4L8.59092 7.554L7.0016 6L8.59092 4.446L7.72569 3.6ZM6.13637 0C2.74296 0 0 2.682 0 6C0 9.318 2.74296 12 6.13637 12C9.52978 12 12.2727 9.318 12.2727 6C12.2727 2.682 9.52978 0 6.13637 0ZM6.13637 10.8C3.43023 10.8 1.22727 8.646 1.22727 6C1.22727 3.354 3.43023 1.2 6.13637 1.2C8.84251 1.2 11.0455 3.354 11.0455 6C11.0455 8.646 8.84251 10.8 6.13637 10.8Z" fill="white"/>
</svg>
