<svg width="12" height="12" viewBox="0 0 12 12" fill="none" xmlns="http://www.w3.org/2000/svg">
<path d="M12 1.908L5.15401 8.76L2.61001 6.216L3.45601 5.37L5.15401 7.068L11.154 1.068L12 1.908ZM10.674 4.932C10.752 5.274 10.8 5.634 10.8 6C10.8 8.652 8.65201 10.8 6.00001 10.8C3.34801 10.8 1.20001 8.652 1.20001 6C1.20001 3.348 3.34801 1.2 6.00001 1.2C6.94801 1.2 7.82401 1.476 8.56801 1.95L9.43201 1.086C8.46001 0.402 7.27801 0 6.00001 0C2.68801 0 9.53674e-06 2.688 9.53674e-06 6C9.53674e-06 9.312 2.68801 12 6.00001 12C9.31201 12 12 9.312 12 6C12 5.286 11.868 4.602 11.64 3.966L10.674 4.932Z" fill="#41B883"/>
</svg>
