<svg width="12" height="8" viewBox="0 0 12 8" fill="none" xmlns="http://www.w3.org/2000/svg">
<path d="M6.00001 1C8.06728 1 9.91092 2.065 10.8109 3.75C9.91092 5.435 8.06728 6.5 6.00001 6.5C3.93273 6.5 2.0891 5.435 1.1891 3.75C2.0891 2.065 3.93273 1 6.00001 1ZM6.00001 0C3.27274 0 0.943644 1.555 7.62939e-06 3.75C0.943644 5.945 3.27274 7.5 6.00001 7.5C8.72728 7.5 11.0564 5.945 12 3.75C11.0564 1.555 8.72728 0 6.00001 0ZM6.00001 2.5C6.75274 2.5 7.36364 3.06 7.36364 3.75C7.36364 4.44 6.75274 5 6.00001 5C5.24728 5 4.63637 4.44 4.63637 3.75C4.63637 3.06 5.24728 2.5 6.00001 2.5ZM6.00001 1.5C4.64728 1.5 3.54546 2.51 3.54546 3.75C3.54546 4.99 4.64728 6 6.00001 6C7.35274 6 8.45455 4.99 8.45455 3.75C8.45455 2.51 7.35274 1.5 6.00001 1.5Z" fill="#2B5EAB"/>
</svg>
