<svg width="64" height="64" viewBox="0 0 64 64" fill="none" xmlns="http://www.w3.org/2000/svg">
<rect width="64" height="64" rx="8" fill="#DFDFDF"/>
<path d="M32.3855 13.1084C22.1702 13.1084 13.8795 21.3991 13.8795 31.6144C13.8795 41.8297 22.1702 50.1204 32.3855 50.1204C42.6008 50.1204 50.8915 41.8297 50.8915 31.6144C50.8915 21.3991 42.6008 13.1084 32.3855 13.1084ZM32.3855 18.6602C35.4575 18.6602 37.9373 21.14 37.9373 24.212C37.9373 27.284 35.4575 29.7638 32.3855 29.7638C29.3135 29.7638 26.8337 27.284 26.8337 24.212C26.8337 21.14 29.3135 18.6602 32.3855 18.6602ZM32.3855 44.9388C27.759 44.9388 23.6691 42.57 21.2819 38.9798C21.3374 35.2971 28.6843 33.28 32.3855 33.28C36.0682 33.28 43.4336 35.2971 43.4891 38.9798C41.1018 42.57 37.012 44.9388 32.3855 44.9388Z" fill="#999999"/>
</svg>
